<svg width="270" height="288" viewBox="0 0 270 288" fill="none" xmlns="http://www.w3.org/2000/svg">
<path fill-rule="evenodd" clip-rule="evenodd" d="M259.257 96.77C267.11 103.992 270.631 114.784 268.547 125.248L267.415 130.928L259.257 145.38C254.362 151.324 250.209 162.472 255.742 170.853C257.193 173.038 258.36 175.298 259.257 177.618L259.928 179.348C262.89 186.992 262.648 195.507 259.257 202.971C255.892 211.606 249.103 219.254 239.427 224.133L227.897 229.97L171.518 258.466L126.49 281.229C98.9284 295.163 63.3513 286.812 47.4396 262.686C31.5279 238.56 41.054 207.416 68.6153 193.482C74.1486 190.683 76.0628 184.442 72.8625 179.593C69.6771 174.744 62.5288 173.083 56.9956 175.867L30.7802 189.127C28.3297 190.363 25.7503 191.24 23.1234 191.777C13.703 193.7 6.00945 185.869 2.68836 176.846C0.311152 170.387 0.367368 163.284 2.8465 156.864L4.25487 153.217C6.64903 147.017 11.2582 141.925 17.1902 138.928L22.0955 136.449C24.9237 135.02 27.5094 133.14 29.6418 130.796C39.4574 120.007 41.3858 114.321 35.2965 105.091C23.0486 86.5181 30.3764 62.5422 51.597 51.8114C89.2378 32.7743 103.086 25.785 140.727 6.74794C168.288 -7.18565 203.865 1.16553 219.777 25.2911C235.688 49.4168 226.162 80.5765 198.601 94.5101C193.068 97.3088 191.153 103.55 194.354 108.399C197.539 113.248 204.687 114.909 210.206 112.125L236.436 98.8653C243.611 95.2453 249.868 92.9927 259.243 96.7793C259.249 96.782 259.257 96.7772 259.257 96.77Z" fill="#63C132" fill-opacity="0.3"/>
</svg>
