<svg width="224" height="241" viewBox="0 0 224 241" fill="none" xmlns="http://www.w3.org/2000/svg">
<path fill-rule="evenodd" clip-rule="evenodd" d="M110.623 228.814C155.307 228.814 191.752 192.341 191.752 147.622C191.752 102.902 155.307 66.4297 110.623 66.4297C65.9387 66.4297 29.4943 102.902 29.4943 147.622C29.4943 192.341 65.9387 228.814 110.623 228.814Z" fill="#BCDCEB"/>
<path fill-rule="evenodd" clip-rule="evenodd" d="M111.087 92.0369C111.221 91.4532 110.489 90.7199 110.489 90.7199C110.459 90.7049 110.414 90.675 110.384 90.66C110.369 90.66 110.339 90.66 110.324 90.66C110.16 90.6301 109.995 90.675 109.831 90.6451C109.681 90.6151 109.591 90.4655 109.427 90.4655C109.262 90.4655 108.35 90.5553 108.111 90.6151C107.752 90.69 107.632 90.3457 107.378 90.226C106.929 90.0165 106.884 89.777 106.825 89.328C106.795 89.1784 106.75 89.1484 106.555 89.0586C106.555 89.0586 106.555 89.0287 106.555 89.0137C106.645 88.9539 106.75 88.8641 106.87 88.7444L106.84 88.7144H106.884V88.7444C107.722 88.9539 107.423 88.4001 107.408 88.3852C107.213 88.0409 107.483 87.3525 106.929 87.3076C106.75 87.3076 106.63 87.2926 106.585 87.1579C106.496 86.9185 106.63 86.664 106.511 86.4246C106.211 85.8409 106.047 85.7361 105.838 85.7511C105.568 85.781 105.359 86.0355 105.314 86.1851C105.314 86.1851 105.18 87.5321 105.224 87.577C105.434 87.8015 105.853 87.7266 105.942 88.1158C105.942 88.1158 105.838 89.0437 105.643 89.3131C105.434 89.5974 105.135 89.792 104.94 90.0913C104.821 90.2709 104.686 90.5852 104.626 90.7648C104.537 91.0941 104.492 91.3634 104.507 91.4233C104.566 91.6628 104.821 91.7675 104.925 91.9621C104.97 92.022 105.075 92.1417 105.239 92.1567C105.434 92.1567 105.568 91.992 105.763 91.992C105.942 92.2016 105.568 92.5308 105.853 92.6954C105.853 92.6954 106.226 92.8601 106.511 92.9349L108.365 93.339H108.38C108.649 93.4138 108.799 93.6682 109.068 93.7131C109.247 93.7431 109.95 93.6832 110.04 93.6533L110.788 93.0397L111.057 92.0818L111.087 92.0369ZM135.702 70.4107C135.911 70.4705 136.121 70.5454 136.33 70.6202C136.315 70.6202 136.285 70.6202 136.27 70.6352C136.27 70.6352 136.3 70.6651 136.315 70.6651C135.717 70.6651 135.179 70.3059 134.58 70.3508C135.179 70.5005 135.807 70.5154 136.375 70.7848C135.777 70.7848 135.238 70.5005 134.67 70.4256C134.64 70.4556 134.64 70.4705 134.446 70.4556C134.446 70.4556 134.431 70.4705 134.416 70.4855C134.386 70.4855 130.184 69.7971 130.004 69.7372C130.602 69.7222 131.44 69.6923 133.1 69.9767H133.115C133.324 70.0365 133.534 70.0964 133.743 70.1562C133.788 70.1562 133.848 70.1562 133.892 70.1712C133.653 70.1113 133.414 70.0515 133.16 69.9916H133.145C133.145 69.9916 133.115 69.9916 133.1 69.9767C132.861 69.9068 132.726 69.8669 132.696 69.8569C133.698 70.0216 134.7 70.2012 135.687 70.4107H135.702ZM153.453 78.6721C157.88 81.4408 162.022 84.6137 165.836 88.1607L162.725 85.796C161.05 84.3892 159.151 83.2817 157.401 81.9796C156.653 81.4258 156.025 80.7374 155.308 80.1537C154.56 79.5401 153.588 79.2557 152.9 78.5523C152.9 78.5523 152.93 78.5224 152.945 78.5224C153.049 78.5523 153.214 78.5823 153.453 78.6721ZM172.73 95.4043C173.941 96.8411 175.092 98.3228 176.214 99.8493C176.005 99.8493 175.795 99.8493 175.571 99.8343C176.05 100.119 176.408 100.328 176.678 100.493C179.175 103.995 181.403 107.707 183.332 111.583C183.213 111.942 183.183 112.182 183.018 113.618C182.974 113.648 182.914 113.693 182.869 113.738C182.764 113.663 182.63 113.543 182.525 113.454C182.465 113.454 182.375 113.469 182.301 113.484C182.301 113.484 182.181 113.439 182.121 113.424L182.091 113.349V113.409H182.121V113.439C180.97 112.93 178.622 108.919 178.607 108.889H178.637C178.637 108.889 178.697 108.754 178.697 108.694C178.697 108.605 176.932 102.798 175.661 104.639C175.915 105.956 177.052 106.764 177.59 107.901C178.128 109.069 178.024 110.401 178.607 111.553C178.816 111.987 179.923 114.127 180.611 114.322C180.611 114.322 181.433 114.651 181.912 115.609C182.6 116.986 182.645 118.572 183.332 119.934C183.362 119.994 183.392 120.039 183.422 120.099C183.482 120.203 183.542 120.338 183.602 120.428C183.632 120.458 183.661 120.488 183.691 120.518C183.751 120.518 183.826 120.518 183.871 120.518C183.901 120.578 184.2 121.086 184.29 121.625C184.245 121.685 184.2 121.76 184.155 121.805C184.245 122.284 184.26 122.314 183.916 122.628C183.602 122.852 183.258 123.092 182.914 123.316C183.258 123.092 183.587 122.882 183.781 122.957C183.841 123.242 183.856 123.646 183.811 123.93C183.676 123.96 183.497 123.99 183.377 124.02C183.258 123.9 183.093 123.75 182.974 123.631C183.676 125.262 183.542 125.487 183.258 125.921C183.003 125.816 182.645 125.726 182.375 125.696C182.306 125.945 182.774 126.31 183.781 126.789C183.961 125.98 183.99 125.965 184.544 125.621C184.723 125.861 185.037 126.115 185.292 126.28C185.531 124.693 185.725 123.721 185.875 123.361C186.144 123.421 186.488 123.526 186.742 123.616C186.847 122.074 186.802 121.999 186.114 120.802C186.413 120.518 186.667 120.233 186.922 119.949C189.314 126.534 190.87 133.508 191.468 140.767C190.78 139.899 190.541 139.899 190.002 139.899C189.883 139.645 189.628 139.345 189.404 139.181C188.716 140.977 190.182 141.665 191.587 142.443C191.647 143.476 191.707 144.509 191.737 145.556C190.182 143.82 187.983 142.339 187.938 142.309C186.817 142.982 187.176 144.404 186.428 145.257C184.903 144.703 183.99 150.66 183.318 155C183.138 156.227 179.22 159.28 179.19 159.295C179.021 159.176 178.711 158.831 178.263 158.263C177.635 158.233 177.037 158.607 176.394 158.487C174.135 151.677 174.988 149.388 175.018 149.298C175.077 149.138 177.061 148.345 180.97 146.918C181.149 146.335 181.014 142.967 179.968 142.383C178.123 141.336 177.146 140.518 177.037 139.929C177.575 139.315 178.442 139.27 179.055 138.806C178.981 138.507 178.831 138.118 178.697 137.834C178.741 137.684 178.816 137.489 178.861 137.355C179.115 137.43 179.489 137.46 179.743 137.43L182.495 128.091C182.495 128.091 181.179 125.561 180.671 124.618L180.192 123.257C180.162 123.167 180.162 123.107 180.162 123.077C180.162 123.077 180.162 123.047 180.162 123.032C180.207 122.942 180.267 122.837 180.312 122.553C180.356 122.284 180.356 121.999 180.401 121.73C180.401 121.7 180.401 121.67 180.416 121.655C180.416 121.61 180.446 121.595 180.521 121.505C180.521 121.505 180.671 121.416 180.88 121.94C181 122.239 181.044 122.568 181.209 122.867C181.388 123.167 181.508 123.227 181.687 123.301C181.792 123.376 181.852 123.421 181.867 123.511C181.912 123.676 181.807 123.81 181.822 123.975C181.478 124.184 181.119 124.394 180.745 124.589C181.119 124.394 181.478 124.214 181.897 124.349C182.375 125.053 182.45 125.082 183.063 125.247C182.595 124.648 182.445 124.065 182.615 123.496C182.615 123.496 182.674 123.421 182.719 123.391C182.719 123.391 182.749 123.376 182.764 123.361V123.391L182.615 123.496C182.674 123.466 182.719 123.421 182.779 123.391L182.824 123.436L182.794 123.391V123.361H182.764C182.316 121.999 179.34 118.767 179.205 118.692C179.205 118.692 179.175 118.707 179.16 118.722L179.1 121.146C178.711 122.673 177.216 121.281 177.201 121.266L174.719 117.36C174.375 116.776 174.105 116.148 173.791 115.534C173.597 115.145 173.717 114.995 173.881 114.771L173.941 112.271C173.851 112.196 173.747 112.077 173.702 111.972C173.806 111.852 173.986 111.807 174.105 111.673C174.105 111.658 173.268 108.215 173.253 108.2C172.954 107.482 172.46 106.868 172.116 106.165C170.262 102.424 170.262 102.259 170.232 101.78L170.202 101.675C170.202 101.675 170.053 101.675 169.978 101.675C169.843 101.825 169.784 102.019 169.679 102.199C169.619 102.184 169.559 102.154 169.499 102.139C169.26 101.496 168.752 100.987 168.512 100.343C168.512 100.343 168.542 100.328 168.557 100.313C168.782 100.538 168.931 100.822 169.126 101.077C169.265 101.087 169.43 101.012 169.619 100.852C169.44 100.209 168.572 100.119 168.468 99.4153C168.512 99.3704 168.557 99.3255 168.602 99.2806C168.602 99.2806 168.577 99.2457 168.527 99.1758C168.468 99.0411 168.438 98.8316 168.483 98.6969H168.453C168.453 98.6969 168.453 98.6969 168.408 98.6371C168.318 98.5622 168.198 98.4724 168.094 98.3976C168.094 98.3377 168.094 98.2629 168.094 98.218C168.213 98.2978 168.358 98.4325 168.527 98.6221C168.617 98.5023 168.587 98.3527 168.617 98.218C168.198 97.7291 168.029 97.2951 168.109 96.9159C167.839 96.6665 167.67 96.5019 167.6 96.422C167.6 96.422 167.645 96.2724 167.66 96.2125C167.735 96.2125 167.825 96.3173 167.869 96.3622L167.929 96.437L167.899 96.3771C167.899 96.3771 167.884 96.3622 167.869 96.3472C167.825 95.8084 167.51 95.3594 167.421 94.8356C167.6 94.9404 167.765 95.0751 167.944 95.1798H167.974C168.094 95.2247 168.243 95.3145 168.363 95.4043C168.393 95.4043 168.423 95.4043 168.438 95.3894C168.213 95.0451 167.869 94.7907 167.75 94.3866C167.989 94.3866 168.034 94.4016 168.587 94.9554C168.602 94.9554 168.632 94.9254 168.647 94.9104C168.572 94.8057 168.497 94.656 168.468 94.5363C169.484 94.5363 169.559 95.8384 170.457 95.988C170.501 95.8982 170.606 95.7785 170.681 95.7037C170.621 95.5839 170.576 95.4043 170.561 95.2696C170.651 95.2996 170.935 95.4891 171.414 95.8384C171.414 95.8384 171.518 95.7635 171.578 95.7336C171.608 95.2547 172.072 95.2247 172.67 95.4193L172.73 95.4043ZM184.14 113.289C182.988 113.663 184.11 116.686 184.514 117.09C184.554 116.931 184.554 116.646 184.514 116.237C185.247 116.133 185.83 117.719 185.875 118.048C185.755 118.048 185.506 117.899 185.127 117.599C185.127 117.599 185.022 117.674 184.977 117.704C184.903 118.617 185.86 120.413 186.054 120.727C186.353 120.458 186.622 120.173 186.877 119.889C186.054 117.644 185.142 115.444 184.14 113.289ZM191.169 157.275H191.124C190.974 156.242 191.049 152.89 191.049 152.86C190.78 152.86 190.406 152.8 190.152 152.725L182.779 159.37C182.66 159.45 181.493 159.6 179.28 159.819C177.226 165.606 176.015 168.929 175.646 169.787C174.076 173.468 170.606 175.833 168.976 179.485C167.376 183.062 168.737 187.417 166.03 190.695C166.224 191.353 167.361 193.912 167.466 193.912L167.525 193.837L167.481 193.927C167.555 194.391 167.944 194.705 168.064 195.14C170.098 196.127 170.008 199.555 172.76 199.689C177.171 194.376 180.955 188.539 184.02 182.283C187.669 174.546 190.137 166.135 191.184 157.275H191.169ZM132.068 225.955C125.234 227.826 118.041 228.829 110.623 228.829C106.226 228.829 101.905 228.469 97.7023 227.796C97.2985 227.182 96.7901 226.658 96.162 226.314C94.1282 225.222 91.8102 224.713 89.911 223.351L86.1574 219.579L83.5852 216.915C82.987 216.422 82.0897 216.451 81.5812 215.793C81.0279 215.075 80.5942 214.117 81.7308 213.623C82.0598 213.473 82.2442 213.294 82.2841 213.084C82.2093 213.054 82.1047 213.009 82.0448 212.994C82.0149 212.994 81.9701 213.024 81.9401 213.039C80.2204 212.246 80.8933 211.049 80.9083 211.034C82.2243 211.183 83.5403 211.333 84.8713 211.468C96.9845 212.695 110.16 213.114 123.275 212.71L123.499 212.56C123.723 212.366 123.903 212.306 124.277 212.261C124.98 212.216 125.563 212.321 126.041 212.441C125.398 212.47 124.74 212.5 124.097 212.53C124.755 212.5 125.398 212.47 126.056 212.441C127.582 212.85 128.444 213.264 128.643 213.683C128.718 213.683 128.823 213.713 128.898 213.713C128.165 218.741 127.268 223.171 126.236 226.928C127.268 223.171 128.165 218.741 128.928 213.698C129.376 213.528 129.675 213.428 129.825 213.398L134.401 213.473C135.478 213.668 136.315 214.446 137.332 214.79C138.005 215.015 138.753 214.88 139.426 215.119C139.8 215.254 140.099 216.511 139.889 217.05C139.665 217.649 139.336 218.023 139.231 218.143C138.813 218.622 138.005 219.22 136.824 219.909C136.584 220.043 136.405 220.178 136.405 220.178C136.36 220.208 136.315 220.238 136.27 220.268C136.001 220.477 135.687 220.822 135.418 221.121C134.939 221.645 134.177 221.72 133.698 222.228C133.578 222.348 133.563 222.438 133.414 222.962C133.205 223.77 132.816 224.803 132.636 225.147L132.083 225.91L132.068 225.955ZM43.2226 102.424C43.447 102.094 43.6713 101.75 43.9106 101.421C45.406 100.328 47.2753 99.8493 48.6362 98.5622C48.5465 98.4874 48.4418 98.3677 48.3521 98.2928C48.3222 98.2779 48.2773 98.2479 48.2474 98.233C48.4568 97.9536 48.696 97.5794 48.9652 97.1105C48.8755 97.0506 48.7708 96.9758 48.6811 96.9159C50.4009 95.539 50.9841 94.9254 51.1785 94.7309C51.1336 94.6261 51.0738 94.4764 51.014 94.3717C52.5095 92.3213 56.6519 89.1484 58.4165 89.4029C58.4165 89.5226 58.4165 89.6872 58.4165 89.8219C58.6857 89.6872 59.0297 89.4927 59.269 89.343C59.1194 89.5376 58.9549 89.807 58.8502 90.0165C58.8502 90.0165 58.8502 90.0165 59.0895 90.0165C60.0915 89.6124 60.7794 88.6995 61.8561 88.4301L61.9757 88.3552C61.9757 88.3552 62.0056 88.2355 62.0206 88.1756C61.7664 88.1906 61.4374 88.1307 61.2131 88.0559C61.3028 87.8164 61.3776 87.4722 61.3626 87.2328C62.2898 86.2051 64.0794 85.2871 66.7313 84.479C66.8061 84.5837 66.8958 84.7035 66.9706 84.8082C66.0035 85.5665 65.51 86.0604 65.4901 86.2899C69.0493 85.796 70.2905 81.351 74.089 81.2762C74.0441 81.3809 73.9992 81.5306 73.9544 81.6354C73.9693 81.6354 77.3042 81.4558 79.0539 80.7973C79.2782 80.902 79.5624 81.0517 79.7717 81.1864C80.011 81.1265 80.34 81.0667 80.5942 81.0367C80.5494 81.1714 80.5344 81.2313 79.8914 81.7551H79.8465L79.5325 81.785L79.3231 81.7551C79.3231 81.7551 79.2035 81.9048 79.1586 81.9796C79.2633 81.9197 79.3979 81.8599 79.5025 81.8C79.5025 81.8 79.5025 81.8 79.8615 81.7551H79.8914C79.8914 81.7551 79.8914 81.785 79.8914 81.8C79.682 81.9646 79.3979 82.1742 79.1885 82.3238C79.1885 82.4436 79.2035 82.5932 79.2184 82.7129C78.71 83.1919 78.052 83.4912 77.6781 84.1347C77.7529 84.2245 77.8575 84.3443 77.9323 84.4341C77.2893 85.1225 76.9902 86.3198 77.035 86.664H77.0799C77.1098 86.7838 77.1397 86.9334 77.1696 87.0532C76.9004 87.4024 76.6313 88.0858 76.3621 89.1035C76.3621 89.1035 76.3621 89.1035 76.377 89.1035H76.3471C75.6393 90.1412 75.2604 90.7149 75.2106 90.8247C75.2853 90.9294 75.3751 91.0641 75.4349 91.1838C75.9284 90.8247 76.2724 90.5553 77.4239 90.7798C77.3341 90.8696 77.1995 90.9893 77.1098 91.0791L77.0201 91.124L76.9453 91.1838L77.0051 91.139C77.9921 91.4981 78.9492 91.0491 79.9213 91.0042C79.9213 91.124 79.9213 91.2886 79.9213 91.3934C79.8316 91.4682 79.7119 91.5879 79.6222 91.6628V91.6328L79.2782 91.7226C79.2932 91.7226 79.3231 91.7226 79.5624 91.6478H79.6222C79.6521 91.7376 79.682 91.8573 79.7119 91.9471C80.3849 91.7675 80.8933 91.2437 81.5962 91.109C81.0429 91.8424 80.3699 92.4859 79.7867 93.1744C79.8016 93.2941 79.8315 93.4737 79.8465 93.5934C80.4547 93.2941 80.9083 93.0896 81.2074 92.9798L81.2522 93.0247C80.9083 93.5485 80.3251 93.8628 80.0409 94.4465C80.4596 94.3717 80.8186 94.1621 81.2223 94.0274C81.6411 94.3417 81.671 94.5213 81.4467 95.12C80.7438 96.9758 81.4766 99.5201 82.5084 101.211L82.7926 101.181C82.9122 101.226 83.0468 101.286 83.1664 101.331C83.1365 102.059 82.987 102.877 82.7178 103.785C84.0787 103.052 85.0358 101.675 86.6209 101.316V101.092C86.6209 101.092 86.6359 101.092 86.5611 101.092C86.0377 101.211 85.4993 101.166 84.9909 101.346C84.946 101.241 84.9012 101.092 84.8563 100.972C85.0507 100.628 85.4694 99.9391 87.279 100.448C87.3238 101.181 86.95 101.825 86.8752 102.528C87.3687 103.097 89.3876 104.474 89.9259 104.609C90.5839 103.9 91.2469 103.506 91.9149 103.426V103.381C91.9298 102.843 91.4513 102.453 91.4662 101.915C92.3934 101.406 93.1312 100.977 93.6795 100.628C94.0384 101.077 94.3226 101.585 94.7263 102.004C94.5469 102.154 94.2777 102.304 94.0534 102.379C93.7543 103.411 93.5001 104.309 92.0345 103.666C92.0345 103.8 92.0345 103.995 92.0046 104.13C92.1093 104.219 92.2588 104.339 92.3635 104.429C92.0644 105.132 91.1073 105.522 91.3765 106.509C91.4363 106.494 91.5111 106.464 91.5709 106.449C92.199 105.073 94.0983 105.147 94.6665 103.711H94.6964L94.7712 103.666H94.6815C94.6815 103.666 94.502 103.591 94.4273 103.546C94.502 103.321 94.6964 102.783 95.6087 102.438C93.3804 99.3405 97.5079 97.6044 97.5528 97.6044C98.0463 96.3921 100.708 90.4655 103.968 93.2941C103.789 94.237 101.695 95.6438 101.336 95.7785C101.127 95.6588 100.813 95.569 100.574 95.539C99.0781 98.4425 98.2706 100.353 98.151 101.271C97.1789 101.765 97.0742 101.96 96.8499 102.364C97.3883 102.783 97.7073 103.072 97.807 103.232C97.3085 103.741 96.9795 104.374 96.82 105.132L96.9995 105.043C97.4331 104.653 97.7322 104.145 98.1659 103.756C98.2556 103.815 98.3902 103.905 98.48 103.965C98.6744 105.387 96.6555 106.405 97.7621 107.991C98.5099 107.752 98.3155 106.854 98.8389 106.449C98.8987 106.554 98.9735 106.704 99.0333 106.809L99.0034 106.898L99.0632 106.854C100.723 106.24 100.394 103.815 102.204 103.336C102.204 103.336 102.204 103.336 102.428 103.292L102.398 103.262C102.398 103.262 102.413 103.217 102.428 103.187C102.039 102.813 101.516 102.603 101.262 102.094C99.5268 101.645 100.439 100.328 100.633 100.074C100.873 100.074 101.202 100.208 101.396 100.358C101.501 100.313 101.65 100.238 101.755 100.194C101.441 99.7895 100.618 99.7745 100.708 99.0561C100.708 98.9813 104.267 93.1594 106.57 94.641C106.585 94.7608 106.615 94.9104 106.63 95.0302C102.622 97.7091 104.088 99.7745 104.118 99.7894C104.91 96.5867 105.449 95.9431 106.69 95.6588C106.69 95.6588 106.69 95.6588 106.974 95.6288C107.712 95.3694 108.255 95.3345 108.604 95.5241C108.664 95.8234 108.44 96.8611 107.931 98.6371V98.6969C107.931 98.6969 107.931 98.652 107.931 98.6371C108.036 98.5922 108.186 98.5323 108.305 98.4874C108.978 98.7867 109.561 98.3377 110.204 98.2779L110.174 98.2479C110.174 98.2479 110.174 98.2479 109.965 98.0833C109.726 98.0833 109.397 98.1881 109.158 98.1581C108.589 98.0833 108.23 96.5717 109.158 95.554C110.773 96.3622 111.67 96.8112 110.877 98.3078L110.608 98.2779C110.474 98.2779 110.294 98.2479 110.174 98.233C110.728 98.7119 111.281 99.2058 111.505 101.032C111.964 101.261 112.338 101.351 112.627 101.301C113.315 101.975 113.285 102.229 113.21 102.768H113.195L113.15 102.828L113.21 102.768C116.082 104.549 115.169 106.449 115.154 106.464C115.214 106.584 115.304 106.734 115.364 106.839C115.409 106.943 115.438 107.078 115.483 107.183C115.394 107.258 115.274 107.362 115.184 107.437C114.975 107.392 114.646 107.437 114.466 107.527C114.392 107.916 114.152 108.26 114.167 108.664C115.259 109.113 115.827 110.161 116.695 110.864C116.65 111.089 116.695 111.433 116.799 111.643C117.039 111.643 117.338 111.733 117.547 111.852L117.577 111.822C117.577 111.822 117.577 111.867 117.577 111.882V112.122V112.092C117.577 112.107 117.577 112.137 117.577 112.152C118.285 112.571 118.654 112.895 118.684 113.124C118.684 113.124 116.455 115.773 115.902 116.417C114.526 115.878 114.451 114.382 113.719 113.379C113.584 113.379 113.42 113.394 113.285 113.409C113.225 113.633 113.061 113.918 112.896 114.097C112.762 114.097 112.582 114.097 112.433 114.082V114.052L112.358 114.022L112.403 114.067C112.821 115.235 114.122 115.938 114.122 117.33C114.122 118.707 113.509 120.039 113.793 121.446C112.463 120.817 111.864 119.29 110.503 118.677V118.632L110.444 118.587V118.557L110.369 118.542L110.444 118.587C110.698 119.859 113.076 120.877 111.819 122.194C110.414 121.79 109.412 120.727 108.2 119.994V120.024C106.84 119.111 107.737 116.447 105.583 116.252H105.509C105.509 116.252 105.509 116.252 105.359 116.252C104.671 116.163 103.983 116.342 103.295 116.312C103.191 116.312 100.708 116.148 103.624 113.783C104.412 114.102 105.494 114.197 106.87 114.067C106.87 114.067 106.869 114.067 107.019 113.858C106.346 111.478 111.012 109.892 108.858 107.886C108.634 107.916 108.305 107.886 108.096 107.781C108.23 107.572 108.38 107.303 108.485 107.093C108.26 107.063 107.931 107.063 107.707 107.093C107.632 107.003 107.542 106.883 107.468 106.794C107.647 106.629 107.901 106.405 108.081 106.225C107.288 104.893 107.318 104.758 107.572 103.741C107.378 103.576 107.094 103.396 106.87 103.277V103.232C106.87 103.232 106.855 103.217 106.84 103.202C106.855 103.067 106.884 102.902 106.914 102.768C106.899 102.902 106.869 103.067 106.84 103.202V103.247C107.079 104.264 106.451 104.369 105.823 104.459L105.643 104.13H105.598C105.494 104.07 105.344 103.98 105.239 103.905V103.875L105.165 103.845L105.195 103.905C105.195 103.905 105.224 103.905 105.239 103.905C105.344 103.965 105.494 104.055 105.598 104.13C105.628 104.175 105.658 104.234 105.688 104.264C105.658 104.384 105.613 104.534 105.583 104.653C105.364 104.584 105.045 104.359 104.626 103.98C103.834 103.86 103.131 103.471 102.368 103.277C102.652 103.516 102.996 103.666 103.236 103.965L103.535 104.085C103.644 105.841 103.46 106.769 102.981 106.868C102.862 106.839 102.712 106.809 102.592 106.794L102.518 106.764L102.563 106.794C102.563 112.047 98.1061 110.745 98.0612 110.73C97.9715 110.61 97.8818 110.415 97.822 110.281C97.6874 110.251 97.5229 110.206 97.3883 110.161C97.2836 110.221 97.1639 110.311 97.0593 110.371C97.1639 110.805 97.2088 110.954 96.6555 111.388C93.8839 113.653 92.1093 114.661 91.3317 114.411C90.7185 115.07 90.6288 115.175 89.7465 115.13V115.085L89.6567 115.055L89.7016 115.115C89.7016 115.115 89.7315 115.115 89.7016 115.354C89.6717 115.474 89.6418 115.624 89.6268 115.743C81.8953 120.039 81.6261 121.61 81.2822 123.586C81.5214 123.646 81.8355 123.765 82.0598 123.885C82.0299 124.858 81.8504 126.22 81.0728 127.148H81.0279L80.998 127.208L81.0578 127.178C84.6021 125.501 84.8563 131.323 87.6379 132.251C87.9669 132.311 88.7295 132.516 89.9259 132.865C89.9259 132.865 89.4773 134.481 89.1483 135.409C87.3986 135.259 85.6638 135.095 83.974 134.915C85.6788 135.095 87.3986 135.289 89.0137 135.723C88.4305 136.711 88.0117 137.415 89.7465 140.138C90.8631 140.019 91.7255 138.532 92.3336 135.679C92.4832 134.651 92.6078 134.092 92.7075 134.002C93.5449 133.299 94.6815 133.449 95.5788 132.94C96.5359 132.416 98.5099 131.308 97.3434 128.24C97.1789 127.806 96.5508 127.582 96.7303 126.983C96.9546 126.235 97.7472 126.04 98.1659 125.487C98.3902 125.187 98.794 125.112 99.0183 124.813C99.0931 124.723 99.138 124.663 99.0632 124.259V122.763C99.113 122.603 99.3473 122.299 99.7661 121.85C100.245 121.341 99.7212 120.697 100.005 120.159C100.304 119.59 100.798 119.5 100.977 119.455C101.665 119.425 102.129 119.979 102.757 120.129C103.37 120.293 103.998 119.979 104.611 120.233C104.866 120.338 105.269 120.847 105.419 121.341C105.942 123.032 106.062 123.062 106.6 123.167C106.6 123.167 108.26 123.451 107.782 124.155C106.735 125.666 106.899 127.342 106.899 127.357C106.899 127.372 107.812 129.288 108.903 128.869C109.85 128.5 111.022 127.277 112.418 125.202C112.667 125.202 112.821 125.422 112.881 125.861C112.911 126.04 113.464 130.141 114.541 131.787C114.99 132.491 113.569 132.835 114.078 133.508C114.945 134.676 116.221 135.604 117.906 136.292C110.055 136.457 102.219 136.292 94.6516 135.813C102.219 136.292 110.085 136.487 118.22 136.591C118.22 136.861 118.085 137.235 117.921 137.46C118.564 137.564 118.654 137.729 118.818 138.372H118.788L118.714 138.432L118.818 138.372C118.818 138.372 118.818 138.372 118.863 138.358C119.421 138.397 119.765 139.231 119.895 140.857C116.216 144.913 112.448 144.434 111.221 144.269C111.176 144.269 106.406 143.73 106.182 143.79C106.137 143.79 102.009 145.871 101.546 147.008H101.501C101.381 147.068 101.217 147.113 101.097 147.143C101.037 147.262 100.947 147.442 100.888 147.577C100.27 147.816 99.8807 147.991 99.7212 148.101L99.6913 148.205C99.9505 147.996 100.344 147.811 100.873 147.652C101.037 147.457 101.276 147.233 101.456 147.068H101.546C101.546 147.068 101.546 147.023 101.546 147.008C103.654 145.886 106.256 145.661 106.271 145.661C107.199 145.661 109.068 145.886 106.555 147.996C106.69 148.056 106.855 148.13 106.974 148.19C106.645 149.971 106.6 150.495 107.797 150.854C107.916 151.094 108.2 151.363 108.455 151.453C108.873 153.084 104.611 155.015 104.566 155.03C103.789 154.641 104.163 153.703 105.688 152.216C103.908 152.082 102.443 153.264 100.753 153.473C100.439 153.518 95.5189 155.494 97.807 157.35C97.7023 157.604 97.4331 157.888 97.1939 158.008C97.1939 158.008 97.1839 158.008 97.1639 158.008C97.1639 158.008 97.164 158.008 96.835 158.008C95.1899 158.138 94.2428 158.238 93.9936 158.308C94.1282 158.352 94.3076 158.397 94.4572 158.442L94.5319 158.577C93.1711 159.37 92.0196 160.448 90.7185 161.316C90.5839 161.391 90.3746 161.406 90.24 161.435H90.2101C90.1353 161.555 90.0456 161.705 89.9708 161.81C89.9708 161.825 89.9708 161.855 89.9558 162.049C89.8462 162.438 89.4773 162.992 88.8492 163.71C88.7445 163.65 88.6099 163.591 88.5202 163.531C88.5202 163.276 88.3856 162.932 88.2061 162.753L88.0715 166.734C85.6788 168.978 82.2243 169.487 79.8166 171.717C76.6313 174.651 83.4057 179.949 79.0988 181.221C78.2314 181.475 76.9004 178.108 76.8855 178.078C75.9733 175.369 74.4329 170.834 68.3464 172.511C67.9127 173.543 67.4342 174.711 65.5499 172.989C65.4602 172.915 57.7137 170.774 58.1922 176.447C58.1922 176.507 58.1922 176.581 58.1922 176.641C57.9679 178.003 57.4295 179.32 57.4445 180.727C57.4445 184.259 59.927 186.878 61.243 187.507L65.0115 187.641C66.1331 187.073 65.6247 185.696 66.3574 184.933C66.7612 184.513 70.2008 184.409 70.8289 185.112C72.0252 186.444 70.0363 187.522 69.797 188.779C69.5577 188.914 69.2586 189.108 69.0194 189.243C68.9396 190.42 68.8299 191.119 68.6904 191.338C68.7352 191.458 68.81 191.622 68.8549 191.742C70.8139 192.311 73.0272 191.787 74.8218 193.134L74.7769 193.179H74.8666L74.8218 193.134C74.8218 193.134 74.8218 193.134 75.2106 193.299C75.3153 193.373 75.4648 193.478 75.5844 193.553C75.7938 194.99 74.9115 196.307 75.1508 197.759C75.2554 198.357 76.0181 199.21 76.6462 199.809C78.8296 201.919 81.9551 200.737 84.3628 202.039V202.069L84.3927 202.114V202.039C84.0039 200.677 91.6607 198.372 91.7504 198.402C91.7504 198.552 91.7803 198.746 91.7952 198.896C91.5709 199.061 91.3167 199.375 91.227 199.644C91.3466 199.719 91.4962 199.809 91.6008 199.869C92.4582 199.649 92.9567 199.315 93.0963 198.866C93.2159 198.806 93.3804 198.746 93.5001 198.687C95.9028 199.854 97.6924 200.517 98.8688 200.677C100.678 200.931 102.592 199.15 104.312 200.991C104.223 201.081 104.088 201.216 103.998 201.321C105.454 202.039 106.236 202.563 106.346 202.892C106.825 202.982 107.303 203.012 107.782 203.161C109.502 203.715 110.399 205.736 112.418 205.781C115.947 205.87 116.784 205.885 118.145 206.678C118.549 206.918 122.108 209.058 121.017 211.378C120.717 211.453 120.344 211.692 120.149 211.917C120.643 211.902 121.121 211.797 121.6 211.812L121.69 211.842L121.645 211.812C121.645 211.812 121.63 211.812 121.69 211.617C122.278 211.727 122.736 211.827 123.065 211.917C123.125 212.051 123.2 212.246 123.26 212.381C123.26 212.381 123.2 212.545 123.17 212.605C108.709 213.204 93.9637 212.815 80.8933 211.079C81.6411 209.432 83.3907 208.445 84.4525 207.098C83.1814 202.742 82.8374 201.575 81.0429 201.126C80.7637 201.405 80.4397 201.924 80.0708 202.683C79.4328 202.822 77.4887 201.804 74.2385 199.629C72.2944 198.327 71.4719 195.768 69.0493 195.035C69.0343 195.035 65.7293 193.763 64.9218 193.359C63.0973 192.431 62.1701 190.021 59.6877 190.216C58.6857 190.29 57.609 189.617 54.4237 187.611L49.4139 183.406L43.9405 170.206C42.8936 167.482 42.3353 165.706 42.2656 164.878C42.1958 164.05 41.9316 163.386 41.473 162.887C41.3384 162.917 41.1589 162.962 41.0243 163.007C40.8847 164.214 41.2237 165.905 42.0412 168.08C42.0711 168.155 44.8677 176.312 44.6433 176.821C44.0452 176.581 40.2168 168.125 40.2317 168.066C40.3663 168.066 40.5458 168.051 40.6804 168.036C41.114 166.629 39.798 165.686 39.6934 164.429L39.1101 159.116C38.9456 157.604 36.9866 157.11 37.0165 155.479L36.8968 151.124C36.852 150.375 36.852 150.345 37.166 149.672C35.4163 144.808 42.8936 131.608 44.0302 131.054V131.009C44.0302 131.009 43.0133 127.073 44.2396 125.442H44.2695C44.2695 125.442 44.2994 125.457 44.3143 125.472L44.2545 125.442C44.2545 125.442 44.3143 125.487 44.4938 125.666C45.6303 129.931 45.1817 130.605 44.5536 131.548C44.419 131.503 44.2396 131.428 44.1199 131.383V131.428C44.1947 131.787 44.419 131.952 44.7929 132.221C45.8547 131.578 45.6004 130.455 45.3312 129.273C45.3312 129.273 45.3312 129.273 45.3312 128.929C45.5905 128.131 45.4957 127.098 45.0471 125.831C45.3312 124.544 46.2883 123.466 46.1986 122.059L46.2435 122.029C46.2335 121.959 46.6074 121.491 47.3651 120.622C47.1108 120.413 46.7519 120.458 46.4828 120.278C46.5127 120.159 46.5426 119.979 46.5575 119.859C46.8566 119.73 47.076 119.415 47.2155 118.916C47.4747 118.817 47.8935 118.422 48.4717 117.734C48.4119 117.629 48.3222 117.48 48.2624 117.375C48.6113 116.666 48.8007 116.197 48.8306 115.968C48.3969 116.327 48.0081 116.731 47.5595 117.061C47.5595 117.061 47.5595 117.061 47.4997 116.896C47.9483 115.564 48.6512 114.337 49.0998 113.02C48.9951 113.079 48.8605 113.139 48.7559 113.199C49.055 112.451 49.7129 111.927 49.9672 111.164L49.9373 111.194L49.9821 111.119V111.164C50.685 109.817 50.7747 109.772 51.358 109.532C51.4477 109.622 51.5673 109.727 51.672 109.817C51.7767 109.398 51.9561 109.009 52.001 108.575C51.8963 108.784 51.6571 109.009 51.4477 109.113C51.4477 109.098 51.7318 106.554 52.8983 105.237C52.8235 105.177 52.7039 105.102 52.6291 105.058C52.6291 104.803 52.674 104.474 52.7338 104.234L52.7936 104.19H52.7487C52.649 103.651 52.5892 103.361 52.5693 103.321L52.5394 103.292C52.4945 103.172 52.4197 103.022 52.3749 102.917C52.8086 102.019 52.9581 100.987 53.6311 100.194C53.5264 100.134 53.3918 100.044 53.3021 99.984C53.2871 99.8643 53.2572 99.7146 53.2422 99.5949C52.8235 99.969 52.659 100.568 52.1506 100.867C52.1506 100.867 52.1506 100.867 51.8814 100.822C51.8814 100.822 50.4607 101.002 49.3989 101.002L49.4288 100.852C49.4288 100.852 52.3001 97.9785 53.3619 98.7268C53.5264 98.5472 53.6759 98.2479 53.7208 98.0234L45.8995 101.585C45.8995 101.585 44.4041 102.603 43.2675 102.468L43.2226 102.424ZM84.5871 191.114C84.6021 191.024 84.4376 190.425 83.0917 190.305C82.7178 190.275 82.0598 190.35 82.0448 190.35C81.8654 190.41 82 190.575 82.0448 190.635C82.4636 191.129 82.8972 191.308 83.1814 191.353C83.5552 191.428 84.4824 191.398 84.5572 191.114H84.5871ZM95.9377 191.203C96.0274 190.889 93.7094 189.647 93.5748 189.602C93.3954 189.542 92.7224 189.363 92.4233 189.318C92.3635 189.318 92.3037 189.303 92.2439 189.288C91.6906 189.198 91.1522 189.452 90.5989 189.318C90.2549 189.228 90.0157 188.914 89.6268 188.899C89.2231 188.958 88.9539 189.303 89.1782 189.497C89.4922 189.782 89.7614 190.036 89.7764 190.56C89.567 190.724 89.4175 190.455 89.238 190.485C88.9987 190.515 88.7894 190.62 88.5501 190.62C88.3856 190.62 88.2211 190.62 88.0566 190.62C86.6957 190.65 88.0267 191.293 88.0865 191.293C88.6697 191.353 89.2679 191.323 89.8511 191.428C90.2798 191.508 90.5989 191.647 90.8082 191.847C91.0774 192.101 91.1821 192.101 91.2718 192.101C91.7653 192.116 91.9597 191.548 92.4233 191.518C92.6925 191.518 92.9467 191.637 93.2159 191.563C93.2458 191.563 93.2758 191.548 93.2907 191.533C93.3356 191.533 93.3804 191.503 93.4253 191.488C93.6048 191.428 93.9338 191.368 94.2328 191.368C94.5918 191.368 94.9208 191.533 95.2946 191.533C95.4292 191.533 95.818 191.533 95.9377 191.203ZM87.5182 188.614C87.578 188.285 86.9799 187.941 86.9799 187.941C85.3049 187.013 83.5104 186.309 81.8205 185.426C80.2353 184.588 79.2882 184.149 78.9791 184.109C78.2763 184.035 77.708 183.556 77.0201 183.496C74.5974 183.436 74.3133 183.765 73.3113 184.858C73.3412 184.888 73.3861 184.918 73.416 184.947C73.416 184.947 73.416 184.947 73.431 184.947C73.6005 184.977 74.1887 184.893 75.1956 184.693C75.6143 184.618 75.9733 184.364 76.4069 184.319C76.5415 184.319 76.7958 184.394 76.9154 184.558C77.0649 184.778 77.7878 185.102 79.0838 185.531C79.0838 185.531 81.3569 186.369 81.3719 186.384C81.7009 186.594 81.8056 186.998 82.0897 187.237C82.4337 187.537 82.9571 187.477 83.2861 187.806C83.3907 187.896 83.3758 188.031 83.2412 188.195C82.8075 188.719 83.3908 188.779 83.7347 188.824C85.7984 189.033 87.4285 189.198 87.5332 188.629L87.5182 188.614ZM120.239 212.126C120.239 212.126 120.239 212.111 120.269 212.096C119.79 212.276 119.716 212.096 119.671 211.887C119.641 211.917 119.611 211.947 119.581 211.977C119.207 212.351 119.581 212.441 119.73 212.426C120.03 212.411 120.104 212.306 120.239 212.126ZM114.063 206.888C114.063 206.858 114.033 206.828 114.018 206.798C113.943 206.828 113.853 206.843 113.793 206.873C113.793 206.903 113.823 206.933 113.823 206.948C113.868 206.948 113.883 206.963 113.928 206.963C113.958 206.963 114.018 206.963 114.063 206.888ZM103.475 204.508H103.55L103.52 204.434L103.46 204.508H103.475ZM91.7055 201.216C91.7055 201.216 91.6307 200.752 91.556 200.662C91.5261 200.632 91.3317 200.647 91.2718 200.692C91.1522 200.782 90.898 201.006 90.9129 201.186C90.9428 201.425 91.2718 201.68 91.3915 201.695C91.5261 201.695 91.6307 201.59 91.6756 201.53C91.6756 201.53 91.6856 201.425 91.7055 201.216ZM73.3861 197.384C73.3861 197.384 73.2216 197.01 72.7431 196.965C72.7132 196.98 72.6832 197.025 72.6533 197.04C72.6533 197.265 72.8926 197.489 73.1767 197.534C73.2465 197.534 73.3163 197.509 73.3861 197.459C73.3861 197.459 73.3861 197.399 73.3861 197.384ZM45.3312 129.288L45.3761 129.243H45.3312V129.288ZM116.156 138.058C116.156 138.058 116.156 138.028 116.156 138.013C116.141 137.983 116.111 137.938 116.082 137.909C115.917 137.953 115.588 138.043 115.364 138.253C115.244 138.372 115.199 138.462 115.199 138.462C115.199 138.462 115.244 138.517 115.334 138.627C115.528 138.507 115.753 138.462 115.947 138.328C116.037 138.268 116.111 138.178 116.141 138.058H116.156ZM83.645 134.825C83.645 134.825 83.645 134.796 83.8693 134.511C83.8244 134.466 83.7646 134.421 83.7197 134.376C83.7048 134.496 83.6749 134.646 83.6599 134.766L83.6151 134.811L83.5253 134.87H83.645C83.645 134.87 83.645 134.825 83.645 134.811V134.825ZM173.806 125.172C173.776 125.052 173.627 124.648 173.148 124.783H173.118H173.089H173.059H173.029C173.029 124.783 173.014 124.783 172.999 124.783C172.999 124.783 172.984 124.783 172.969 124.783H172.939H172.909C172.475 124.948 172.386 124.978 172.311 124.678C172.371 123.855 172.401 123.391 171.982 123.481C171.384 123.76 171.095 124.07 171.115 124.409C171.154 125.267 171.144 125.706 171.085 125.726C170.845 125.846 170.845 125.965 170.875 126.04C171.025 126.34 171.354 126.459 171.518 126.729C171.653 126.968 171.638 127.268 171.802 127.492C171.877 127.597 171.952 127.627 171.997 127.657C172.236 127.776 172.236 127.971 172.236 128.136C172.804 127.956 173.373 127.746 173.926 127.552C173.373 127.761 172.819 127.956 172.236 128.151C172.236 128.27 172.236 128.405 172.236 128.525C172.475 128.674 172.55 128.989 172.834 129.093C172.909 129.048 172.954 129.019 173.044 128.629C173.268 129.004 173.193 129.497 173.492 129.842C173.702 130.081 173.986 129.931 174.09 129.872C174.165 129.827 174.39 129.707 174.479 129.782C174.479 129.782 175.407 130.889 175.421 130.949C175.661 131.593 175.601 131.967 175.227 132.087C174.928 132.176 174.828 132.356 174.928 132.625C175.092 133.089 175.706 133.389 175.451 134.002C175.222 134.561 175.147 134.9 175.227 135.02C175.267 135.08 175.372 135.11 175.541 135.11C176.408 135.095 176.767 135.364 176.782 135.364C176.603 135.574 176.274 135.604 176.139 135.888C176.139 135.888 175.661 137.729 175.706 137.879L175.81 137.938C175.92 137.899 175.995 137.864 176.035 137.834C176.214 137.714 176.274 137.489 176.453 137.355C176.603 137.25 176.812 137.295 176.977 137.175C177.231 136.996 177.141 136.621 177.351 136.412C177.545 136.217 177.829 136.232 178.053 136.113L179.758 134.96C180.087 134.616 180.327 133.808 179.938 133.658C179.698 133.568 179.639 133.538 179.594 133.344C179.504 132.91 179.698 132.491 179.624 132.057C179.399 130.919 178.682 131.144 178.248 131.278C178.248 131.278 178.248 131.293 178.248 131.308V131.368L178.233 131.278C177.934 130.605 177.007 129.527 177.007 129.512C176.992 129.483 176.962 129.468 176.932 129.438C176.693 129.213 176.349 129.153 176.109 128.929C175.706 128.555 175.496 128.031 175.077 127.672C174.793 127.432 174.584 127.387 174.375 127.327C174.225 127.297 174.135 127.173 174.105 126.953C174.001 126.31 174.046 125.651 173.866 125.023L173.806 125.172ZM171.877 123.017V122.912C171.817 122.837 171.802 122.823 171.802 122.837C171.773 122.852 171.802 122.942 171.802 122.942C171.802 122.972 171.862 123.002 171.877 123.032V123.017ZM181.762 114.172C181.687 114.037 181.673 114.037 181.448 113.888C181.448 113.888 181.448 113.938 181.448 114.037C181.478 114.127 181.523 114.202 181.583 114.292C181.628 114.352 181.732 114.501 181.837 114.456C181.837 114.441 181.837 114.411 181.852 114.397C181.852 114.367 181.837 114.277 181.762 114.157V114.172ZM159.39 113.065L159.345 112.945L159.241 112.855C158.882 112.725 158.697 112.65 158.687 112.631C158.418 112.391 158.283 112.047 158.014 111.807C157.775 111.583 157.76 111.583 157.745 111.568C157.581 111.523 157.476 111.703 157.326 111.658C157.207 111.613 157.117 111.508 156.982 111.493C156.893 111.493 156.773 111.463 156.698 111.733C156.653 111.882 156.549 112.286 156.085 112.331C155.831 112.346 155.562 112.406 155.308 112.421C154.993 112.421 154.949 112.63 154.964 112.975C154.844 113.079 154.784 113.035 154.575 112.855C154.201 112.541 154.201 112.93 154.201 112.93C154.201 113.184 154.485 113.364 154.485 113.618C154.485 113.783 154.425 113.858 154.201 114.067C154.201 114.067 154.231 114.082 154.246 114.097L154.186 114.157V114.067H154.201C153.977 113.873 153.872 113.723 153.737 113.424C153.468 112.78 152.556 112.436 152.391 112.496C152.287 112.556 152.257 112.571 152.137 112.78C152.137 112.795 152.167 112.81 152.182 112.825H152.122V112.78C151.863 112.92 151.698 113.404 151.629 114.232C151.629 114.352 151.853 114.546 151.973 114.561C151.973 114.561 152.017 114.561 152.032 114.561C152.242 114.501 152.406 114.337 152.616 114.292C152.75 114.277 153.094 114.352 153.154 114.367C153.348 114.426 153.229 114.92 153.229 114.92C153.064 115.309 152.197 115.085 152.361 115.579C152.361 115.624 152.406 115.669 152.436 115.699C152.526 115.803 152.541 115.803 152.885 115.818C153.468 115.818 153.513 115.863 153.902 116.237C154.021 116.357 154.335 116.671 153.991 116.836C153.618 117.016 153.991 117.45 154.096 117.51C154.126 117.524 154.201 117.569 154.335 117.569C154.694 117.599 155.008 117.39 155.367 117.405C155.681 117.42 155.966 117.614 156.28 117.659C156.624 117.704 156.908 117.749 157.207 117.764C157.282 117.764 157.371 117.764 157.446 117.734C157.685 117.644 158.852 116.342 158.867 116.327C159.046 116.118 159.046 115.818 159.196 115.594C159.33 115.399 159.585 115.309 159.689 115.07C159.734 114.95 159.824 114.277 159.824 114.277C159.824 114.187 159.809 114.112 159.794 114.082C159.734 113.918 159.57 113.828 159.51 113.663C159.435 113.469 159.45 113.244 159.405 113.035L159.39 113.065ZM126.146 103.935C126.146 103.935 126.086 103.815 126.041 103.741C125.907 103.83 125.892 103.83 125.892 103.89C125.892 103.995 125.996 104.04 126.026 104.04C126.116 104.055 126.161 103.995 126.146 103.92V103.935ZM124.71 101.511C124.71 101.511 124.71 101.511 124.71 101.496H124.68C124.68 101.496 124.68 101.526 124.68 101.54L124.636 101.6C124.636 101.6 124.651 101.705 124.725 101.75V101.78H124.74C124.71 102.917 124.665 104.1 125.667 103.396C125.907 103.217 125.967 102.902 126.221 102.738C126.296 102.753 126.4 102.783 126.475 102.798C126.595 102.873 126.595 102.872 126.595 102.887C126.595 102.887 126.61 102.887 126.625 102.887L126.58 102.858C126.58 102.858 126.744 102.947 126.804 102.992C126.759 103.022 126.714 103.067 126.669 103.112H126.64V103.142C126.5 103.521 126.46 103.805 126.52 103.995C127.088 104.219 127.193 104.264 127.058 104.728C126.475 104.878 125.922 104.549 125.353 104.639C125.234 104.848 125.249 105.107 125.398 105.417C124.097 108.305 126.744 107.946 126.774 107.946C127.003 107.866 126.904 107.298 126.475 106.24C126.475 106.24 126.445 106.24 126.43 106.225L126.4 106.15L126.46 106.195V106.24C127.118 106.509 127.866 106.42 128.419 106.898C128.17 107.527 128.115 108.011 128.255 108.35C128.12 108.425 127.941 108.56 127.821 108.649C127.776 109.428 126.834 109.188 126.49 109.652C126.55 109.817 126.654 110.026 126.744 110.191C126.58 110.221 126.37 110.266 126.206 110.296C126.041 110.805 125.697 111.254 125.638 111.807C125.682 112.167 125.742 112.496 125.802 112.81C125.742 112.496 125.682 112.182 125.638 111.867V111.897C125.608 112.032 125.533 112.167 125.518 112.301C125.518 112.391 125.518 112.645 125.518 112.69C125.563 112.945 125.712 113.05 125.847 113.124C125.922 113.169 126.011 113.229 126.071 113.259C126.026 113.319 125.952 113.409 125.907 113.469L125.877 113.514C125.593 113.873 125.473 114.052 125.533 114.367C125.593 114.681 125.907 114.816 125.996 115.1C126.056 115.28 126.041 115.489 126.131 115.669C126.131 115.684 126.146 115.714 126.161 115.729C126.161 115.758 126.206 115.803 126.221 115.833C126.296 115.968 126.355 116.103 126.37 116.148C126.625 116.776 126.475 117.539 126.998 118.093C127.238 118.043 127.552 117.944 127.941 117.794C127.382 118.981 127.372 119.909 127.911 120.578C128.419 121.136 128.848 121.945 129.197 123.002C129.481 123.885 130.288 124.394 130.782 125.112H130.902C132.038 124.843 132.676 124.883 132.816 125.232C132.816 125.232 133.668 126.429 134.266 126.385C134.476 126.385 134.76 126.459 134.969 126.489H135.104C136.106 126.07 136.435 122.269 136.495 121.505C136.495 121.505 136.465 121.506 136.465 121.52L136.42 121.461L136.151 121.341C136.255 121.371 136.39 121.416 136.48 121.476C137.781 120.443 137.003 118.677 137.855 117.48C137.811 117.285 137.676 117.061 137.556 116.911C137.586 116.821 137.616 116.716 137.631 116.626L141.34 114.681C141.474 114.591 141.848 114.367 142.671 113.558C143.613 112.616 143.553 111.239 144.166 110.146C147.95 109.233 148.533 107.722 149.43 105.447C149.371 105.357 149.281 105.252 149.221 105.162C148.369 105.117 147.516 105.551 146.679 105.147V104.863C146.838 104.743 146.748 104.18 146.41 103.172C146.484 103.157 146.589 103.127 146.664 103.112C147.77 104.229 148.698 104.683 149.445 104.474C149.371 101.421 145.707 101.615 144.779 99.3405C145.737 99.535 146.11 100.672 147.127 100.777C147.068 100.049 146.424 99.2806 145.198 98.4724L145.153 98.4425C144.794 98.3976 144.645 98.3826 144.421 98.1881L144.465 98.1282C144.545 98.1481 144.794 98.2529 145.213 98.4425L145.258 98.4874C145.597 98.5772 145.856 98.6121 146.036 98.5922C146.135 98.4126 146.325 98.1881 146.604 97.9187C146.544 97.6493 146.031 97.2402 145.064 96.6914C145.502 96.6415 145.766 96.5817 145.856 96.5118L145.991 96.3322C146.021 96.2424 146.08 96.1227 146.11 96.0329C146.021 95.8384 145.752 95.3145 144.525 94.641C145.752 93.1444 142.581 92.7104 141.803 91.5879C141.908 91.5879 142.043 91.5879 142.147 91.6328C142.147 91.6328 142.132 91.6029 142.118 91.5879C142.013 91.5281 141.893 91.4532 141.774 91.4233C141.744 91.2437 141.714 91.0043 141.699 90.8396C141.803 90.8097 141.953 90.7498 142.043 90.7947C142.043 90.7947 142.641 91.3136 143.837 92.3512C143.837 92.3512 143.882 92.3512 143.897 92.3512C143.309 91.4233 142.347 90.4754 141.011 89.5076C141.041 89.4328 141.071 89.328 141.086 89.2382C140.727 88.8192 140.144 88.6995 139.755 88.3103V88.2505C139.829 88.2056 139.919 88.1457 139.979 88.1158C136.525 82.7129 135.807 82.6531 135.418 82.6231C135.537 82.5333 135.732 82.4435 135.881 82.3986C135.881 82.259 135.677 81.9896 135.268 81.5905C135.268 81.5905 135.358 81.4408 135.403 81.366C135.124 80.9569 134.979 80.7424 134.969 80.7224C134.969 80.7224 133.728 79.8394 132.681 79.7945H132.562C132.517 79.8843 132.442 79.9741 132.397 80.034C132.487 80.1687 132.621 80.3333 132.726 80.4381C132.666 80.468 132.562 80.4979 132.502 80.5279C132.606 81.0068 132.576 81.5007 132.651 81.9796C132.696 82.0993 132.756 82.264 132.801 82.3837L132.771 82.3388C132.711 82.2191 132.651 82.0694 132.606 81.9347C131.859 81.1864 131.874 79.7347 130.468 79.585C130.498 79.7347 130.642 79.9542 130.902 80.2435V80.4231C130.677 80.4231 130.468 80.5578 130.244 80.483L130.184 80.4081C130.184 80.4081 130.229 80.2435 130.244 80.1537C129.735 79.3755 128.539 79.4802 128.389 79.8993C128.359 79.9741 128.359 80.0789 128.344 80.1537L128.225 80.3483L128.015 80.1986C128.035 80.0589 128.095 79.7945 128.195 79.4054C128.733 79.1809 129.526 79.57 129.84 78.8067C129.481 78.0734 128.015 77.4598 127.552 77.7142C127.492 77.6992 127.402 77.6693 127.357 77.6543C127.193 77.37 127.103 77.2203 126.46 76.9509C126.39 77.0208 126.051 77.0607 125.443 77.0707C125.279 77.2652 125.009 77.3401 124.86 77.5496C124.83 77.5496 124.785 77.5496 124.755 77.5496L124.695 77.4897C125.024 77.0856 125.204 76.8761 125.832 76.9659C125.862 76.8911 125.907 76.8013 125.952 76.7264C124.74 75.9632 122.931 75.8883 122.916 75.8883C122.871 75.9632 122.826 76.053 122.781 76.1278C122.886 76.2475 123.02 76.4271 123.11 76.5468L123.14 76.5618C123.305 76.6815 123.305 76.6815 123.305 76.6666L123.364 76.7115L123.305 76.6815H123.29C123.17 76.6366 123.006 76.5768 122.901 76.6366C122.976 76.6815 123.065 76.7564 123.125 76.8013C122.976 76.8312 122.751 76.8013 122.602 76.7414C122.542 76.8013 122.482 76.8611 122.422 76.921C122.557 77.37 123.006 77.5795 123.185 77.9986C123.11 77.9986 123.006 78.0285 122.931 78.0285C122.931 78.1033 122.901 78.2081 122.886 78.2829C122.886 78.2829 124.591 79.8843 125.039 80.2585V80.3632C123.798 80.034 123.364 78.5224 122.048 78.2979C122.333 78.8965 122.871 79.3156 123.185 79.9143C123.035 79.9442 122.826 79.9292 122.677 79.9143C122.437 79.3904 121.555 78.5823 121.555 78.5823C121.69 79.0163 122.063 79.3306 122.153 79.7796L122.183 79.8095C122.183 79.9292 122.183 80.0789 122.183 80.1836L122.153 80.1238C122.153 80.019 122.153 79.8843 122.153 79.7646C121.719 79.3306 121.54 78.717 121.076 78.3129C120.493 78.4476 119.88 78.9115 119.865 78.9265C119.94 79.0612 120.03 79.2408 120.104 79.3605H120.045C120.045 79.3605 119.895 79.2108 119.835 79.1659C119.76 79.1659 119.656 79.1809 119.566 79.1959C119.596 79.7347 119.91 80.2136 119.925 80.7524C119.327 80.6775 119.237 81.4857 118.684 81.4857C118.235 82.8776 118.684 82.9674 119.342 83.1021V83.0721V83.132C119.581 83.5211 119.387 84.4191 119.252 84.8232C119.805 87.0232 120.478 89.2532 121.136 91.6328C120.478 89.2682 119.79 87.0382 119.072 84.9429C118.763 84.8531 118.539 84.8132 118.4 84.8232C118.15 84.8431 118.001 84.8681 117.951 84.898C117.727 85.0028 117.577 85.2273 117.338 85.3021C116.68 85.4917 116.301 85.6763 116.201 85.8559C116.037 86.1402 115.797 86.5593 116.799 87.6518C116.799 87.6518 116.829 87.6518 116.844 87.6368L116.814 87.6817V87.6518C117.098 88.2056 117.143 88.2954 117.278 88.3702C117.502 88.5049 117.727 88.2954 117.966 88.3702C118.145 88.4301 118.355 88.2355 118.534 88.3852C118.773 88.6096 118.579 88.7892 118.355 88.7144C118.085 88.6246 117.996 88.5947 117.786 88.6096C117.592 88.6246 117.472 88.8042 117.293 88.8341C117.143 88.8641 116.994 88.7892 116.844 88.8341C116.814 88.8341 116.769 88.8491 116.71 88.879C116.351 89.0586 116.411 89.5226 116.5 89.6573C116.59 89.8169 116.854 90.0664 117.293 90.4056C117.293 90.4056 117.293 90.4804 117.128 90.6151C116.844 90.8396 116.934 91.0192 117.039 91.1988C117.278 91.6478 118.011 92.3662 118.205 92.1118C118.28 91.992 118.205 91.7526 118.4 91.7376C118.654 91.7226 118.758 91.9471 118.938 92.0519C119.028 92.0968 119.925 92.0519 120.059 91.9022C120.089 91.8723 120.134 91.8573 120.179 91.8424C120.732 92.0669 120.957 92.1716 121.316 92.3812C123.948 94.0873 123.529 95.6438 123.424 95.9431C123.529 96.0628 123.723 96.1676 123.873 96.2275C124.641 98.6121 125.029 99.8044 125.039 99.8044C125.039 99.8792 125.039 99.984 125.069 100.074C124.92 100.134 124.725 100.253 124.606 100.358C124.665 100.418 124.725 100.508 124.77 100.568C124.7 101.047 124.67 101.321 124.68 101.391C124.68 101.391 124.83 101.481 124.905 101.526C124.86 101.6 124.815 101.675 124.77 101.75C124.77 101.75 124.755 101.75 124.74 101.75C124.74 101.69 124.71 101.615 124.695 101.555C124.695 101.555 124.695 101.555 124.725 101.54L124.71 101.511ZM181.747 118.991L181.717 118.931V118.976C181.717 118.976 181.777 119.126 181.807 119.201L181.777 119.111L181.747 118.991ZM181.702 118.782C181.702 118.782 181.658 118.707 181.643 118.677C181.643 118.752 181.658 118.812 181.717 118.931C181.717 118.886 181.717 118.827 181.717 118.782H181.702ZM180.88 118.303C180.685 117.929 180.491 117.839 180.491 117.839C180.431 117.839 180.446 117.929 180.446 117.958C180.446 117.958 180.446 117.988 180.446 118.003C180.461 118.138 180.536 118.273 180.551 118.407C180.551 118.452 180.551 118.467 180.551 118.527C180.551 118.527 180.521 118.617 180.551 118.767C180.581 118.946 180.7 119.156 180.775 119.29L180.82 119.38V119.305C180.82 119.305 180.79 119.29 180.79 119.276C181.119 119.051 181.239 118.961 180.895 118.303H180.88ZM181.747 116.402C181.747 116.402 181.702 116.327 181.687 116.282C181.643 116.282 181.598 116.282 181.553 116.282C181.523 116.282 181.523 116.312 181.523 116.312C181.523 116.372 181.598 116.507 181.687 116.447C181.702 116.432 181.717 116.417 181.732 116.387L181.747 116.402ZM171.728 97.8289C171.728 97.8289 171.668 97.769 171.518 97.6493C171.518 97.6493 171.493 97.6243 171.444 97.5744L171.384 97.4846L171.414 97.5595L171.458 97.5894C171.568 97.789 171.688 97.9386 171.817 98.0384C171.817 98.0384 171.817 98.0234 171.847 98.0085C171.802 97.9037 171.773 97.8738 171.743 97.8289H171.728ZM168.782 97.784C168.782 97.784 168.617 97.6493 168.542 97.6493C168.542 97.6493 168.542 97.7391 168.587 97.7989C168.647 97.8588 168.752 97.9187 168.752 97.9187C168.752 97.9187 168.782 97.9187 168.812 97.9187C168.812 97.8588 168.826 97.8289 168.812 97.784H168.782ZM168.243 96.9608H168.288L168.228 96.9309L168.258 96.9608H168.243ZM168.527 96.8261C168.527 96.901 168.542 96.9309 168.542 96.9309C168.542 96.9608 168.602 96.9758 168.617 97.0057C168.617 97.0057 168.617 96.9459 168.527 96.8411V96.8261ZM168.527 96.7962L168.468 96.7214L168.497 96.7663C168.497 96.7663 168.527 96.7962 168.542 96.8112V96.7962H168.527ZM168.602 95.988C168.602 95.988 168.587 95.9731 168.572 95.9581C168.677 96.0928 168.752 96.1975 168.871 96.3173C168.921 96.3672 168.976 96.4121 169.036 96.452L168.976 96.3622C168.841 96.2275 168.722 96.1078 168.587 95.9731L168.602 95.988ZM168.527 95.8833L168.497 95.8384L168.587 95.9581L168.527 95.8833ZM168.497 95.8084C168.497 95.8084 168.483 95.7935 168.468 95.7935C168.468 95.7935 168.497 95.8384 168.512 95.8533V95.8234L168.497 95.8084ZM153.648 88.8491L153.618 88.8341C153.618 88.8341 153.648 88.8341 153.662 88.8192V88.8641L153.648 88.8491ZM153.737 88.7144C153.737 88.7144 153.707 88.6845 153.677 88.6695C153.677 88.6695 153.648 88.6695 153.633 88.6845C153.633 88.7294 153.633 88.7593 153.633 88.8042C153.633 88.8042 153.662 88.7743 153.633 88.7593L153.737 88.7144ZM154.051 87.1579C153.842 86.9883 153.633 86.8885 153.423 86.8586C153.423 86.8586 153.363 86.8586 153.319 86.8586L152.481 86.8287C152.481 86.8287 152.421 86.8736 152.421 86.8885C152.421 86.9783 152.496 87.0382 152.526 87.128C152.526 87.128 152.526 87.128 152.526 87.143C152.496 87.143 152.451 87.113 152.197 86.9634C152.047 86.8736 151.913 86.7838 151.838 86.8137C151.838 86.9035 151.943 87.0083 152.122 87.1579C152.511 87.4872 152.526 87.5021 152.556 87.547C152.556 87.547 152.556 87.547 152.541 87.562C152.466 87.547 152.406 87.5021 152.332 87.4872C152.212 87.4572 152.092 87.5171 151.973 87.4872C151.733 87.4123 151.524 87.2777 151.285 87.2178C151.27 87.2178 151.24 87.2178 151.225 87.2178C151.255 87.5321 151.629 87.5321 151.733 87.7715C151.674 87.7865 151.584 87.7117 151.539 87.7865C151.763 88.0858 152.975 89.1933 153.498 89.0137C153.498 89.0137 153.558 88.9539 153.633 88.8641C153.812 89.1634 153.902 89.2981 154.111 89.3729C154.111 89.3729 154.844 89.5825 154.859 89.5974C155.008 89.6124 155.008 89.4178 155.143 89.4178C155.382 89.4178 155.547 89.6274 155.771 89.6274C155.786 89.6274 155.816 89.6274 155.831 89.5974C155.876 89.3879 155.636 89.2831 155.651 89.0886V89.0736C155.696 89.0287 155.786 88.9688 155.622 88.7743C155.412 88.5199 154.664 87.6518 154.036 87.1579H154.051ZM153.034 93.4288L153.019 93.3989L152.99 93.354L153.049 93.4288H153.034ZM151.18 91.9322C151.18 91.9322 151.225 91.992 151.18 92.007C151.12 92.022 151.06 92.0369 150.911 91.9471C150.971 91.9471 151.016 91.9022 151.075 91.9022C151.12 91.9022 151.15 91.9172 151.165 91.9471L151.18 91.9322ZM150.896 91.9471H150.926L150.881 91.9172L150.896 91.9471ZM150.851 91.558L150.761 91.5281L150.791 91.4832L150.851 91.558ZM149.535 91.0641H149.505V91.0492H149.535V91.0641ZM149.565 90.1212C149.565 90.2559 149.625 90.4206 149.685 90.5852C149.744 90.7648 149.759 90.8097 149.759 90.8696C149.759 91.0342 149.58 91.0342 149.52 91.0342C149.321 90.5852 149.106 90.2609 148.877 90.0614C148.802 89.9865 148.713 89.8219 148.847 89.8818C148.967 89.9267 149.071 90.0464 149.206 90.0614C149.296 90.0763 149.341 90.0315 149.385 89.9866L149.475 90.0165C149.475 90.0165 149.535 90.0764 149.565 90.0913V90.1212ZM147.516 88.5797L147.426 88.5199L147.516 88.5648H147.561H147.501L147.516 88.5797ZM146.679 87.8314C146.739 87.9013 146.763 87.9412 146.753 87.9511C146.753 87.9511 146.724 87.9511 146.185 87.4722C146.469 87.6219 146.679 87.8314 146.679 87.8314ZM153.229 90.1212C153.229 90.1212 153.169 90.0763 153.064 90.0165C152.87 89.9117 152.631 90.0165 152.451 89.8818C152.212 89.7321 152.047 89.4777 151.763 89.3729C151.674 89.343 151.659 89.358 151.539 89.5076C151.539 89.5076 151.429 89.4128 151.21 89.2233C150.926 88.9239 149.042 88.0559 149.027 88.0409C148.727 87.9062 148.398 87.996 148.099 87.8464C147.696 87.6518 147.352 87.3225 146.933 87.1579L145.393 86.5892C145.393 86.6491 145.637 86.9284 146.125 87.4273C146.14 87.4273 146.155 87.4573 146.185 87.4722L146.14 87.4423C146.006 87.5021 145.737 87.3675 145.707 87.577C145.707 87.577 145.737 87.6069 145.752 87.6069C145.931 87.7715 145.931 87.7865 145.961 87.8464C145.961 87.8464 145.931 87.8464 145.916 87.8613C145.886 87.8613 145.841 87.8314 145.811 87.8164C145.742 87.7765 145.702 87.7366 145.692 87.6967C145.692 87.6967 145.707 87.6668 145.722 87.6518C145.722 87.6069 145.722 87.5919 145.722 87.5919L145.662 87.5171C145.333 87.2777 145.273 87.2777 145.168 87.2777C144.854 87.5919 144.585 87.8613 145.737 88.7892C145.737 88.7892 146.978 89.6872 147.77 90.1212C148.354 90.4355 148.967 90.7199 149.55 91.0492C149.834 91.2138 149.984 91.543 150.253 91.7226C150.447 91.8573 150.716 91.7975 150.911 91.9322C150.791 92.1866 151.09 92.471 151.359 92.6505C151.928 93.0247 152.541 93.339 152.87 93.3839C152.945 93.3839 153.049 93.3989 153.094 93.4587C153.304 93.7431 153.872 94.0424 153.902 94.0574C154.156 94.1921 154.186 94.1921 154.231 94.1771C154.694 94.0424 150.642 89.792 150.597 89.7621C150.597 89.7621 150.073 89.2831 150.088 88.9838C150.088 88.9838 150.118 88.9688 150.133 88.9539C150.133 88.9539 152.003 90.0913 152.885 91.0941C153.094 91.3335 153.214 91.4682 153.423 91.4832C153.483 91.3634 153.468 91.2288 153.498 91.109C153.767 91.1539 153.812 91.573 154.171 91.4832C154.171 91.2587 153.797 90.6301 153.244 90.0913L153.229 90.1212ZM149.371 81.8898C149.371 81.8898 149.415 81.9197 149.43 81.9347C149.445 81.9497 149.475 81.9796 149.49 81.9946C149.415 81.9497 149.341 81.9197 149.266 81.8748C149.251 81.8599 149.221 81.8299 149.206 81.815C149.221 81.815 149.281 81.8299 149.371 81.8898ZM144.914 79.4503H144.899C144.899 79.4503 144.899 79.4503 144.884 79.4503H144.869H144.929H144.914ZM144.824 79.3904C144.824 79.3904 144.854 79.4054 144.869 79.4204L144.824 79.3904ZM142.327 79.1659L142.417 79.2258C142.417 79.2557 142.342 79.2258 142.192 79.1659C142.192 79.1659 142.192 79.151 142.192 79.136C142.192 79.136 142.267 79.136 142.297 79.1659H142.327ZM142.192 79.1659L142.088 79.121H142.162L142.192 79.151V79.1659ZM128.03 120.593L128 120.563V120.533C128 120.533 128.03 120.578 128.03 120.608V120.593ZM128.075 117.764L128.015 117.794V117.749L128.12 117.719L128.06 117.764H128.075ZM128.24 117.629C128.24 117.719 128.21 117.719 128.135 117.719C128.165 117.689 128.195 117.644 128.225 117.614C128.225 117.614 128.225 117.614 128.225 117.629H128.24ZM139.829 114.86L139.725 114.801L139.8 114.741L139.904 114.786L139.829 114.846V114.86ZM126.206 113.274L126.161 113.244L126.251 113.199L126.191 113.274H126.206ZM126.415 113.139C126.415 113.139 126.311 113.184 126.266 113.199C126.266 113.199 126.311 113.139 126.325 113.124C126.355 113.124 126.385 113.124 126.415 113.139ZM126.909 110.296V110.266H126.939L126.983 110.311H126.924L126.909 110.296ZM145.423 104.249L145.363 104.175H145.423V104.249ZM144.66 102.214L144.6 102.184H144.66L144.72 102.259L144.66 102.214ZM125.039 101.555H124.994V101.526L125.024 101.481V101.555H125.039ZM124.022 78.1183C124.022 78.1183 123.933 78.0584 123.873 78.0135C123.903 78.0285 123.948 78.0435 123.978 78.0734L124.022 78.1333V78.1183ZM123.873 78.0135C123.873 78.0135 123.798 77.9686 123.753 77.9387L123.843 77.9836C123.843 77.9836 123.873 77.9986 123.873 78.0135ZM123.678 77.8938C123.678 77.8938 123.619 77.8788 123.604 77.8639C123.604 77.8639 123.604 77.8639 123.574 77.8489C123.574 77.8489 123.574 77.8489 123.559 77.8339C123.574 77.8339 123.589 77.8339 123.604 77.8489L123.693 77.8938H123.678ZM126.58 109.518H126.55L126.565 109.503C126.565 109.503 126.565 109.503 126.565 109.518H126.58ZM126.729 103.097C126.565 103.127 126.55 103.112 126.37 103.007C126.415 102.962 126.46 102.917 126.52 102.887C126.55 102.887 126.595 102.872 126.684 102.872C126.684 102.872 126.729 103.022 126.744 103.097H126.729ZM119.267 77.8489C119.536 78.238 119.516 78.707 119.207 79.2557C118.968 79.3156 118.714 79.3156 118.489 79.4353C118.489 79.4353 118.489 79.4902 118.489 79.6V79.6598V79.6149C118.893 79.7646 119.087 79.8544 119.013 80.0938C118.983 80.1687 118.654 80.7673 118.609 80.8122C118.4 81.0517 118.085 81.1864 117.876 81.4258C117.547 81.9946 117.502 82.698 117.024 83.1919C116.799 83.4313 116.59 82.9973 116.336 83.0272C116.351 83.5361 115.588 83.1619 115.394 83.566C115.513 83.7756 115.797 83.8055 115.887 84.03C115.887 84.0449 115.887 84.0749 115.902 84.1497C115.902 84.2495 115.872 84.3293 115.812 84.3892C115.743 84.3892 115.603 84.3393 115.394 84.2395C115.394 84.2395 115.394 84.2245 115.394 84.2096H115.334L115.379 84.2395C115.379 84.2395 115.379 84.2395 115.394 84.2395C115.453 84.5388 115.753 84.7783 115.663 85.1225C115.364 86.2151 115.08 86.1701 114.885 86.1402V86.1103C114.885 86.1103 114.78 86.1103 114.751 86.0953C114.78 86.0953 114.81 86.0953 114.825 86.0953L114.87 86.1253C114.87 86.1253 115.409 86.8137 114.362 86.679C114.257 86.679 114.122 86.5144 114.018 86.6341C113.838 86.8586 113.913 87.1729 113.764 87.3974C113.539 87.7715 113.001 87.8015 112.851 88.2505C112.702 88.6994 113.36 88.8641 113.21 89.3131C112.851 90.1512 111.565 90.226 111.565 90.226C111.206 90.226 111.52 89.6723 111.221 89.5376C110.922 89.4029 110.563 89.5076 110.294 89.2981C110.264 89.2831 110.234 89.2532 110.219 89.2382C110.16 89.1784 109.995 89.0287 109.771 89.1335C109.621 89.3879 109.576 89.4627 109.412 89.4478C109.053 89.4029 106.84 87.9811 107.692 87.3076C107.752 87.3076 107.842 87.3774 107.961 87.5171C108.245 87.3525 108.47 87.113 108.784 86.9783C109.098 86.8436 109.457 87.0681 109.756 86.8436C109.786 86.3797 109.442 85.8858 109.831 85.4518C109.905 85.362 110.204 85.2273 110.399 85.4518C110.469 85.5316 110.528 85.8209 110.578 86.3198C110.578 86.3198 110.668 86.3198 110.698 86.3198C110.967 85.9457 110.847 85.3021 110.832 85.2871C110.773 85.0327 110.444 85.1973 110.354 84.9878C110.04 84.2994 110.862 84.0449 110.997 83.5062C111.939 83.3415 111.969 83.2667 112.193 82.7429C112.328 82.4136 112.178 80.6775 112.178 80.6775C112.268 80.5129 112.358 80.3333 112.463 80.1687C112.627 79.9442 113.21 80.3782 113.464 81.381C113.479 81.3959 113.509 81.4258 113.539 81.4408C113.569 81.1415 113.18 80.7524 113.539 80.5279C113.793 80.3782 113.988 80.6476 114.227 80.6177C114.571 80.5728 114.81 80.2734 115.154 80.2285C115.334 80.1986 115.364 80.2285 115.453 80.2734C115.304 80.1238 115.005 80.1238 114.96 79.8394C114.96 79.7945 114.96 79.7197 114.96 79.6748C114.855 79.7646 114.855 79.9143 114.795 80.034C114.616 80.3483 113.793 80.6626 113.584 79.8544V79.8245C113.584 79.8245 113.569 79.8694 113.554 79.8843C113.375 80.1238 112.821 80.034 112.627 79.3755V79.3306V79.3605C112.627 79.3605 112.627 79.3605 112.627 79.3755C112.567 79.3755 112.492 79.3755 112.448 79.3455C112.373 79.3006 111.864 78.4326 112.313 78.3578C112.268 77.9686 112.268 77.5645 112.208 77.1754V77.1455H112.178H112.148C111.894 76.8911 112.104 76.4421 112.567 76.2924C112.612 76.3223 112.657 76.3673 112.687 76.3972C112.702 76.3972 112.732 76.3822 112.762 76.3673C112.801 76.2675 112.836 76.1926 112.866 76.1428C112.866 76.1428 112.866 76.1428 113.076 76.4271C113.106 76.4271 113.135 76.4271 113.15 76.4271C113.25 76.2974 113.479 76.3323 113.838 76.5319C113.838 76.5319 113.838 76.5319 114.003 75.9482C114.212 75.9033 114.362 76.0829 114.541 76.1278C114.556 76.1128 114.586 76.0829 114.616 76.0679C114.646 75.7087 114.152 75.4244 114.451 75.0352C114.631 75.0801 114.676 75.3046 114.87 75.3346C115.005 75.4393 115.02 75.6489 115.169 75.7387C115.124 75.5142 114.99 75.3196 114.945 75.0951C114.975 75.0652 115.035 75.0203 115.095 75.0203C115.768 76.3223 116.426 77.7591 117.069 79.3156C116.426 77.7591 115.767 76.3223 115.109 75.0203C115.558 75.155 115.558 75.1699 115.603 75.2448C115.708 75.4543 115.753 75.4543 115.797 75.4693C115.812 75.4393 115.812 75.3944 115.842 75.3645C115.917 75.2747 116.396 75.4693 116.411 75.4842C116.575 75.5591 116.65 75.7686 116.829 75.8285C116.829 75.8285 117.113 75.9183 117.383 76.1128C117.472 76.1727 117.537 76.3273 117.577 76.5768H117.562C117.562 76.5768 117.547 76.6217 117.532 76.6366C117.532 76.6366 117.532 76.6516 117.532 76.6666C117.532 76.6666 117.562 76.6666 117.577 76.6666C117.577 76.6516 117.577 76.6217 117.577 76.5917H117.592C117.682 76.2326 118.115 76.5019 118.205 76.5618C118.22 76.5618 118.25 76.6067 118.265 76.6217C118.444 76.8013 118.534 77.0407 118.699 77.2353C118.818 77.385 119.028 77.4299 119.162 77.5795C119.162 77.5795 119.222 77.6394 119.282 77.7441L119.267 77.8489ZM121.42 226.778V226.733L121.331 226.763H121.42V226.778ZM98.3753 225.177L98.48 225.207L98.4052 225.162H98.3603L98.3902 225.177H98.3753ZM98.3155 225.147C98.3155 225.147 98.3454 225.147 98.3603 225.147C98.3005 225.072 98.2257 224.982 98.0164 224.848C97.5677 224.578 97.5079 224.578 97.4032 224.578C97.3584 224.713 97.3434 224.728 97.6724 224.937C97.8668 225.057 98.0911 225.132 98.3304 225.147H98.3155ZM121.929 215.793C121.929 215.793 121.929 215.793 121.929 215.778C121.824 215.613 121.779 215.553 121.764 215.539C121.734 215.509 121.69 215.509 121.66 215.494C121.63 215.494 121.525 215.539 121.555 215.598C121.555 215.598 121.555 215.643 121.794 215.898C121.824 215.898 121.854 215.898 121.869 215.898C121.869 215.898 121.884 215.863 121.914 215.793H121.929ZM121.989 213.458C121.989 213.458 122.048 213.398 122.063 213.383L121.989 213.324C121.899 213.339 121.809 213.368 121.704 213.413C121.704 213.428 121.69 213.458 121.675 213.488H121.69C121.69 213.488 121.69 213.488 121.704 213.488C121.704 213.488 121.704 213.488 121.719 213.488H121.749C121.749 213.488 121.749 213.488 121.764 213.488H121.809C121.809 213.488 121.869 213.488 121.899 213.488C121.914 213.488 121.929 213.488 121.959 213.488L121.989 213.458ZM173.403 130.919C173.328 130.41 172.715 129.872 172.52 129.752C172.311 129.632 171.473 129.812 171.473 129.812C171.264 129.931 171.1 130.021 171.025 130.186C170.8 130.605 171.189 131.069 170.95 131.473C170.756 131.787 170.262 131.548 170.113 131.922C170.068 132.027 170.068 132.042 170.172 132.326C170.172 132.356 170.202 132.401 170.217 132.431C170.307 132.73 170.292 133.059 170.486 133.314C170.651 133.553 170.95 133.673 171.025 133.987C171.1 134.347 170.935 135.155 170.845 135.334C170.681 135.679 170.845 136.083 171.264 136.352C171.264 136.352 171.758 136.651 172.251 136.322C172.296 136.292 172.386 136.232 172.52 136.098C172.535 136.083 172.565 136.053 172.58 136.038C172.819 135.768 172.984 135.439 173.238 135.185C173.432 134.99 173.732 134.93 173.851 134.661C174.001 134.332 174.135 133.598 173.432 132.236C173.208 131.787 173.492 131.338 173.432 130.889L173.403 130.919ZM46.2435 121.984V122.029C46.2435 122.029 46.2435 121.999 46.2435 121.984ZM76.6313 89.1035L76.6911 89.0437C76.6911 89.0437 76.6612 88.9838 76.6462 88.9838C76.6163 88.9838 76.5864 88.9838 76.4518 89.0886C76.4817 89.0886 76.4967 89.1335 76.5266 89.1335C76.5565 89.1335 76.5864 89.1335 76.6163 89.1035H76.6313ZM95.2797 91.8723L95.3096 91.9022V91.8573V91.8124V91.8723H95.2946H95.2797ZM91.7504 89.4178H91.7803C91.4662 89.358 91.1372 89.2981 90.883 89.5076C91.3017 89.5276 91.5959 89.4976 91.7653 89.4178H91.7504ZM92.3336 89.2981C92.3336 89.2981 92.3336 89.2831 92.3336 89.2682C92.1392 89.2682 91.9897 89.2682 91.7653 89.4029C91.885 89.4029 92.0046 89.4029 92.1242 89.3879C92.2289 89.358 92.3037 89.3131 92.3336 89.2981ZM96.8499 91.4981C97.463 90.69 96.3414 90.4505 96.3265 90.4505C96.0174 90.4705 95.6735 90.9294 95.2946 91.8274C95.2946 91.1689 94.9806 90.7798 94.3674 91.3784C94.2777 91.4682 92.8122 93.1594 92.4084 93.7431C91.8251 94.5812 91.7504 94.5513 91.5859 94.4914C91.541 94.3118 91.5111 94.237 92.4383 93.1444C92.9916 92.4859 93.3505 91.7226 93.2757 91.3186C93.1561 91.2487 92.9168 91.4732 92.5579 91.992C92.3934 92.2465 92.2738 92.3961 91.4962 91.992C91.541 91.9621 91.5859 91.9471 91.6158 91.9172C93.1711 91.3036 92.214 90.4505 92.1841 90.4505C91.7952 90.3757 91.6307 90.8696 91.2569 90.8396C91.2569 90.8097 91.2569 90.7648 91.2569 90.7349C91.9149 90.1462 92.2838 89.6623 92.3635 89.2831C92.3635 89.2831 92.3635 89.2831 92.3336 89.2831C92.3336 89.2682 93.4403 87.7266 93.5001 87.2627C93.5449 86.9185 93.1561 86.9035 93.0365 86.679C92.9019 86.3946 93.1262 86.0953 92.9916 85.8259C92.9767 85.781 92.9467 85.7062 92.7822 85.6912C92.5878 85.6912 91.5709 85.6463 91.5709 85.6463C91.1073 85.8858 90.898 86.3797 90.4942 86.664C89.9857 87.0232 89.3726 87.2028 88.8492 87.5321C87.922 88.1158 86.8752 88.5049 85.9629 89.1335C85.9629 89.1335 84.6619 91.0192 84.6918 91.2736C84.8413 91.3185 85.0358 91.3784 85.7386 91.124C85.7386 91.124 85.7386 91.124 85.7386 91.109L85.7984 91.0791L85.7386 91.124C85.7287 91.2337 85.7486 91.3235 85.7984 91.3934H85.8433C86.1274 91.4383 86.2321 91.4532 87.0995 90.7947C87.0995 90.7947 87.5332 90.6101 88.4006 90.241C89.6468 89.7421 90.4792 89.4927 90.898 89.4927C90.898 89.4927 90.8681 89.5076 90.8531 89.5076C90.8082 89.5376 90.7484 89.5974 90.6886 89.6124C90.1502 89.8519 89.5521 89.9117 89.0137 90.1512C88.6996 90.3008 88.5052 90.6002 88.1762 90.7199C86.6509 91.2736 86.8004 92.0669 86.8453 92.2315C86.925 92.2714 87.1593 92.3562 87.5481 92.4859C87.5481 92.4859 87.5481 92.5458 87.5481 92.5757C87.4883 92.6555 87.254 92.6855 86.8453 92.6655C85.948 92.6056 84.4077 93.5635 85.8134 94.3567C86.1125 94.5213 86.5013 94.4166 86.7705 94.686C86.92 94.8356 87.0696 95.3295 87.0696 95.6139C87.1144 96.9309 85.8583 95.3894 85.8433 95.3744C85.8433 95.3744 84.6619 94.237 83.63 95.4193C83.4954 95.569 82.9421 96.3023 82.9421 96.7663C82.9421 97.2302 83.3907 97.305 83.6001 97.5894C83.7197 97.7391 83.4954 97.9486 83.2412 98.1881C82.8524 98.5472 82.8225 98.6221 82.7028 98.9364C82.5533 99.3405 82.5084 99.4602 82.6131 99.5201C82.6131 99.5201 84.1983 100.149 84.6619 100.044C85.1404 99.9541 85.5592 99.535 86.0975 99.7146C86.3518 99.7895 86.5013 99.8493 86.9799 99.6098C87.3388 99.4303 87.4584 99.4303 87.5033 99.4303C87.5332 99.4901 87.5481 99.565 87.5481 99.6398C87.5182 99.969 87.7425 100.792 87.7425 100.792C90.4942 102.498 90.3746 99.999 90.3596 99.969C90.3596 99.969 90.3297 99.969 90.3147 99.969C90.1951 100.074 90.1502 100.119 89.9708 100.089C89.9708 100.059 89.9558 100.029 89.9409 99.999C90.0605 99.9241 90.225 100.029 90.3446 99.9242V99.969C90.6587 99.6847 90.7335 99.6248 90.883 99.6847C90.9727 99.8942 91.1821 100.029 91.227 100.253C92.0196 100.134 92.214 99.3704 92.2289 99.3255C92.4233 98.5473 91.9597 97.8438 92.0046 97.0806C92.0046 97.0806 92.0644 96.4071 92.1841 96.2424C92.1841 96.2424 93.2458 94.7907 94.3375 93.4288C95.0105 92.5907 96.1171 92.3063 96.7602 91.4532L96.8499 91.4981ZM46.3332 121.999C46.3332 121.999 46.3332 121.969 46.3332 121.954C46.3183 121.969 46.2883 121.984 46.2734 121.999C46.3033 121.999 46.3183 121.999 46.3332 121.999ZM48.9802 114.052L49.0699 113.963L48.9802 114.022V114.067V114.052ZM49.0699 113.963L49.1746 113.903L49.2194 113.798C49.2194 113.798 49.1297 113.903 49.0699 113.963ZM109.232 115.564C109.232 115.564 109.232 115.474 109.128 115.19C109.128 115.16 109.068 115.13 109.038 115.1C108.948 115.04 108.903 115.07 108.844 115.16C108.844 115.16 108.455 115.863 108.455 115.878C108.455 115.908 108.455 115.953 108.455 115.983C108.589 116.043 108.604 116.058 108.664 116.058C108.664 116.058 109.158 116.013 109.217 115.564H109.232ZM94.3525 112.032L94.3824 111.927C94.2329 111.468 94.1332 111.184 94.0833 111.074C93.9637 110.835 93.9637 110.835 93.8291 110.79H93.7992C93.5599 110.879 93.7543 111.448 93.7992 111.568C93.9188 111.897 94.0534 111.957 94.2478 112.062L94.3525 112.017V112.032ZM53.661 100.164L53.7208 100.119L53.661 100.149C53.661 100.149 53.661 100.149 53.646 100.179L53.661 100.164ZM51.358 94.7009C51.343 94.7159 51.2981 94.7458 51.2832 94.7608H51.2533V94.7907C51.2832 94.7608 51.3131 94.7309 51.343 94.7159L51.358 94.7009ZM51.6571 94.4764C51.6571 94.4764 51.7169 94.4166 51.7169 94.4016C51.7169 94.4016 51.6022 94.5014 51.3729 94.7009C51.4626 94.6261 51.5673 94.5513 51.6571 94.4764ZM114.661 104.908C114.661 104.803 114.616 104.773 114.586 104.773C114.586 104.773 114.531 104.798 114.422 104.848C114.451 104.953 114.481 105.043 114.511 105.147C114.511 105.147 114.511 105.147 114.496 105.147L114.466 105.237L114.526 105.177V105.132C114.526 105.132 114.661 105.073 114.661 104.908ZM107.004 102.708L107.064 102.663C107.064 102.663 107.064 102.633 107.034 102.633C107.004 102.603 107.004 102.678 107.004 102.693V102.723V102.708ZM103.759 100.298L103.849 100.268L103.774 100.223V100.298H103.759ZM107.842 98.7268C107.842 98.7268 107.782 98.7867 107.752 98.8316C107.752 98.8316 107.737 98.8615 107.722 98.8765C107.722 98.8765 107.737 98.8765 107.752 98.8765H107.782C107.782 98.8166 107.812 98.7867 107.856 98.7418L107.842 98.7268ZM97.6425 97.6642C97.6425 97.6642 97.6275 97.6493 97.6126 97.6343C97.6126 97.6493 97.6126 97.6792 97.6126 97.6792C97.6126 97.6792 97.6126 97.6792 97.6425 97.6642ZM97.5976 97.6044V97.6343L97.6275 97.5894H97.5976V97.6193V97.6044ZM76.2574 92.2165L76.3023 92.1866H76.2724L76.1677 92.2614L76.2574 92.2165ZM75.061 92.3063C75.2255 92.1417 75.3601 91.9771 75.5097 91.7975C75.5097 91.7975 75.5097 91.7675 75.5097 91.7526L75.405 91.8124C75.3003 91.9172 75.1956 92.022 75.0909 92.1267C74.9912 92.2265 74.9264 92.3113 74.8965 92.3812C74.8965 92.3812 74.9713 92.3811 75.0461 92.3063H75.061ZM77.0799 91.992C77.0799 91.992 77.0949 91.992 77.1098 91.992C77.035 91.9771 77.0201 91.9771 76.9304 92.0369C76.9304 92.0369 76.9453 92.0669 76.9603 92.0818C77.0051 92.0669 77.0201 92.0519 77.0949 92.007L77.0799 91.992ZM77.4986 91.7975C77.4986 91.7975 77.5435 91.7975 77.5584 91.7975C77.5584 91.7975 77.5285 91.7975 77.4986 91.7675C77.364 91.8424 77.2294 91.9172 77.0949 91.992H77.1397C77.2444 91.9322 77.3491 91.8873 77.4538 91.8274C77.4538 91.8274 77.4837 91.8124 77.4986 91.7975ZM78.2314 91.9771C78.2314 91.9771 78.2912 91.9621 78.3211 91.9471L78.366 91.8873C78.0968 91.7376 77.9323 91.6777 77.5584 91.7675C77.6631 91.7975 77.7529 91.8274 77.8426 91.8573C77.9174 91.8723 77.9772 91.9022 78.052 91.9172C78.1118 91.9322 78.1566 91.9621 78.2164 91.9621L78.2314 91.9771ZM66.3873 86.0804H66.4173V86.0354L66.3724 86.0654L66.3873 86.0804ZM66.5219 86.4246C66.5219 86.4246 66.5818 86.3797 66.6117 86.3647C66.7612 86.245 66.7762 86.2001 66.7911 86.0804C66.7911 85.9457 66.6864 85.9307 66.6416 85.9157L66.6715 85.8708L66.6266 85.9157C66.6266 85.9157 66.492 86.0055 66.4322 86.0354C66.4322 86.0354 66.4173 86.0355 66.4023 86.0504C66.4023 86.0504 66.2378 86.3497 66.3126 86.4844C66.3126 86.4844 66.4472 86.4545 66.507 86.4096L66.5219 86.4246ZM92.0644 103.681C92.0644 103.681 92.0196 103.606 92.0046 103.561C92.0196 103.591 92.0495 103.636 92.0644 103.681ZM92.0644 103.681C92.0644 103.681 92.0644 103.711 92.0794 103.726C92.0794 103.726 92.0794 103.696 92.0644 103.681ZM116.964 87.6219C116.964 87.6219 116.934 87.6668 116.904 87.6817C116.949 87.6817 116.979 87.6817 116.964 87.6219ZM107.782 85.3021C107.812 85.2123 107.842 85.0926 107.453 84.7035C107.184 84.4191 107.019 84.4341 106.929 84.4341C106.63 84.4939 106.526 84.8232 106.526 84.9429C106.526 85.0028 106.526 85.1674 106.914 85.4069C106.974 85.4518 107.303 85.6164 107.393 85.6014C107.438 85.6014 107.707 85.4967 107.767 85.3021H107.782ZM100.873 86.5293C101.067 86.245 101.082 85.796 100.843 85.8259C100.663 85.8559 100.589 86.0355 100.439 86.0953C100.439 86.0953 100.424 86.0953 100.409 86.0953C100.349 85.8708 100.245 85.5266 101.172 84.2844C101.247 84.1796 101.605 83.6708 101.276 83.7756C101.276 83.7756 100.349 84.2245 100.14 84.5837C100.05 84.7484 100.035 84.9429 99.9306 85.1075C99.796 85.3171 99.5268 85.362 99.3772 85.5565C99.2576 85.7212 99.2725 85.9457 99.138 86.1103C99.123 86.1402 99.0781 86.1552 99.0632 86.1851C98.9735 86.26 98.9735 86.26 98.4351 85.9756C98.4351 85.9756 98.6594 85.5515 99.1081 84.7035C99.2775 84.3742 99.2925 84.1248 99.1529 83.9551C99.1828 83.7456 99.3922 83.6109 99.3772 83.3864C99.3772 83.2667 99.123 83.2368 99.123 83.2368C98.9286 83.2368 97.9416 83.6858 97.7472 83.9851C97.7472 84 97.7173 84.03 97.7023 84.0449C97.493 84.2844 97.1789 84.3443 96.9247 84.5089C96.7303 84.6436 97.0443 85.0177 96.7901 85.0477C96.6704 85.0028 96.5359 84.9279 96.4013 84.913C95.7732 84.913 95.4292 85.8259 95.8479 86.3198C95.8779 86.3497 95.9078 86.3797 95.9377 86.3946C95.9825 86.3946 96.0872 86.4395 96.2368 86.3797C96.3115 86.3497 96.3414 86.3348 96.3863 86.3647C96.5508 86.4246 96.6555 86.5742 96.835 86.6191C96.835 86.6191 96.8499 86.664 96.8649 86.679C96.4461 86.8586 95.9526 86.5892 95.5638 86.9185C95.4292 87.0382 94.9656 87.6518 95.4442 87.8763C95.5339 87.9212 96.1022 87.996 96.1022 87.996C96.1819 87.996 96.4661 87.9112 96.9546 87.7416C97.2088 87.6518 97.478 87.7416 97.7322 87.6817C98.1958 87.577 98.4052 88.2056 98.8688 88.1008C99.2127 88.011 100.574 87.0083 100.843 86.5892L100.873 86.5293ZM104.821 84.8681C104.821 84.8681 104.791 84.9429 104.237 85.7212C103.918 86.0604 103.629 86.4395 103.37 86.8586C102.847 86.9035 102.832 87.6219 102.308 87.6668C102.263 87.6668 101.546 87.547 101.62 87.1879C101.62 87.1879 101.8 86.6042 102.069 86.4395C102.249 86.3348 102.473 86.3348 102.607 86.1402C102.607 86.1402 102.503 86.1003 102.293 86.0205C101.994 85.9457 101.934 85.9307 101.905 85.9008C101.74 85.811 101.934 85.6314 101.905 85.4967C101.905 85.4218 101.845 85.362 101.83 85.3021V85.2722C101.86 85.1375 101.964 85.0477 102.009 84.9279C102.084 84.7484 102.114 84.5538 102.189 84.3742C102.189 84.3742 102.189 84.3742 102.189 84.3592C102.189 84.3293 102.802 83.4912 102.802 83.4762C102.912 83.3465 102.991 83.2767 103.041 83.2667C103.236 83.2667 103.071 83.7606 103.071 83.7606C103.041 83.8204 103.011 83.8803 102.996 83.9402C102.921 84.1347 102.921 84.3443 102.832 84.5239C102.772 84.6586 102.652 84.7633 102.592 84.913C102.563 85.0177 102.563 85.1225 102.563 85.2123L102.533 85.2422H102.578C102.578 85.2422 102.578 85.2123 103.011 84.6137C103.146 84.4341 103.28 84.2395 103.37 84.4041C103.37 84.4191 103.37 84.4341 103.325 84.8681C103.305 85.0676 103.295 85.1824 103.295 85.2123C103.295 85.2123 103.295 85.2123 103.31 85.2123C103.31 85.2123 103.31 85.2123 103.325 85.2123C103.565 84.8382 103.475 84.2844 103.938 84.0449C104.223 83.8953 105.045 84.2245 104.821 84.8681ZM101.142 81.4258C101.142 81.4258 101.516 80.917 101.456 80.7823C101.291 80.8122 101.187 80.9619 101.022 80.9918C101.022 80.9918 101.022 80.9918 100.992 80.9918C100.992 80.8871 100.947 80.7075 100.604 80.6775C100.484 80.6775 100.484 80.6775 100.095 80.902C99.796 81.0666 99.1978 81.366 98.6893 81.5156C98.3454 81.6054 98.0164 81.6803 97.6874 81.8C97.478 81.8748 97.3434 81.9497 97.2836 81.9796C97.0144 82.1143 96.6106 82.4735 96.5957 82.6381C96.7452 82.7878 96.82 82.8626 96.835 83.0123C96.835 83.132 96.7153 83.2517 96.835 83.3565C96.9097 83.4164 96.9695 83.3864 97.2836 83.2068C97.5827 83.0422 97.5976 83.0272 97.6425 83.0721C97.6425 83.0721 97.7871 82.9973 98.0762 82.8476C98.0762 82.8476 99.0632 82.0544 99.2576 82.0395C99.2576 82.0395 99.2576 82.0395 99.2726 82.0544C99.2127 82.1592 99.1828 82.1891 98.8538 82.4585C97.792 83.3715 98.3005 83.2966 98.3155 83.2966C98.5846 83.2218 98.7342 82.9524 98.9884 82.8626C99.2676 82.7828 99.4221 82.7379 99.452 82.7279C99.452 82.7279 99.4969 82.7129 99.5118 82.698C99.5118 82.698 100.379 81.9497 100.469 81.8449C100.484 81.8299 100.499 81.8 100.574 81.7551C100.708 81.6653 100.873 81.6354 100.992 81.5306C101.022 81.5007 101.067 81.4558 101.082 81.4258H101.142ZM110.429 79.8394C110.399 79.8394 110.384 79.8394 110.354 79.8245C110.369 79.8544 110.384 79.8544 110.399 79.8544C110.399 79.8544 110.399 79.8544 110.429 79.8544V79.8394ZM110.354 79.8095L110.324 79.7796V79.7945C110.324 79.7945 110.354 79.7945 110.369 79.7945L110.354 79.8095ZM112.208 79.8694C112.208 79.4952 111.775 79.4204 111.685 79.121C111.55 78.6122 111.819 78.1033 111.715 77.5795C111.715 77.5496 111.715 77.5196 111.685 77.5047C111.565 77.1006 111.431 77.1006 111.371 77.1006C111.117 77.1305 111.191 77.4299 111.236 77.4748C111.366 77.5945 111.411 77.6943 111.371 77.7741C111.102 77.804 111.087 77.804 110.997 77.8788C110.758 78.0884 110.862 78.4176 110.713 78.6571C110.578 78.8666 110.309 78.5823 110.189 78.8067C109.995 79.151 110.324 79.4503 110.294 79.7796C110.294 79.7796 110.264 79.7796 110.249 79.7796C110.16 79.7347 110.115 79.6149 110.01 79.585C110.01 79.585 109.95 79.585 109.905 79.6449C109.905 79.6449 109.232 81.0068 109.352 81.366C109.427 81.5905 109.741 81.5605 109.816 81.785C109.92 82.0993 109.666 82.0544 109.576 82.0395C108.963 81.9646 108.619 83.7456 108.978 84.2395C109.262 84.6137 109.786 84.5239 110.07 84.4191C110.384 84.3143 110.982 83.596 110.982 83.596C111.102 83.4164 111.072 83.1619 111.266 83.0272C111.476 83.0721 111.401 83.2966 111.535 83.4014C111.7 83.3715 112.104 82.4884 112.104 82.4735C112.104 82.4735 112.178 81.9946 111.969 81.5755C111.79 81.2163 112.029 80.902 112.148 80.7973C112.119 80.4979 112.163 80.1986 112.163 79.8993L112.208 79.8694ZM115.005 83.4762V83.4313H114.945L115.005 83.4762ZM115.005 79.7496H115.02L115.005 79.7197V79.7496ZM112.747 79.2857V79.2557H112.732V79.3006L112.747 79.2707V79.2857ZM112.328 77.1605C112.328 77.1605 112.313 77.1006 112.298 77.1006C112.298 77.1006 112.283 77.1006 112.268 77.1006C112.253 77.1455 112.238 77.1904 112.223 77.2353C112.283 77.2203 112.328 77.2054 112.328 77.1605Z" fill="#7DBEDE"/>
<path fill-rule="evenodd" clip-rule="evenodd" d="M135.523 41.6456C137.616 37.6346 138.693 33.1896 138.693 28.6549C138.693 13.1348 126.131 0.548218 110.623 0.548218C95.1152 0.548218 82.5383 13.1348 82.5383 28.6549C82.5383 33.1896 83.6151 37.6346 85.7087 41.6456L105.374 79.3606C106.421 81.366 108.35 82.5334 110.608 82.5334C112.866 82.5334 114.795 81.366 115.842 79.3606L135.508 41.6456H135.523ZM110.623 10.5906C120.388 10.5906 128.299 18.5077 128.299 28.2807C128.299 38.0537 120.388 45.9708 110.623 45.9708C100.858 45.9708 92.9467 38.0537 92.9467 28.2807C92.9467 18.5077 100.858 10.5906 110.623 10.5906Z" fill="#A6B1EE"/>
<path fill-rule="evenodd" clip-rule="evenodd" d="M75.2255 126.849C76.9901 123.466 77.9024 119.71 77.9024 115.893C77.9024 102.798 67.2995 92.1866 54.2142 92.1866C41.1289 92.1866 30.5261 102.798 30.5261 115.893C30.5261 119.71 31.4384 123.466 33.203 126.849L49.8026 158.667C50.6849 160.358 52.315 161.346 54.2142 161.346C56.1135 161.346 57.7435 160.358 58.6259 158.667L75.2255 126.849ZM54.2142 100.643C62.4542 100.643 69.124 107.318 69.124 115.564C69.124 123.81 62.4542 130.485 54.2142 130.485C45.9742 130.485 39.3045 123.795 39.3045 115.564C39.3045 107.333 45.9892 100.643 54.2142 100.643Z" fill="#1F2ADE"/>
<path fill-rule="evenodd" clip-rule="evenodd" d="M191.617 150.78C192.873 148.37 193.517 145.706 193.517 142.997C193.517 133.703 185.979 126.16 176.693 126.16C167.406 126.16 159.869 133.703 159.869 142.997C159.869 145.706 160.512 148.37 161.768 150.78L173.552 173.379C174.18 174.576 175.332 175.279 176.693 175.279C178.053 175.279 179.205 174.576 179.833 173.379L191.617 150.78ZM176.708 132.161C182.555 132.161 187.295 136.906 187.295 142.758C187.295 148.609 182.555 153.354 176.708 153.354C170.86 153.354 166.12 148.609 166.12 142.758C166.12 136.906 170.86 132.161 176.708 132.161Z" fill="#FF5097"/>
<path d="M43.8506 83.4464C55.3956 71.3985 70.1707 62.4786 86.7853 58.0636M136.823 58.7371C175.137 70.0516 203.117 105.537 203.117 147.547C203.117 198.687 161.693 240.128 110.608 240.128C59.523 240.128 18.0988 198.672 18.0988 147.547C18.0988 139.6 19.1007 131.877 20.985 124.514" stroke="#1F2ADE" stroke-width="1.42" stroke-linecap="round" stroke-linejoin="round"/>
<path fill-rule="evenodd" clip-rule="evenodd" d="M112.238 222.079C113.973 222.079 115.633 222.393 117.173 222.962C117.861 222.199 118.878 221.72 119.985 221.72C120.508 221.72 121.002 221.824 121.45 222.019C121.704 218.741 124.426 216.167 127.761 216.167C129.212 216.167 130.543 216.661 131.604 217.469C132.292 216.526 133.399 215.913 134.64 215.913C134.85 215.913 135.059 215.928 135.253 215.958C134.835 214.97 134.595 213.877 134.595 212.74C134.595 208.22 138.259 204.553 142.775 204.553C143.613 204.553 144.42 204.673 145.198 204.912C145.796 203.64 147.082 202.772 148.563 202.772H148.668C148.653 202.473 148.638 202.189 148.638 201.889C148.638 193.763 155.218 187.177 163.323 187.177C171.428 187.177 178.009 193.763 178.009 201.889C178.009 202.009 178.009 202.114 178.009 202.234C178.711 202.054 179.459 201.964 180.222 201.964C181.747 201.964 183.168 202.338 184.439 203.012C186.578 200.093 190.032 198.193 193.935 198.193C200.44 198.193 205.704 203.461 205.704 209.971C205.704 211.243 205.495 212.485 205.121 213.638C205.241 213.638 205.361 213.638 205.48 213.638C208.68 213.638 211.283 216.242 211.283 219.445C211.283 219.819 211.238 220.193 211.178 220.552C211.223 220.552 211.253 220.552 211.298 220.552C213.107 220.552 214.588 221.989 214.632 223.785C215.141 223.695 215.649 223.635 216.188 223.635C218.281 223.635 220.225 224.369 221.631 225.701C225.4 229.263 221.287 230.191 217.324 230.191H107.886C103.759 230.191 97.8518 230.864 101.964 226.539C104.551 223.815 108.2 222.124 112.238 222.124V222.079Z" fill="#5DB3C1"/>
<path fill-rule="evenodd" clip-rule="evenodd" d="M9.14102 78.3279C10.4122 78.3279 11.6235 78.5523 12.7451 78.9714C13.2535 78.4177 13.9863 78.0585 14.7939 78.0585C15.1677 78.0585 15.5416 78.1333 15.8706 78.268C16.0501 75.8734 18.039 73.9876 20.4766 73.9876C21.5384 73.9876 22.5105 74.3468 23.2881 74.9455C23.7816 74.257 24.6041 73.808 25.5163 73.808C25.6659 73.808 25.8154 73.808 25.965 73.8529C25.6509 73.1346 25.4864 72.3413 25.4864 71.5032C25.4864 68.1957 28.1633 65.5317 31.4533 65.5317C32.0665 65.5317 32.6497 65.6215 33.218 65.8011C33.6516 64.8732 34.5938 64.2446 35.6705 64.2446H35.7453C35.7453 64.0351 35.7303 63.8106 35.7303 63.601C35.7303 57.6744 40.5308 52.8702 46.4528 52.8702C52.3748 52.8702 57.1902 57.6744 57.1902 63.601C57.1902 63.6908 57.1902 63.7657 57.1902 63.8555C57.7136 63.7208 58.252 63.6609 58.8053 63.6609C59.9119 63.6609 60.9588 63.9303 61.871 64.4242C63.4412 62.284 65.9536 60.9071 68.81 60.9071C73.5506 60.9071 77.4089 64.7535 77.4089 69.5127C77.4089 70.4406 77.2593 71.3536 76.9901 72.1917C77.0798 72.1917 77.1696 72.1917 77.2444 72.1917C79.5773 72.1917 81.4765 74.0924 81.4765 76.4271C81.4765 76.6965 81.4466 76.9659 81.4017 77.2353C81.4316 77.2353 81.4616 77.2353 81.4915 77.2353C82.8075 77.2353 83.8842 78.283 83.9291 79.6C84.3029 79.5252 84.6768 79.4952 85.0656 79.4952C86.591 79.4952 88.0117 80.019 89.0435 80.9918C91.7952 83.596 88.7893 84.2695 85.9031 84.2695H5.97064C2.96477 84.2695 -1.34216 84.7633 1.64876 81.6055C3.53304 79.6149 6.19496 78.3728 9.15598 78.3728L9.14102 78.3279Z" fill="#5DB3C1"/>
</svg>
