<svg width="71" height="66" viewBox="0 0 71 66" fill="none" xmlns="http://www.w3.org/2000/svg">
<g clip-path="url(#clip0_484_569)">
<path d="M5.125 22.8893V22.8438C5.12493 18.3435 6.45775 13.944 8.95528 10.2004C11.4528 6.4568 15.0032 3.53676 19.1584 1.80869C23.3137 0.0806291 27.8877 -0.37803 32.3033 0.490581C36.719 1.35919 40.7784 3.51616 43.9696 6.68934C46.4803 5.4501 49.2848 4.92906 52.0732 5.18379C54.8615 5.43852 57.5251 6.45911 59.7698 8.13279C62.0145 9.80647 63.7528 12.0681 64.7927 14.6678C65.8325 17.2675 66.1335 20.104 65.6624 22.864C66.3551 22.9283 67.0271 23.1347 67.6365 23.4703C68.246 23.8059 68.7797 24.2635 69.2043 24.8145C69.629 25.3656 69.9356 25.9982 70.1049 26.673C70.2741 27.3478 70.3025 28.0503 70.1882 28.7365C67.9 42.5015 62.2401 51.214 53.2187 54.8793V58.2813C53.2187 60.2953 52.4187 62.2268 50.9946 63.6509C49.5705 65.075 47.639 65.875 45.625 65.875H25.375C23.361 65.875 21.4295 65.075 20.0054 63.6509C18.5813 62.2268 17.7812 60.2953 17.7812 58.2813V54.8793C8.75987 51.214 3.1 42.5015 0.811748 28.7365C0.701313 28.0685 0.726007 27.3851 0.884367 26.7268C1.04273 26.0685 1.33154 25.4486 1.7337 24.9039C2.13587 24.3592 2.64322 23.9007 3.22573 23.5555C3.80824 23.2104 4.45407 22.9855 5.125 22.8944V22.8893ZM10.1875 22.8438H15.25C15.25 19.4871 16.5834 16.268 18.9569 13.8945C21.3304 11.521 24.5496 10.1875 27.9062 10.1875C31.2629 10.1875 34.4821 11.521 36.8556 13.8945C39.2291 16.268 40.5625 19.4871 40.5625 22.8438H45.625C45.625 18.1445 43.7582 13.6376 40.4353 10.3147C37.1124 6.99182 32.6055 5.12503 27.9062 5.12503C23.2069 5.12503 18.7001 6.99182 15.3772 10.3147C12.0543 13.6376 10.1875 18.1445 10.1875 22.8438ZM20.3125 22.8438H35.5C35.5 20.8298 34.6999 18.8983 33.2758 17.4742C31.8517 16.0501 29.9202 15.25 27.9062 15.25C25.8923 15.25 23.9608 16.0501 22.5367 17.4742C21.1125 18.8983 20.3125 20.8298 20.3125 22.8438ZM55.0716 22.8438H60.4935C60.8757 21.3477 60.9114 19.7841 60.5977 18.2721C60.2841 16.7601 59.6294 15.3397 58.6837 14.1191C57.7379 12.8984 56.526 11.9098 55.1403 11.2284C53.7546 10.5471 52.2316 10.1911 50.6875 10.1875C49.4725 10.1875 48.3182 10.4002 47.245 10.79C48.1411 12.2277 48.8802 13.7768 49.4472 15.4019C50.4114 15.1628 51.4246 15.212 52.3611 15.5435C53.2976 15.8751 54.1162 16.4743 54.7152 17.2668C55.3142 18.0594 55.6672 19.0104 55.7306 20.0018C55.794 20.9932 55.5648 21.9814 55.0716 22.8438ZM48.1562 55.75H22.8437V58.2813C22.8437 58.9526 23.1104 59.5964 23.5851 60.0711C24.0598 60.5458 24.7037 60.8125 25.375 60.8125H45.625C46.2963 60.8125 46.9402 60.5458 47.4149 60.0711C47.8896 59.5964 48.1562 58.9526 48.1562 58.2813V55.75ZM21.0617 50.6875H49.9382C57.9674 48.1057 63.0501 40.8055 65.1966 27.9063H5.80337C7.94987 40.8055 13.0326 48.1057 21.0617 50.6875Z" fill="white"/>
</g>
<defs>
<clipPath id="clip0_484_569">
<rect width="71" height="66" fill="white"/>
</clipPath>
</defs>
</svg>
