<svg width="50" height="50" viewBox="0 0 50 50" fill="none" xmlns="http://www.w3.org/2000/svg">
<g filter="url(#filter0_d_339_251)">
<g clip-path="url(#clip0_339_251)">
<rect width="40" height="40" rx="20" transform="matrix(1 0 0 -1 5 45)" fill="white"/>
<path d="M28 24L27 33M32 24L28 17M15 24H35M16.5 24L18.1 31.4C18.1935 31.8586 18.4448 32.2698 18.8103 32.5621C19.1757 32.8545 19.6321 33.0094 20.1 33H29.9C30.3679 33.0094 30.8243 32.8545 31.1897 32.5621C31.5552 32.2698 31.8065 31.8586 31.9 31.4L33.6 24M17.5 28.5H32.5M18 24L22 17M22 24L23 33" stroke="#1F2ADE" stroke-width="2" stroke-linecap="round" stroke-linejoin="round"/>
</g>
</g>
<defs>
<filter id="filter0_d_339_251" x="0" y="0" width="50" height="50" filterUnits="userSpaceOnUse" color-interpolation-filters="sRGB">
<feFlood flood-opacity="0" result="BackgroundImageFix"/>
<feColorMatrix in="SourceAlpha" type="matrix" values="0 0 0 0 0 0 0 0 0 0 0 0 0 0 0 0 0 0 127 0" result="hardAlpha"/>
<feOffset/>
<feGaussianBlur stdDeviation="2.5"/>
<feComposite in2="hardAlpha" operator="out"/>
<feColorMatrix type="matrix" values="0 0 0 0 0 0 0 0 0 0 0 0 0 0 0 0 0 0 0.25 0"/>
<feBlend mode="normal" in2="BackgroundImageFix" result="effect1_dropShadow_339_251"/>
<feBlend mode="normal" in="SourceGraphic" in2="effect1_dropShadow_339_251" result="shape"/>
</filter>
<clipPath id="clip0_339_251">
<rect width="40" height="40" rx="20" transform="matrix(1 0 0 -1 5 45)" fill="white"/>
</clipPath>
</defs>
</svg>
