<svg width="158" height="190" viewBox="0 0 158 190" fill="none" xmlns="http://www.w3.org/2000/svg">
<path opacity="0.1" d="M154.121 183.407C154.121 187.049 137.165 190 116.257 190C95.3497 190 78.394 187.049 78.394 183.407C78.394 179.765 95.3497 176.815 116.257 176.815C137.165 176.815 154.121 179.765 154.121 183.407Z" fill="black"/>
<path d="M149.28 16.1235H78.2335C73.7753 16.1235 70.1693 12.5185 70.1693 8.06173C70.1693 3.60494 73.7753 0 78.2335 0H149.28C153.738 0 157.344 3.60494 157.344 8.06173C157.344 12.5185 153.738 16.1235 149.28 16.1235Z" fill="#5DB3C1"/>
<path d="M84.544 8.0617C84.544 11.4938 81.7531 14.2839 78.3199 14.2839C74.8868 14.2839 72.0958 11.4938 72.0958 8.0617C72.0958 4.6296 74.8868 1.83948 78.3199 1.83948C81.7531 1.83948 84.544 4.6296 84.544 8.0617Z" fill="#FFBD5C"/>
<path d="M79.382 8.53088C79.5672 8.4815 79.6907 8.45681 79.8266 8.40743C80.0612 8.33335 80.2835 8.35805 80.4811 8.4815C81.3332 9.00002 82.1853 9.51854 83.0251 10.0494C83.0621 10.0741 83.0744 10.1482 83.1362 10.2469C82.9386 10.8272 82.6175 11.3704 82.1482 11.8148C81.5802 11.5926 79.6907 10.3827 79.0856 9.85187C79.0609 9.69138 79.0362 9.51854 78.9868 9.25928C78.7398 9.51854 78.5669 9.74076 78.357 9.92595C77.4925 10.7284 76.5046 11.0247 75.3684 10.605C74.4793 10.2716 73.9112 9.60496 73.6519 8.71607C73.3308 7.59261 73.4913 6.50619 74.2076 5.55558C74.9485 4.54323 76.1958 4.08644 77.2949 4.40743C78.4311 4.74076 79.2585 5.74076 79.3696 6.96298C79.419 7.44447 79.3696 7.92595 79.3696 8.51854L79.382 8.53088ZM74.2323 7.67903C74.2323 8.32101 74.4299 8.90126 74.788 9.33335C75.3561 10.0124 76.2946 10.2346 77.1097 9.90126C78.7398 9.23459 79.2214 6.81484 77.9494 5.60496C77.3937 5.07409 76.7516 4.88891 75.9859 5.11113C74.8868 5.43212 74.1582 6.66669 74.2199 7.66669L74.2323 7.67903ZM81.9507 10.9136C82.0495 10.7037 82.1112 10.5679 82.1729 10.4321C81.1973 9.69138 80.2835 9.16051 80.0488 9.24693C80.0118 9.32101 79.9624 9.43212 79.876 9.58027C80.5428 10.0371 81.185 10.4568 81.9507 10.9013V10.9136Z" fill="#1F2ADE"/>
<path d="M74.2323 7.66668C74.1705 6.67902 74.8991 5.43211 75.9982 5.11112C76.7639 4.8889 77.4061 5.07409 77.9618 5.60495C79.2338 6.82717 78.7522 9.23458 77.122 9.90125C76.307 10.2346 75.3684 10 74.8004 9.33335C74.4299 8.90125 74.2323 8.321 74.2446 7.67902L74.2323 7.66668Z" fill="white"/>
<path d="M81.9506 10.9135C81.185 10.4567 80.5428 10.0493 79.8759 9.59255C79.95 9.4444 80.0118 9.33329 80.0488 9.25922C80.2835 9.1728 81.2097 9.70366 82.1729 10.4444C82.1112 10.5679 82.0494 10.7037 81.9506 10.9259V10.9135Z" fill="white"/>
<path d="M100.005 20.9877H80.5675C74.8247 20.9877 70.1693 25.6417 70.1693 31.3827V50.8148C70.1693 56.5559 74.8247 61.2099 80.5675 61.2099H100.005C105.748 61.2099 110.404 56.5559 110.404 50.8148V31.3827C110.404 25.6417 105.748 20.9877 100.005 20.9877Z" fill="#B8DEC5"/>
<path d="M146.946 20.9877H127.508C121.765 20.9877 117.109 25.6417 117.109 31.3827V50.8148C117.109 56.5559 121.765 61.2099 127.508 61.2099H146.946C152.688 61.2099 157.344 56.5559 157.344 50.8148V31.3827C157.344 25.6417 152.688 20.9877 146.946 20.9877Z" fill="#EDA0B2"/>
<path d="M80.5675 66H100.005C105.748 66 110.404 70.6543 110.404 76.3951V95.8272C110.404 101.568 105.748 106.222 100.005 106.222H80.5675C74.825 106.222 70.1693 101.568 70.1693 95.8272V76.3827C70.1693 70.642 74.825 65.9877 80.5675 65.9877V66Z" fill="#FCD8BE"/>
<path d="M127.508 66H146.958C152.7 66 157.356 70.6543 157.356 76.3951V95.8272C157.356 101.568 152.7 106.222 146.958 106.222H127.52C121.777 106.222 117.122 101.568 117.122 95.8272V76.3827C117.122 70.6543 121.777 65.9877 127.52 65.9877L127.508 66Z" fill="#A6B1EE"/>
<path d="M141.537 52.679C140.178 52.5555 138.918 52.3456 137.671 52.1481C137.486 51.4444 137.437 50.5925 137.572 49.8888C137.992 47.5679 138.511 45.2469 138.832 42.9012C139.104 40.9135 139.622 38.9629 139.857 36.9753C139.919 36.4814 140.079 36 140.203 35.5061C140.302 35.0864 140.363 34.6666 140.252 34.2592C139.882 34.0123 139.622 34.1234 139.388 34.4074C138.807 35.1358 138.215 35.8642 137.646 36.5925C136.547 38 135.461 39.4197 134.349 40.8271C132.892 42.679 131.435 44.5432 129.94 46.3827C129.521 46.9012 129.212 47.5308 128.631 47.9135C127.767 47.6049 126.557 46.8765 125.482 46.0246C125.544 45.8395 125.581 45.6172 125.68 45.4444C126.791 43.6049 127.915 41.7777 129.014 39.9382C130.138 38.0617 131.225 36.1728 132.336 34.2963C133.176 32.8765 134.053 31.4814 134.905 30.074C135.609 28.9135 136.3 27.753 136.967 26.6296C137.412 26.4814 137.721 26.6913 138.042 26.8395C139.573 27.5185 141.117 28.2098 142.648 28.8888C144.216 29.5925 145.785 30.2963 147.353 31C147.452 31.037 147.514 31.1234 147.662 31.2345C147.501 31.8765 147.365 32.5308 147.18 33.1851C146.736 34.7654 146.279 36.3456 145.822 37.9382C145.538 38.9382 145.254 39.9382 144.957 40.9259C144.562 42.2592 144.142 43.5926 143.759 44.9382C143.167 47.037 142.599 49.1481 142.006 51.2469C141.882 51.6913 141.709 52.1234 141.512 52.6913L141.537 52.679Z" fill="#BAEDB2"/>
<path d="M128.533 49.0988C128.397 49.642 128.002 49.9136 127.643 50.2716C126.186 49.4568 124.815 48.5062 123.346 47.5679C123.42 47.395 123.445 47.2222 123.543 47.0988C123.729 46.8395 123.951 46.6173 124.161 46.3704C125.001 46.7037 127.878 48.4815 128.533 49.0988Z" fill="white"/>
<path d="M136.683 54.1605C136.609 53.7407 136.634 53.3703 136.794 52.9876C136.918 52.9506 137.017 52.9012 137.115 52.9136C137.745 52.9382 141.462 53.5432 142.006 53.6913C142.154 54.0864 142.018 54.4321 141.771 54.8024C141.117 54.8889 140.499 54.6419 139.869 54.6049C139.19 54.5679 138.511 54.4815 137.832 54.4197C137.585 54.395 137.325 54.3703 137.091 54.321C136.955 54.2963 136.831 54.2098 136.696 54.1605H136.683Z" fill="white"/>
<path d="M127.606 90.642C127.557 90.5185 127.483 90.3827 127.458 90.2593C127.038 86.4074 126.618 82.5556 126.186 78.6667C126.446 78.5926 126.643 78.5062 126.841 78.4815C127.915 78.358 128.977 78.2346 130.052 78.1235C132.583 77.8765 135.127 77.642 137.659 77.3951C140.116 77.1481 142.586 76.8765 145.044 76.6296C145.427 76.5926 145.822 76.5309 146.266 76.6296C146.55 77.9383 146.649 79.2593 146.822 80.5679C146.995 81.8889 147.131 83.2099 147.304 84.5185C147.477 85.8272 147.662 87.1358 147.761 88.3951C147.674 88.4938 147.649 88.5185 147.625 88.5432C147.563 88.5802 147.501 88.6296 147.44 88.6296C140.944 89.321 134.448 90.0123 127.952 90.6914C127.853 90.6914 127.742 90.6667 127.606 90.642Z" fill="white"/>
<path d="M127.816 51.3581C126.013 50.2593 124.346 49.1605 122.654 48.0988C122.543 48.0247 122.494 47.8766 122.395 47.7408C122.58 46.8149 123.321 46.2346 123.753 45.4568H124.791C125.519 44.2346 126.273 42.9754 127.026 41.7161C127.927 40.2099 128.829 38.7037 129.73 37.1976C130.83 35.3581 131.941 33.5186 133.04 31.6667C133.645 30.6544 134.25 29.642 134.855 28.6297C135.3 27.8889 135.732 27.1482 136.165 26.4198C136.584 25.7161 136.918 25.5679 137.671 25.8642C138.536 26.1976 139.375 26.605 140.227 26.9754C141.141 27.3828 142.068 27.7655 142.981 28.1729C143.735 28.5062 144.488 28.8519 145.229 29.1852C146.266 29.6544 147.316 30.1235 148.341 30.5803C148.625 30.8766 148.551 31.1976 148.465 31.5062C148.193 32.4692 147.896 33.4321 147.625 34.3951C147.242 35.7408 146.884 37.0865 146.513 38.4321C146.254 39.3581 145.982 40.2963 145.711 41.2223C145.315 42.5679 144.908 43.9013 144.525 45.2346C144.167 46.4692 143.846 47.7161 143.5 48.963C143.154 50.1729 142.784 51.3704 142.413 52.6173C142.574 52.8025 142.734 52.9754 142.895 53.1482C142.883 54.3828 142.759 54.8766 142.29 55.6544C142.08 55.6544 141.833 55.7037 141.598 55.6791C139.857 55.4815 138.103 55.2593 136.362 55.0494C136.263 55.0371 136.165 54.9877 136.066 54.9507C135.72 54.2963 135.72 53.9877 136.029 52.3951C136.202 52.284 136.412 52.1482 136.609 52.0247C136.634 51.9383 136.671 51.8766 136.683 51.8025C136.782 50.2223 136.955 48.6667 137.264 47.1112C137.634 45.247 138.029 43.3828 138.289 41.5062C138.474 40.1852 138.746 38.9013 139.005 37.5926C139.091 37.1852 139.091 36.7531 139.141 36.3087C139.005 36.3457 138.918 36.3457 138.881 36.3828C135.72 40.3704 132.571 44.3581 129.409 48.3581C129.483 48.5803 129.558 48.7655 129.632 49C129.212 49.8519 128.57 50.5556 127.816 51.3457V51.3581ZM141.549 52.6791C141.746 52.1235 141.919 51.6914 142.043 51.2346C142.636 49.1358 143.191 47.0247 143.796 44.926C144.179 43.5803 144.599 42.247 144.994 40.9136C145.291 39.9136 145.575 38.9136 145.859 37.926C146.316 36.3457 146.773 34.7655 147.217 33.1729C147.402 32.5309 147.538 31.8642 147.699 31.2223C147.563 31.1112 147.489 31.0371 147.39 30.9877C145.822 30.284 144.253 29.5803 142.685 28.8766C141.154 28.1852 139.61 27.5062 138.079 26.8272C137.758 26.6791 137.449 26.4692 137.004 26.6173C136.337 27.7408 135.646 28.9013 134.942 30.0618C134.09 31.4692 133.213 32.8642 132.373 34.284C131.262 36.1605 130.163 38.0494 129.051 39.926C127.952 41.7655 126.828 43.5926 125.717 45.4321C125.606 45.605 125.581 45.8272 125.519 46.0124C126.594 46.8642 127.792 47.5926 128.668 47.9013C129.249 47.5309 129.558 46.8889 129.977 46.3704C131.472 44.5309 132.929 42.6791 134.386 40.8149C135.485 39.4075 136.584 37.9877 137.683 36.5803C138.252 35.8519 138.844 35.1235 139.425 34.3951C139.659 34.1112 139.906 34 140.289 34.247C140.4 34.6544 140.339 35.0865 140.24 35.4939C140.129 35.9877 139.956 36.4692 139.894 36.963C139.659 38.963 139.141 40.9013 138.869 42.8889C138.548 45.2346 138.042 47.5433 137.609 49.8766C137.486 50.5803 137.523 51.4445 137.708 52.1358C138.955 52.3334 140.215 52.5433 141.574 52.6667L141.549 52.6791ZM128.533 49.1112C127.878 48.5062 125.001 46.7161 124.161 46.3828C123.963 46.6173 123.741 46.8519 123.543 47.1112C123.445 47.2346 123.42 47.4075 123.346 47.5803C124.803 48.5186 126.174 49.4815 127.643 50.284C128.002 49.9136 128.397 49.6544 128.533 49.1112ZM136.683 54.1605C136.819 54.2223 136.943 54.2963 137.078 54.321C137.325 54.3704 137.572 54.3951 137.819 54.4198C138.499 54.4815 139.178 54.5803 139.857 54.605C140.499 54.6297 141.117 54.8889 141.759 54.8025C142.018 54.4321 142.154 54.0865 141.993 53.6914C141.45 53.5433 137.733 52.9383 137.103 52.9136C137.004 52.9136 136.905 52.963 136.782 52.9877C136.634 53.3581 136.597 53.7408 136.671 54.1605H136.683Z" fill="#1F2ADE"/>
<path d="M137.844 90.6049C137.918 91.3827 137.844 92.0247 138.079 92.7037C138.301 92.7037 138.511 92.7284 138.709 92.7037C140.067 92.5309 141.413 92.358 142.759 92.1852C143.006 92.1605 143.253 92.1852 143.549 92.1852C143.611 92.3951 143.661 92.5803 143.71 92.7531C143.352 93.0864 142.944 93.0988 142.562 93.1482C139.709 93.5062 136.868 93.8642 134.016 94.2099C133.485 94.2716 132.954 94.3827 132.447 94.2469C132.2 94 132.237 93.7778 132.484 93.5185C133.929 93.2346 135.473 93.1482 137.004 92.8889C137.14 92.1358 136.992 91.4815 136.831 90.7654C135.189 90.7901 133.596 91.0494 132.003 91.2099C130.397 91.3704 128.792 91.5432 127.285 91.6914C126.754 91.4198 126.606 91.0371 126.557 90.5803C126.409 89.1482 126.26 87.7284 126.1 86.2963C125.915 84.5803 125.717 82.8766 125.532 81.1605C125.445 80.3704 125.346 79.5926 125.272 78.8148C125.198 77.9877 125.408 77.7037 126.26 77.6049C127.359 77.4691 128.471 77.3827 129.582 77.2716C131.336 77.0988 133.077 76.9259 134.831 76.7531C136.757 76.5679 138.684 76.3704 140.61 76.1852C142.29 76.0247 143.969 75.8519 145.649 75.679C145.797 75.6667 145.933 75.6296 146.081 75.6296C146.773 75.5803 147.106 75.8148 147.205 76.4815C147.341 77.3333 147.44 78.1852 147.551 79.037C147.798 81.0247 148.032 83.0247 148.279 85.0247C148.39 85.9136 148.514 86.8025 148.613 87.6914C148.662 88.0864 148.687 88.4815 148.712 88.8642C148.712 88.963 148.674 89.0741 148.65 89.1482C148.44 89.4321 148.168 89.4938 147.872 89.5185C145.661 89.7408 143.451 89.963 141.24 90.1975C140.141 90.3087 139.042 90.4568 137.832 90.6049H137.844ZM127.594 90.6543C127.73 90.679 127.841 90.7161 127.94 90.7037C134.436 90.0247 140.931 89.3333 147.427 88.642C147.489 88.642 147.551 88.5803 147.612 88.5556C147.637 88.5432 147.662 88.5062 147.748 88.4074C147.637 87.1482 147.464 85.8395 147.291 84.5309C147.118 83.2099 146.983 81.8889 146.81 80.5803C146.637 79.2716 146.55 77.9506 146.254 76.642C145.822 76.5432 145.427 76.605 145.031 76.642C142.574 76.8889 140.104 77.1605 137.646 77.4074C135.115 77.6543 132.571 77.8889 130.039 78.1358C128.965 78.2469 127.903 78.358 126.828 78.4938C126.631 78.5185 126.433 78.6049 126.174 78.679C126.594 82.5803 127.014 86.4198 127.446 90.2716C127.458 90.4074 127.545 90.5309 127.594 90.6543Z" fill="#1F2ADE"/>
<path d="M141.821 30.6049C141.722 31.0864 141.499 31.1728 141.29 31.0864C140.833 30.9136 140.388 30.679 139.906 30.4568C139.919 30.2222 139.943 30.0247 139.956 29.8148C140.758 29.8148 141.203 30.358 141.808 30.6049H141.821Z" fill="#1F2ADE"/>
<path d="M137.239 28.1852C137.93 28.358 138.326 28.7037 138.783 29.0988C138.659 29.2716 138.56 29.4321 138.462 29.5802C137.869 29.5185 137.548 29.0988 137.091 28.7901C137.14 28.6173 137.177 28.4321 137.251 28.1852H137.239Z" fill="#1F2ADE"/>
<path d="M144.08 31.8518C144.031 31.9753 144.006 32.074 143.957 32.1605C143.92 32.2098 143.846 32.2345 143.759 32.2839C143.216 32.2469 142.846 31.8765 142.364 31.6419C142.426 31.4444 142.475 31.3209 142.512 31.1851C143.228 31.0247 143.648 31.4321 144.08 31.8642V31.8518Z" fill="#1F2ADE"/>
<path d="M144.883 32.6419C145.167 32.1975 145.303 32.1481 145.649 32.3457C145.921 32.5061 145.945 32.6296 145.748 33.0494C145.39 33.1481 145.118 33.0247 144.883 32.6419Z" fill="#1F2ADE"/>
<path d="M100.722 85.2345C100.672 84.5185 100.598 83.8024 100.524 83.0987C100.425 82.1357 100.043 81.2962 99.4127 80.5679C98.363 79.358 97.1281 78.3703 95.5968 77.8518C93.0528 76.9876 90.5211 77.0123 88.0636 78.2098C87.4832 78.4938 86.9275 78.8148 86.3841 79.1728C84.4329 80.5061 82.7781 82.1111 81.7407 84.2839C80.9504 85.9506 80.4687 87.7036 80.2217 89.5308C80.2094 89.6296 80.2711 89.7283 80.2958 89.8765C80.444 89.8642 80.5922 89.8765 80.7157 89.8395C83.3214 89.3086 85.9519 89 88.6193 89.0864C89.9778 89.1234 91.3486 89.1975 92.707 89.2592C93.6332 89.2963 94.5717 89.3456 95.498 89.3827C95.6214 89.3827 95.7943 89.4197 95.7943 89.1357C95.782 89.1357 95.7696 89.1357 95.7573 89.1357C95.9425 88.8888 95.9672 88.4814 95.9796 88.2098C96.9675 88.2839 97.9555 88.2345 98.9434 88.0617C99.6968 87.9259 100.166 87.5185 100.425 86.8271C100.623 86.3209 100.734 85.7901 100.685 85.2469L100.722 85.2345Z" fill="#FFBD5C"/>
<path d="M78.9991 94.395C78.4558 93.5555 78.4805 92.679 78.7027 91.7901C78.8262 91.3086 79.2091 91.1111 79.6537 91.0123C80.7404 90.7901 81.8272 90.5432 82.9262 90.395C84.3094 90.2098 85.7049 90.0864 87.1003 89.9753C87.7796 89.9259 88.4588 89.9629 89.138 89.9753C90.4594 90.0247 91.7931 90.074 93.1145 90.1605C94.6829 90.2592 96.2636 90.4074 97.832 90.5432C98.3754 90.5926 98.894 90.6913 99.3263 91.1111C99.5115 91.7901 99.388 92.4568 99.1904 93.1111C99.0299 93.6296 98.6347 93.9259 98.1654 94.1481C97.2763 94.5679 96.3254 94.7901 95.3744 94.9012C93.522 95.1111 91.6696 95.2716 89.8049 95.4321C88.9157 95.5061 88.0142 95.5185 87.125 95.5679C85.6184 95.6419 84.1118 95.4691 82.6175 95.321C81.3826 95.1852 80.1353 94.9753 78.9991 94.4074V94.395Z" fill="#DB9A4B"/>
<path d="M96.9305 89.4444C97.4121 89.5308 97.7702 89.5802 98.116 89.6666C98.5729 89.7777 99.0299 89.8888 99.4497 90.0617C99.9561 90.2592 100.265 90.679 100.265 91.2222C100.265 91.8642 100.265 92.5185 100.141 93.1481C100.005 93.9259 99.5115 94.5308 98.7952 94.8641C98.2148 95.1358 97.5973 95.3703 96.9799 95.5185C95.9302 95.7777 94.8681 95.9629 93.7937 96.0123C93.0404 96.0493 92.2994 96.1481 91.5461 96.2345C88.4588 96.5432 85.3838 96.5802 82.2964 96.1975C81.2714 96.074 80.2588 95.7901 79.2461 95.5432C78.4311 95.3456 77.9865 94.8024 77.7889 93.9876C77.579 93.1234 77.616 92.2839 77.8506 91.4321C77.9618 91.037 78.1964 90.7283 78.5422 90.5061C78.7521 90.3703 78.9621 90.2469 79.1967 90.0987C79.3079 89.4321 79.4314 88.753 79.5425 88.0864C79.7278 87.0246 80.0365 85.9876 80.444 84.9876C81.9877 81.1234 84.8281 78.5802 88.607 77.0123C90.6446 76.1728 92.744 76.2222 94.8558 76.6913C97.0169 77.1728 98.7088 78.395 100.141 80.0246C100.783 80.7654 101.179 81.6543 101.364 82.6296C101.574 83.7284 101.623 84.8395 101.574 85.9506C101.549 86.5802 101.352 87.1481 101.055 87.6913C100.722 88.2963 100.24 88.7037 99.5732 88.8518C99.0546 88.9753 98.5112 89.0123 97.9802 89.0987C97.6838 89.1481 97.338 89.0493 96.9305 89.4444ZM80.3082 89.8888C80.4564 89.8765 80.6046 89.8888 80.7281 89.8518C83.3338 89.3209 85.9642 89.0123 88.6317 89.0987C89.9901 89.1358 91.3609 89.2098 92.7193 89.2716C93.6455 89.3086 94.5841 89.358 95.5103 89.395C95.6338 89.395 95.8067 89.4321 95.8067 89.1481C95.6461 89.1234 95.4732 89.1111 95.3127 89.074C94.8558 89 94.3988 88.9259 93.9296 88.8395C93.7937 88.8148 93.6579 88.753 93.5344 88.679C93.3615 88.5802 93.2874 88.4321 93.3244 88.2222C93.3615 88.0123 93.5344 87.8888 93.7073 87.9012C94.1642 87.9382 94.6211 88.037 95.0904 88.1111C96.3747 88.2839 97.6591 88.2839 98.9434 88.0493C99.6967 87.9135 100.166 87.5061 100.425 86.8148C100.623 86.3086 100.734 85.7777 100.685 85.2345C100.635 84.5185 100.561 83.8024 100.487 83.0987C100.388 82.1358 100.005 81.2963 99.3757 80.5679C98.326 79.358 97.091 78.3703 95.5597 77.8518C93.0157 76.9876 90.4841 77.0123 88.0265 78.2098C87.4461 78.4938 86.8904 78.8148 86.347 79.1728C84.3958 80.5061 82.741 82.1111 81.7037 84.2839C80.9133 85.9506 80.4317 87.7037 80.1847 89.5308C80.1723 89.6296 80.2341 89.7284 80.2588 89.8765L80.3082 89.8888ZM78.9868 94.395C80.1229 94.9629 81.3702 95.1728 82.6052 95.3086C84.0994 95.4691 85.6061 95.6419 87.1127 95.5555C88.0019 95.5061 88.9034 95.4938 89.7925 95.4197C91.6449 95.2592 93.5097 95.0987 95.3621 94.8888C96.3253 94.7777 97.2639 94.5555 98.1531 94.1358C98.6223 93.9135 99.0299 93.6172 99.1781 93.0987C99.3756 92.4444 99.4991 91.7777 99.3139 91.0987C98.8817 90.679 98.363 90.5802 97.8196 90.5308C96.2513 90.395 94.6705 90.2592 93.1022 90.1481C91.7808 90.0617 90.447 90.0123 89.1256 89.9629C88.4464 89.9382 87.7549 89.9012 87.088 89.9629C85.6925 90.074 84.297 90.1975 82.9139 90.3827C81.8148 90.5308 80.728 90.7777 79.6413 91C79.1967 91.0864 78.8139 91.2962 78.6904 91.7777C78.4558 92.6666 78.4434 93.5432 78.9868 94.3827V94.395Z" fill="#1F2ADE"/>
<path d="M82.6546 85.0616C82.494 84.9629 82.4199 84.7653 82.4693 84.5925C82.6052 84.1234 82.8645 83.7407 83.1856 83.4073C83.272 83.3086 83.519 83.2962 83.6672 83.3456C83.8525 83.4073 83.9019 83.6172 83.8525 83.79C83.7166 84.1975 83.519 84.5678 83.1979 84.9629C83.0621 85.1234 82.8275 85.1728 82.6546 85.0616Z" fill="#1F2ADE"/>
<path d="M82.3088 86.2716C82.3705 86.3457 82.5311 86.4568 82.5681 86.5926C82.6299 86.8519 82.3952 87.0988 82.1606 87.0741C81.963 87.0617 81.7778 86.8395 81.7901 86.642C81.8025 86.4321 82 86.2716 82.3088 86.2716Z" fill="#1F2ADE"/>
<path opacity="0.1" d="M76.9368 183.407C76.9368 187.049 59.981 190 39.0735 190C18.166 190 1.21024 187.049 1.21024 183.407C1.21024 179.765 18.166 176.815 39.0735 176.815C59.981 176.815 76.9368 179.765 76.9368 183.407Z" fill="black"/>
<path d="M22.7229 181.432C21.3645 181.481 20.0678 181.457 18.7835 181.432C14.9922 181.333 11.2009 181.407 7.4714 181.16C7.38495 181.086 7.34791 181.062 7.33556 181.025C7.32321 180.988 7.32321 180.951 7.33556 180.913C7.69369 178.753 8.05182 176.605 8.40995 174.444C8.40995 174.383 8.48405 174.321 8.5705 174.197C8.90393 174.16 9.28676 174.086 9.68194 174.086C11.6949 174.037 13.6955 173.975 15.7085 173.963C16.1654 173.963 16.6347 174.062 17.0792 174.185C18.3636 174.555 19.5491 175.136 20.6112 175.963C21.2904 176.506 21.8832 177.136 22.303 177.901C22.8835 178.975 23.1181 180.099 22.7353 181.444L22.7229 181.432Z" fill="#4F9BA3"/>
<path d="M51.5958 181.185C51.4229 179.259 51.4847 177.469 51.3488 175.642C51.497 175.593 51.6205 175.519 51.744 175.519C54.2139 175.593 56.6097 175.173 58.956 174.259C61.5865 174.704 64.0317 175.63 66.1681 177.333C66.9091 177.926 67.5018 178.642 68.0205 179.42C68.3416 179.889 68.6133 180.407 68.5886 181.086C68.3045 181.111 68.0329 181.161 67.7488 181.161C65.5259 181.161 63.2907 181.161 61.0678 181.161C58.3015 181.161 55.5353 181.173 52.769 181.185C52.4109 181.185 52.0527 181.185 51.5835 181.185H51.5958Z" fill="#4F9BA3"/>
<path d="M71.997 44.1975C71.8735 44.4321 71.9353 44.642 72.1205 44.7778C72.2934 44.9012 72.5033 44.9753 72.6886 45.0864C73.4172 45.5432 74.1458 46 74.8497 46.4938C75.2079 46.7407 75.5289 47.0247 75.6277 47.5556C75.5166 48.0494 75.2326 48.5062 74.8744 48.9012C74.2693 49.5679 73.6395 50.1975 73.0097 50.8272C72.7627 51.0741 72.4786 51.3087 72.1823 51.5185C71.4536 52.037 71.1202 52.7037 71.1079 53.6173C71.1079 54.284 71.1326 54.9753 70.8979 55.6296C70.1816 55.7531 67.1313 55.7531 66.2422 55.6049C66.2916 55.2346 66.3286 54.8519 66.378 54.4691C66.5756 53.0124 66.7732 51.5556 66.9708 50.0988C67.1313 49 67.3042 47.9012 67.4648 46.8025C67.5636 46.0617 67.9217 45.4445 68.4404 44.9259C68.7244 44.642 69.0208 44.3827 69.3172 44.1358C71.2437 42.5679 73.4048 41.3457 75.5907 40.1975C75.9365 40.0124 76.3193 39.9012 76.7021 39.7901C76.8133 39.7531 76.9615 39.8148 77.1097 39.8272C77.0232 40.2593 76.7145 40.4815 76.4551 40.7037C75.3313 41.7037 74.1952 42.6914 73.0344 43.6543C72.7503 43.8889 72.3551 44.0124 72.0217 44.1852L71.997 44.1975Z" fill="#FFC9B5"/>
<path d="M72.454 57.8272C72.454 57.605 72.4293 57.3828 72.4169 57.1605L72.3922 56.8396C72.3922 56.6667 72.2687 56.5186 72.1082 56.4568C71.5772 56.247 71.0585 56.2346 70.6015 56.2346C70.4163 56.2346 70.2187 56.2346 70.0335 56.2099C69.4531 56.1605 68.885 56.1482 68.3169 56.1482H67.9464C67.9464 56.1482 67.5142 56.1482 67.3907 56.1482C66.9214 56.1482 66.3781 56.1852 65.847 56.4198C65.7235 56.4815 65.6247 56.5926 65.6 56.7284L65.563 56.9013C65.5259 57.0371 65.5012 57.1729 65.4765 57.2963C65.4025 57.8642 65.3284 58.4198 65.2543 58.9877L65.069 60.3951C65.0073 60.8519 64.9455 61.3087 64.8838 61.7655C64.785 62.4445 64.6985 63.1235 64.6121 63.8149C64.4145 65.3087 64.2293 66.8025 64.044 68.2963C64.0193 68.5186 63.9823 68.7531 63.9576 68.9754C63.8217 69.926 63.6859 70.9136 63.7847 71.9507C63.7847 72 63.797 72.0494 63.8217 72.0988C62.7597 70.4445 61.71 68.7778 60.6603 67.1112C60.3639 66.642 60.0675 66.1605 59.7588 65.6544L59.3142 64.9383C59.2277 64.8025 59.0796 64.7284 58.9314 64.7284C58.8573 64.7284 58.7708 64.7531 58.6967 64.7902C58.635 64.8272 58.5732 64.8642 58.5362 64.8889C58.425 64.9507 58.3262 65 58.2398 65.0988C56.7826 66.6667 55.066 68.2099 53.016 69.8025C52.8925 69.9013 52.7937 70.0247 52.7073 70.1235C52.6702 70.1605 52.6455 70.2099 52.6085 70.247C52.485 70.3828 52.4603 70.5926 52.5467 70.7531L52.6579 70.963C52.732 71.1112 52.8061 71.2593 52.8802 71.3828L53.4606 72.321C54.3991 73.8396 55.3253 75.3704 56.2762 76.8889C57.1654 78.321 58.2892 79.6914 59.6229 80.9507C60.7714 82.0494 62.0064 82.7655 63.3895 83.1605C63.797 83.2717 64.2046 83.3334 64.5874 83.3334C65.0937 83.3334 65.5753 83.2346 66.0199 83.0247C67.4648 82.3704 68.4404 81.3951 68.922 80.1112C69.132 79.5433 69.3049 78.9754 69.4654 78.4445C70.0458 76.4445 70.5151 74.284 70.9473 71.6667C71.4166 68.8272 71.8241 66 72.1576 63.2346C72.4169 61.1482 72.5157 59.4198 72.4787 57.8025L72.454 57.8272Z" fill="#5DB3C1"/>
<path d="M15.4738 74.2963C13.5473 70.9136 11.5467 67.4075 9.3732 63.9877L9.95362 63.6173C10.6328 63.1852 11.2627 62.7778 11.9048 62.3581C12.2012 62.1605 12.5099 61.963 12.8187 61.7655C13.4485 61.3704 14.0907 60.9507 14.7328 60.4939C14.9304 60.3581 14.9798 60.0865 14.844 59.8889C14.6093 59.5309 14.3871 59.1976 14.1648 58.8519C13.6584 58.0865 13.1768 57.3581 12.7199 56.605C12.2506 55.8272 11.8307 55.0371 11.3862 54.2099C11.1886 53.8395 10.991 53.4815 10.7934 53.1112C10.7069 52.963 10.5587 52.8766 10.3982 52.8766C10.3365 52.8766 10.2624 52.8889 10.2006 52.926C10.1389 52.9507 10.0895 52.9754 10.0401 53C9.91658 53.0618 9.79308 53.1112 9.65724 53.1976L8.26176 54.0988C6.73043 55.0865 5.14971 56.0988 3.61838 57.1235C3.01326 57.5309 2.39579 58.0371 1.74127 58.6791C0.50633 59.8766 0.209944 61.3087 0.889161 62.8149L0.987957 63.0247C1.30904 63.7408 1.63013 64.4692 2.02531 65.1729L2.64278 66.2716C3.61838 68.0124 4.61868 69.8025 5.69308 71.5309C7.15031 73.8519 8.68163 76.1852 10.1512 78.4445C10.6946 79.2716 11.238 80.0988 11.7813 80.926C11.8925 81.0988 12.0283 81.2346 12.1395 81.3704C12.1889 81.4198 12.2259 81.4692 12.263 81.5186C12.3494 81.6173 12.4729 81.6791 12.6087 81.6791C12.6458 81.6791 12.6952 81.6791 12.7322 81.6667C14.0783 81.284 16.5235 79.7037 17.5732 78.5309C17.6967 78.3828 17.7214 78.1729 17.6226 78C16.9187 76.7778 16.2148 75.5556 15.5109 74.321L15.4738 74.2963Z" fill="#5DB3C1"/>
<path d="M18.9193 166.296C15.4615 166.333 12.0901 166.074 8.71868 166.049C8.61988 166.049 8.52109 165.975 8.43464 165.938C8.40994 165.852 8.37289 165.778 8.37289 165.716C12.3988 141.321 16.4247 116.926 20.4383 92.605C20.7346 92.2716 21.031 92.3581 21.3151 92.3827C23.7109 92.5679 26.1066 92.7531 28.5148 92.9259C30.5524 93.0741 32.6024 93.2346 34.6401 93.3457C37.184 93.4815 39.7404 93.5679 42.2844 93.679C42.5684 93.6914 42.8524 93.7284 43.1859 93.7655C43.3094 94.0741 43.4452 94.3704 43.544 94.6667C44.8036 98.1111 45.7916 101.63 46.6807 105.185C48.1133 110.889 49.5335 116.605 50.9166 122.333C52.2503 127.852 53.3988 133.395 54.325 139C54.9795 142.926 55.6217 146.864 56.1651 150.815C56.6344 154.222 56.9554 157.654 57.3383 161.086C57.4494 162.086 57.5729 163.086 57.6594 164.086C57.6964 164.469 57.7952 164.864 57.6717 165.247C57.4247 165.506 57.1283 165.42 56.8443 165.42C55.1524 165.457 53.4729 165.469 51.781 165.519C50.6326 165.556 49.4841 165.63 48.3356 165.691C48.0886 165.691 47.8416 165.691 47.5452 165.691C47.4958 165.469 47.4094 165.272 47.4094 165.074C47.2982 162.309 46.8783 159.58 46.5572 156.827C45.878 151.198 44.8777 145.617 43.7416 140.049C42.8154 135.543 41.8151 131.062 40.469 126.667C39.728 124.235 38.9253 121.815 38.0362 119.42C36.4431 115.148 34.7759 110.914 33.1211 106.667C32.7753 105.765 32.3678 104.877 31.9726 104C31.8368 103.704 31.6762 103.432 31.4786 103.173C31.2934 102.914 31.0217 102.852 30.6265 103.012C30.5648 103.185 30.4289 103.395 30.3919 103.63C29.9473 106.025 29.5151 108.432 29.0828 110.827C28.3295 114.963 27.5886 119.086 26.8353 123.222C26.156 126.963 25.4645 130.704 24.7852 134.444C24.0072 138.679 23.2416 142.914 22.4759 147.161C21.7226 151.296 20.9816 155.42 20.2407 159.556C19.8702 161.605 19.4997 163.654 19.1292 165.704C19.0922 165.877 19.0181 166.037 18.9316 166.296H18.9193Z" fill="#5DB3C1"/>
<path d="M59.1413 62.074C58.4621 60.9382 57.7952 59.7901 57.0913 58.6543C54.8931 55.1234 52.7443 51.5431 50.1756 48.2592C48.5331 46.1604 46.7301 44.2098 44.7542 42.432C43.3711 41.1851 41.7286 40.5555 39.9627 40.1234C39.1846 39.9382 38.3943 39.9135 37.6039 40.0123C36.1343 40.1975 34.7142 40.5555 33.331 41.074C30.0708 42.2962 26.934 43.8147 23.8343 45.4073C21.8214 46.4444 19.8825 47.5925 17.919 48.7283C15.8937 49.8888 13.8931 51.0864 11.8925 52.2715C11.6331 52.432 11.2873 52.5308 11.1638 52.9506C12.8928 56.6419 15.1033 60.037 18.1413 62.9135C19.7096 61.8765 21.241 60.8765 22.7846 59.8518C22.7846 59.8271 22.797 59.8024 22.8093 59.7777C22.9205 59.8024 23.0316 59.8148 23.1428 59.8394C23.2169 60.0987 23.328 60.3456 23.4886 60.5678C23.4762 60.6172 23.4639 60.6789 23.4515 60.7283C22.7723 63.8518 22.1425 66.9752 21.5373 70.111C21.0187 72.7901 20.5617 75.4814 20.0801 78.1604C19.9319 78.9752 19.8455 79.7901 19.7343 80.5555C19.9566 80.9752 20.1295 81.3209 20.3395 81.6666C21.4756 83.5555 20.784 85.7407 19.3639 86.7777C19.191 86.9012 19.0304 87.0493 18.8205 87.2098C18.6599 88.3209 18.487 89.4567 18.4253 90.6049C18.4253 90.8024 18.4376 91.0123 18.45 91.2345C18.8328 91.2715 19.1539 91.3209 19.4626 91.3456C22.4389 91.5555 25.4027 91.7777 28.3789 91.9876C30.3425 92.1234 32.3184 92.2715 34.2819 92.395C35.8256 92.4938 37.3693 92.5925 38.9006 92.6543C41.0124 92.7407 43.1241 92.7901 45.2359 92.8394C45.4334 92.8394 45.631 92.7654 45.8163 92.716C45.8533 92.5431 45.878 92.4444 45.8904 92.3456C45.9521 89.5802 46.0262 86.8147 46.088 84.0617C46.1497 81.4073 46.1868 78.753 46.2485 76.0987C46.2732 74.8394 46.2979 73.5925 46.3349 72.3333C46.3349 72.2839 46.3349 72.2345 46.3349 72.1851C46.4337 71.9999 46.5078 71.8024 46.5572 71.5925C46.5572 71.5925 46.5572 71.5802 46.5572 71.5678C46.6313 71.2222 46.6437 70.8641 46.5696 70.5061C46.5572 70.358 46.5449 70.2098 46.5325 70.0617C46.8536 70.7777 47.1747 71.4814 47.4834 72.2098C47.5575 72.395 47.7181 72.5431 47.8292 72.7036C48.0268 72.6172 48.1627 72.5802 48.2862 72.5061C51.9416 70.3826 55.2636 67.8271 58.1163 64.6913C58.6226 64.1357 59.1042 63.5555 59.5118 62.8024C59.3759 62.5308 59.2648 62.3086 59.1413 62.0864V62.074Z" fill="#FFBD5C"/>
<path d="M41.3458 31.1729C40.7901 32.5432 40.1849 33.8395 39.3452 34.9877C38.9253 34.8272 38.9623 34.4445 38.8142 34.1605C38.666 33.8766 38.5919 33.5556 38.3078 33.358C38.0238 33.2346 37.8015 33.3457 37.641 33.5679C37.3322 34.0124 37.0605 34.4815 36.7642 34.9259C36.5666 35.2222 36.4801 35.5926 36.159 35.7778C35.9367 35.7778 35.9491 35.605 35.912 35.4815C35.4551 34.1111 34.7389 32.8642 33.8744 31.7037C32.7506 30.1852 31.9479 28.5062 31.4786 26.679C30.8364 24.1729 32.022 21.4938 34.3807 20.3704C35.134 20.0124 35.4798 19.6543 35.4304 18.7654C35.3687 17.5062 36.1343 16.5062 37.3693 16.0988C38.0855 15.8642 38.8265 15.7037 39.5675 15.605C41.5681 15.3333 43.4946 14.7408 45.3717 14.0247C46.4831 13.605 47.4958 13 48.4343 12.2469C48.8789 11.8889 49.3358 11.5309 49.8298 11.2469C50.225 11.0247 50.6819 10.8766 51.1265 10.7531C51.3735 10.6914 51.6328 10.7531 51.7934 11C51.9539 11.2346 51.8922 11.4815 51.744 11.7037C51.6081 11.9012 51.4723 12.0988 51.3488 12.2593C51.4476 12.5926 51.6575 12.605 51.8798 12.605C52.4232 12.5803 52.9542 12.5185 53.4976 12.5185C53.8928 12.5185 54.288 12.5679 54.6584 12.679C55.6587 12.9753 55.9551 13.7037 55.4118 14.5803C55.1524 15 54.7819 15.358 54.4732 15.7531C54.3621 15.9136 54.3127 16.1111 54.2386 16.2593C54.5102 16.642 54.856 16.5803 55.1648 16.5926C55.597 16.605 56.0292 16.642 56.3874 17.0741C56.3503 17.2222 56.3627 17.4445 56.2639 17.6173C55.9675 18.1852 55.4735 18.5432 54.9425 18.8395C54.0904 19.3087 53.1889 19.6667 52.2503 19.9259C50.1015 20.5062 47.9527 21.0741 45.8039 21.6543C45.4952 21.7408 45.1741 21.7901 44.8654 21.9012C44.7048 21.9506 44.5813 22.0864 44.4578 22.1729C44.6554 23.8889 44.6801 24.8148 44.5072 25.4445C44.075 28.2593 43.4452 30.4321 41.2964 31.1358L41.3458 31.1729Z" fill="#4F9BA3"/>
<path d="M43.3464 36.1482C42.7413 37.3087 42.8524 38.6914 42.3708 39.963C41.5063 39.7284 40.7036 39.4568 39.8639 39.321C39.0241 39.1852 38.1597 39.2099 37.3075 39.1605C37.2829 39.1111 37.2088 39.0494 37.2211 38.9877C37.4063 37.7037 37.8139 36.4938 38.1473 35.1852C38.6166 35.4074 38.5301 36.1111 39.0859 36.1482C39.4934 36.1605 39.7404 35.8889 39.9256 35.5803C40.432 34.7161 40.9383 33.8519 41.4199 32.9753C41.6422 32.5679 41.8274 32.1358 42.0374 31.6914H42.9389C43.0006 31.5309 43.05 31.3827 43.0994 31.2716C43.013 31.1605 42.9883 31.0864 42.9265 31.0494C42.803 30.9753 42.6795 30.9136 42.5437 30.8642C41.778 30.5679 41.457 29.963 41.3582 29.2099C41.2347 28.2222 41.4323 27.284 41.8521 26.3827C41.9633 26.1605 42.1238 25.963 42.2967 25.7778C42.7166 25.358 43.1735 25.358 43.6304 25.7778C44.1738 26.2716 44.3097 26.9383 44.322 27.642C44.322 27.9259 44.2726 28.2099 44.2479 28.4321C44.4208 28.7778 44.6431 28.8025 44.9765 28.642C45.0383 28.4692 45.1618 28.2469 45.2112 28.0124C45.4335 26.8889 45.5076 25.7408 45.4829 24.5926C45.4705 23.9506 45.347 23.321 45.4952 22.6173C46.6807 22.321 47.8539 22.0247 49.0765 21.7161C49.1506 21.8272 49.2124 21.9136 49.2618 22.0124C50.8054 25 51.2871 28.1111 50.4103 31.3951C50.1262 32.4815 49.6446 33.4815 48.9283 34.358C48.0762 35.3951 47.0018 36.0741 45.6557 36.2222C45.31 36.2593 44.9395 36.2222 44.5937 36.1975C44.2109 36.1605 43.828 36.0247 43.3464 36.1729V36.1482Z" fill="#FFC9B5"/>
<path d="M58.2645 173.321C57.8817 173.741 57.5235 173.802 57.1777 173.914C55.6588 174.395 54.0904 174.531 52.522 174.642C52.1268 174.667 51.744 174.58 51.3365 174.42C51.0771 171.827 50.8178 169.235 50.5461 166.58C51.7193 166.309 52.9419 166.481 54.1398 166.346C55.313 166.21 56.4985 166.296 57.7088 166.296C58.1039 167.494 57.9311 168.691 58.0669 169.839C58.2027 171 58.2027 172.185 58.2521 173.321H58.2645Z" fill="#FFC9B5"/>
<path d="M14.8687 81.1975C15.7455 80.5555 16.5852 79.9506 17.425 79.3456C17.5115 79.2839 17.6226 79.2716 17.7831 79.2098C18.5735 80.4074 19.3515 81.6049 19.8825 82.9382C20.2901 83.9629 19.8578 84.8271 19.2527 85.6296C19.0922 85.8518 18.8452 86.037 18.6106 86.1851C17.4003 86.9506 16.153 87.679 14.8069 88.1605C14.3377 88.3333 13.8313 88.395 13.3497 88.4814C12.9792 88.5432 12.6334 88.4074 12.3371 88.1975C11.6208 87.6913 11.275 86.9629 11.2009 86.0987C11.1762 85.8271 11.2997 85.6172 11.559 85.4814C11.8801 85.4074 12.0901 85.5926 12.3 85.8024C12.5223 86.0246 12.7446 86.2839 13.0039 86.4567C13.2633 86.6296 13.5473 86.6049 13.7572 86.2098C13.6955 86.0493 13.6214 85.8642 13.5349 85.679C13.0533 84.679 13.5102 83.6049 14.5723 83.2839C14.844 83.1975 15.128 83.1605 15.4244 83.0864C15.5232 82.8765 15.6096 82.6913 15.7084 82.4814C15.5849 82.2592 15.4738 82.037 15.3503 81.8271C15.2268 81.6172 15.0663 81.4321 14.9057 81.1975H14.8687Z" fill="#FFC9B5"/>
<path d="M15.8566 167.197C15.7949 168.21 15.6961 169.123 15.5726 170.037C15.4491 170.963 15.3503 171.889 15.2392 172.852C15.0663 172.914 14.9181 173.012 14.7452 173.025C12.8434 173.086 10.9416 173.136 9.03977 173.185C8.94098 173.185 8.84218 173.148 8.74339 173.123C8.71869 172.247 9.37321 168.21 9.71899 167.074C10.3735 166.889 11.0527 167.099 11.7196 167.074C12.3988 167.049 13.078 167.074 13.7696 167.111C14.4365 167.148 15.1157 167.086 15.8443 167.197H15.8566Z" fill="#FFC9B5"/>
<path opacity="0.1" d="M31.4786 103.161C31.4786 103.161 41.5187 119.074 45.7422 140.531C49.978 162 49.657 166.259 49.657 166.259H47.1006C47.1006 166.259 45.6311 133.765 31.4786 103.148V103.161Z" fill="black"/>
<path opacity="0.1" d="M49.657 166.259L58.2645 165.827V167.42L50.5585 170.457L49.657 166.259Z" fill="black"/>
<path opacity="0.1" d="M43.3464 93.4074L24.1307 92.074L25.4274 51.4938L21.1298 57.0864C19.6973 58.9382 17.0916 59.395 15.1157 58.1358L12.7075 56.5925L10.5834 53.1111L11.6208 62.4444L15.0539 60.0123L18.2895 63.4444L23.2786 60.0123L19.6109 79.5185L19.0922 80.037C19.0922 80.037 20.7717 81.6419 19.0181 83.8518C16.5482 87.5061 12.0036 87.9259 12.0036 87.9259C13.5473 90.6049 18.2277 86.8148 18.2277 86.8148V91.7777L20.006 92.0987L16.2518 115.309L7.86658 166.296H9.36086L8.76808 169.654L16.4247 168.037L16.4865 166.667L10.2006 166.296L22.1672 101.58C22.8094 98.1234 25.7362 95.5555 29.2557 95.395L43.3711 94.7283L43.9145 94.6049L43.3711 93.4074H43.3464Z" fill="black"/>
<path opacity="0.1" d="M60.2033 66.4074C60.2033 66.4074 58.2151 71.1111 54.3127 72.9259L52.1515 70.5556C52.1515 70.5556 56.7578 67.5062 58.9807 64.4568L60.2033 66.4198V66.4074Z" fill="black"/>
<path d="M55.7082 15.7407C55.9922 15.8642 56.2515 15.9506 56.4985 16.0864C57.2889 16.5185 57.4865 17.1975 57.0419 18C56.7455 18.5432 56.3133 18.9877 55.7822 19.3086C55.2636 19.6173 54.7202 19.9259 54.1521 20.1358C53.2136 20.4938 52.2503 20.7654 51.2871 21.0741C50.8795 21.2099 50.472 21.3333 50.0521 21.4568C49.9904 21.8025 50.1756 22.0247 50.2991 22.2716C51.2006 24.2593 51.6699 26.358 51.6205 28.5432C51.5835 30.1358 51.2994 31.679 50.6079 33.1358C50.2003 33.9877 49.694 34.7654 49.0148 35.4198C47.8663 36.5185 46.5078 37.0741 44.9148 37C44.5937 36.9877 44.2726 36.963 43.8898 36.9506C43.5687 38.0741 43.3587 39.1852 43.2353 40.2716C43.3217 40.3827 43.3464 40.4568 43.4081 40.4938C45.31 41.642 46.8289 43.2222 48.3109 44.8395C50.756 47.4815 52.8431 50.4074 54.7573 53.4568C56.4985 56.2222 58.1904 59.0247 59.8946 61.8025C59.9687 61.9259 60.0304 62.0617 60.1045 62.1728C60.4133 62.6173 60.3515 63.0494 60.0551 63.4691C59.8699 63.7284 59.7094 64.0124 59.5118 64.3087C60.0428 65.3827 60.7097 66.358 61.3271 67.358C61.9199 68.321 62.4509 69.3333 63.266 70.3333C63.4389 69.0988 63.6118 68 63.7476 66.9136C63.9823 65.0988 64.1798 63.284 64.4268 61.4691C64.8097 58.6914 65.2419 55.9259 65.6371 53.1605C65.8223 51.8395 65.9582 50.5185 66.1187 49.2099C66.2422 48.2469 66.4027 47.2963 66.5386 46.3333C66.6127 45.8272 66.8473 45.358 67.1684 44.9877C67.6377 44.4444 68.1193 43.9136 68.675 43.4568C70.3792 42.0741 72.2193 40.8889 74.1952 39.9259C74.6521 39.7037 75.0597 39.4074 75.5289 39.2222C75.9612 39.0494 76.4181 38.9506 76.875 38.8642C77.2826 38.7901 77.6654 38.8642 77.9371 39.2222C78.2458 39.642 78.0853 40.0494 77.863 40.4321C77.5543 40.963 77.0973 41.3827 76.6033 41.7407C75.5783 42.4815 74.7262 43.4074 73.7753 44.2346C73.7259 44.284 73.7012 44.358 73.6271 44.4691C73.7753 44.5926 73.9112 44.7531 74.0717 44.8642C74.4792 45.1605 74.8991 45.4321 75.3067 45.7284C75.566 45.9259 75.813 46.1358 76.0229 46.3827C76.554 46.9877 76.6651 47.6667 76.2699 48.3704C76.0229 48.8025 75.7636 49.2469 75.4302 49.6173C74.7509 50.358 74.0223 51.0494 73.3061 51.7531C72.9479 52.0988 72.5527 52.4198 72.1699 52.7531C71.9106 53.7407 71.8859 54.7407 71.9229 55.7901C72.1823 55.9136 72.4416 56.037 72.6639 56.1358C72.9232 56.4198 72.9356 56.7407 72.9232 57.0741C72.8368 58.7901 72.7627 60.5185 72.6515 62.2346C72.4787 64.7778 72.0711 67.2963 71.6759 69.8148C71.182 72.9383 70.5892 76.037 69.7247 79.0864C69.4901 79.9136 69.1567 80.7037 68.6874 81.4445C67.7241 82.9506 66.3286 83.7408 64.5874 83.8642C64.0687 83.9012 63.5253 83.7408 63.0067 83.6049C61.5247 83.1852 60.2774 82.3457 59.1783 81.284C57.7458 79.9136 56.5232 78.3704 55.4859 76.6667C54.4856 75.0124 53.4606 73.358 52.4356 71.7161C52.3244 71.5432 52.1886 71.3827 52.0404 71.1728C50.4226 71.9877 49.1136 73.3087 47.2488 73.7531C47.0389 75.8889 47.15 78.0741 47.1006 80.2469C47.0512 82.4691 46.9648 84.6914 46.9154 86.9259C46.8783 89.1111 46.866 91.3086 46.8413 93.4198C46.6807 93.7531 46.4585 93.8395 46.1868 93.8395C45.8286 93.8395 45.4705 93.8148 45.1124 93.8395C44.8654 93.8395 44.6307 93.8889 44.322 93.9136C44.3591 94.1358 44.3591 94.3086 44.4085 94.4691C46.5325 100.395 47.928 106.531 49.447 112.617C50.7066 117.63 51.8922 122.654 53.016 127.704C53.8557 131.519 54.5844 135.37 55.2636 139.222C55.9057 142.864 56.4738 146.519 56.9678 150.185C57.4247 153.531 57.7705 156.889 58.141 160.235C58.3509 162.123 58.5238 164.025 58.6967 165.914C58.8079 167.198 58.8696 168.494 58.9561 169.778C59.0301 170.951 59.1166 172.136 59.203 173.358C59.6229 173.469 59.9934 173.568 60.3762 173.667C62.7103 174.235 64.8714 175.161 66.7362 176.691C67.6377 177.42 68.3786 178.296 68.9591 179.309C69.3789 180.037 69.6506 180.802 69.5518 181.63C69.3789 181.963 69.1196 182.062 68.8232 182.086C68.5762 182.099 68.3169 182.099 68.0699 182.099C64.4392 182.111 60.8085 182.123 57.1777 182.148C55.4118 182.148 53.6582 182.198 51.9045 182.21C51.5217 182.21 51.1142 182.284 50.7066 181.988C50.6819 181.864 50.6079 181.704 50.6079 181.531C50.6079 178.691 50.4597 175.864 50.225 173.037C50.0892 171.395 49.9286 169.753 49.7557 168.111C49.7063 167.654 49.5952 167.198 49.4964 166.704C49.2494 166.679 49.0518 166.642 48.8419 166.654C48.4097 166.679 47.9774 166.716 47.5575 166.753C46.9895 166.802 46.5819 166.593 46.3597 165.975C46.5943 165.333 46.5078 164.605 46.4338 163.901C46.2609 162.111 46.0633 160.333 45.8533 158.556C45.6187 156.63 45.3717 154.704 45.063 152.79C44.569 149.704 44.0627 146.63 43.4946 143.556C42.7413 139.457 41.8151 135.395 40.8024 131.358C39.6786 126.852 38.1967 122.469 36.5542 118.148C35.2946 114.864 34.035 111.58 32.7506 108.309C32.4048 107.407 32.022 106.519 31.6392 105.617C31.5404 105.395 31.4169 105.185 31.3057 104.975C31.034 105.037 31.0093 105.222 30.9847 105.395C30.466 108.259 29.9597 111.111 29.4286 113.975C28.8235 117.333 28.1937 120.679 27.5886 124.037C26.9093 127.741 26.2425 131.457 25.5756 135.161C24.8099 139.358 24.0443 143.568 23.2786 147.765C22.5994 151.469 21.9325 155.185 21.2657 158.889C20.8705 161.037 20.4877 163.198 20.1048 165.358C20.006 165.926 19.9196 166.494 19.8208 167.123C19.6726 167.185 19.4874 167.333 19.2898 167.346C18.8205 167.37 18.3512 167.346 17.8943 167.321C17.5732 167.309 17.2521 167.21 16.9434 167.383C16.6717 168.074 16.363 170.37 16.2024 172.963C16.4371 173.062 16.684 173.185 16.9434 173.259C18.0548 173.568 19.1169 174 20.1048 174.593C21.0928 175.198 21.9819 175.926 22.6612 176.877C23.4639 177.988 23.8837 179.222 23.822 180.605C23.7973 181.259 23.6738 181.877 23.2292 182.432C23.0563 182.457 22.8711 182.494 22.6982 182.494C17.4127 182.395 12.1395 182.296 6.85392 182.198C6.75512 182.198 6.65632 182.123 6.56988 182.099C6.31054 181.877 6.27349 181.605 6.32289 181.309C6.45873 180.494 6.56988 179.679 6.71807 178.864C7.32319 175.284 7.92831 171.716 8.53343 168.136C8.58283 167.827 8.59518 167.494 8.61988 167.123C8.2 167.049 7.82952 166.975 7.40964 166.889C7.38494 166.654 7.31084 166.444 7.33554 166.259C7.70602 163.988 8.08886 161.728 8.45934 159.457C8.92861 156.63 9.39789 153.79 9.86717 150.963C10.3364 148.136 10.8057 145.296 11.275 142.469C11.7443 139.667 12.2012 136.877 12.6581 134.074C13.2139 130.741 13.7696 127.42 14.313 124.086C14.9181 120.444 15.5108 116.79 16.116 113.136C16.7334 109.42 17.3509 105.704 17.9684 101.988C18.4747 98.9383 18.9687 95.9012 19.475 92.8519C19.4874 92.7531 19.475 92.642 19.475 92.4691C18.8946 92.3457 18.3142 92.2346 17.672 92.0988C17.6226 91.8395 17.5361 91.6049 17.5485 91.3704C17.5979 90.6173 17.6843 89.8642 17.7584 89.1235C17.7831 88.8025 17.8078 88.4815 17.8202 88.1605C17.8202 88.0988 17.7708 88.037 17.709 87.9012C17.388 88.0617 17.0792 88.2099 16.7581 88.3704C15.7949 88.8395 14.8193 89.284 13.7325 89.4691C13.041 89.5803 12.4358 89.4691 11.8801 89.1235C10.7563 88.4074 10.2377 87.3457 10.25 86.037C10.25 85.1482 10.8798 84.5803 11.6825 84.642C11.7937 84.642 11.8925 84.6543 12.0036 84.6543C12.0777 84.6543 12.1395 84.6296 12.2136 84.6296C12.4852 84.1729 12.6828 83.6543 13.041 83.2716C13.3868 82.8889 13.8807 82.642 14.35 82.284C14.2142 82.1235 14.0907 81.9753 13.9672 81.8395C13.4361 82 12.9669 82.1482 12.4852 82.2716C12.3617 82.3086 12.2012 82.2469 12.0036 82.2346C11.8184 82 11.6084 81.7531 11.4355 81.4815C9.87952 79.0741 8.36054 76.6296 6.75512 74.2469C4.93976 71.5679 3.34668 68.7531 1.76596 65.9383C1.25964 65.037 0.852105 64.0741 0.395177 63.1358C0.33343 63.0124 0.296382 62.8642 0.234635 62.7284C-0.308739 61.4074 -0.0617512 60.1852 0.75331 59.0741C1.08674 58.6173 1.51897 58.2222 1.96355 57.8519C2.43283 57.4691 2.9515 57.1358 3.47018 56.8025C8.39759 53.642 13.288 50.4198 18.4006 47.5556C21.4139 45.8642 24.4271 44.2222 27.5515 42.7407C29.9843 41.5926 32.4419 40.4938 35.0476 39.7531C35.3934 39.6543 35.7392 39.5679 36.0603 39.4938C36.4431 38.7037 36.7395 37.5432 36.8136 36.5185C36.6407 36.7531 36.5172 36.9259 36.3813 37.0864C36.2455 37.2593 36.122 37.4198 35.9615 37.6173C35.7886 37.5926 35.628 37.5802 35.5045 37.5679C35.4428 37.4568 35.381 37.3951 35.3687 37.3333C35.2822 35.5802 34.5042 34.0864 33.5286 32.6914C32.8865 31.7778 32.2566 30.8642 31.7627 29.8642C31.2563 28.8272 30.8612 27.7531 30.6142 26.6296C29.9103 23.5926 31.7256 21.0864 33.6398 19.9259C33.9115 19.7531 34.2078 19.6173 34.5289 19.4444C34.5536 19.2222 34.5907 18.9753 34.603 18.7284C34.6895 17 35.6527 15.9383 37.2211 15.4074C38.0362 15.1358 38.9006 15 39.7404 14.8642C41.8398 14.5309 43.8651 13.9136 45.8039 13.0494C46.6313 12.679 47.3476 12.1481 48.0762 11.6049C48.6443 11.1728 49.2494 10.7778 49.8669 10.4074C50.2991 10.1482 50.7931 10.037 51.3118 10.0494C52.0898 10.0741 52.4356 10.321 52.6579 11.0494C52.7196 11.2593 52.7443 11.4691 52.7937 11.7407C53.0654 11.7654 53.3494 11.7778 53.6211 11.8148C54.1151 11.8889 54.6338 11.9136 55.0907 12.0741C56.3997 12.5185 56.7579 13.6296 56.2392 14.8519C56.1033 15.1728 55.881 15.4691 55.6835 15.8272L55.7082 15.7407ZM18.9193 166.296C19.0057 166.037 19.0798 165.877 19.1169 165.704C19.4874 163.654 19.8578 161.605 20.2283 159.556C20.9816 155.42 21.7226 151.284 22.4636 147.161C23.2292 142.926 24.0072 138.691 24.7729 134.444C25.4521 130.704 26.1437 126.963 26.8229 123.222C27.5762 119.086 28.3172 114.963 29.0705 110.827C29.5027 108.42 29.935 106.025 30.3795 103.63C30.4166 103.395 30.5524 103.173 30.6142 103.012C30.997 102.852 31.2687 102.914 31.4663 103.173C31.6515 103.432 31.8244 103.716 31.9603 104C32.3554 104.889 32.763 105.765 33.1087 106.667C34.7636 110.914 36.4307 115.161 38.0238 119.42C38.913 121.802 39.7157 124.222 40.4566 126.667C41.7904 131.062 42.803 135.543 43.7292 140.049C44.8654 145.605 45.8657 151.185 46.5449 156.827C46.8783 159.568 47.2982 162.309 47.397 165.074C47.397 165.272 47.4835 165.469 47.5329 165.691C47.8292 165.691 48.0762 165.691 48.3232 165.691C49.4717 165.642 50.6202 165.556 51.7687 165.519C53.4606 165.469 55.1401 165.457 56.832 165.42C57.1036 165.42 57.4124 165.494 57.6594 165.247C57.7829 164.864 57.6717 164.482 57.647 164.086C57.5606 163.086 57.4371 162.086 57.3259 161.086C56.9431 157.667 56.622 154.235 56.1527 150.815C55.6094 146.864 54.9672 142.938 54.3127 139C53.3865 133.407 52.238 127.852 50.9042 122.333C49.5211 116.617 48.1133 110.901 46.6684 105.185C45.7792 101.63 44.7913 98.1111 43.5316 94.6667C43.4205 94.3704 43.297 94.0741 43.1735 93.7654C42.8401 93.7284 42.556 93.6914 42.272 93.679C39.728 93.5679 37.1717 93.4815 34.6277 93.3457C32.5901 93.2346 30.5401 93.0741 28.5024 92.9259C26.1066 92.7531 23.7109 92.5556 21.3027 92.3827C21.0187 92.358 20.7223 92.2716 20.4259 92.6049C16.4124 116.914 12.3864 141.309 8.36054 165.716C8.36054 165.778 8.39759 165.852 8.42229 165.938C8.50874 165.975 8.60753 166.049 8.70633 166.049C12.0777 166.086 15.4491 166.346 18.9069 166.296H18.9193ZM59.5118 62.7901C59.3759 62.5185 59.2648 62.2963 59.1413 62.0741C58.4621 60.9383 57.7952 59.7901 57.0913 58.6543C54.8931 55.1235 52.7443 51.5432 50.1756 48.2593C48.5332 46.1605 46.7301 44.2099 44.7542 42.4321C43.3711 41.1852 41.7286 40.5556 39.9627 40.1235C39.1847 39.9383 38.3943 39.9136 37.6039 40.0123C36.1344 40.1975 34.7142 40.5556 33.331 41.0741C30.0708 42.2963 26.934 43.8148 23.8343 45.4074C21.8214 46.4444 19.8825 47.5926 17.919 48.7284C15.8937 49.8889 13.8931 51.0864 11.8925 52.2716C11.6331 52.4321 11.2874 52.5309 11.1639 52.9506C12.8928 56.642 15.1033 60.037 18.1413 62.9136C19.7096 61.8765 21.241 60.8765 22.7846 59.8519C22.8711 59.5432 22.9699 59.2469 23.044 58.9259C23.4021 57.4691 23.7479 56 24.1307 54.5432C24.3901 53.5309 24.6 52.5185 24.6988 51.4815C24.7112 51.3457 24.7235 51.1975 24.7606 51.0617C24.8099 50.8272 24.9458 50.7901 25.378 50.8765C25.3904 51.0617 25.4274 51.2716 25.4274 51.4815C25.4274 52.3827 25.2422 53.2593 25.0322 54.1358C24.5012 56.3333 23.9208 58.5185 23.4392 60.7284C22.7599 63.8519 22.1301 66.9753 21.525 70.1111C21.0063 72.7901 20.5494 75.4815 20.0678 78.1605C19.9196 78.9753 19.8331 79.7901 19.722 80.5556C19.9443 80.9753 20.1172 81.321 20.3271 81.6667C21.4633 83.5556 20.7717 85.7408 19.3515 86.7778C19.1786 86.9012 19.0181 87.0494 18.8081 87.2099C18.6476 88.321 18.4747 89.4568 18.413 90.6049C18.413 90.8025 18.4253 91.0124 18.4377 91.2346C18.8205 91.2716 19.1416 91.321 19.4503 91.3457C22.4265 91.5556 25.3904 91.7778 28.3666 91.9877C30.3301 92.1235 32.306 92.2716 34.2696 92.3951C35.8133 92.4938 37.3569 92.5926 38.8883 92.6543C41 92.7408 43.1118 92.7901 45.2235 92.8395C45.4211 92.8395 45.6187 92.7654 45.8039 92.7161C45.841 92.5432 45.8657 92.4445 45.878 92.3457C45.9398 89.5803 46.0139 86.8148 46.0756 84.0617C46.1374 81.4074 46.1744 78.7531 46.2362 76.0988C46.2609 74.8395 46.2856 73.5926 46.3226 72.3333C46.335 71.8148 46.2485 71.3457 46.0262 70.8766C45.6928 70.1975 45.3964 69.5062 45.0753 68.8272C43.8157 66.2099 42.5437 63.5926 41.2964 60.9753C41.1482 60.6543 41 60.321 40.9012 59.9753C40.8395 59.7531 40.9012 59.5432 41.1729 59.4568C41.5804 59.5062 41.6422 59.8519 41.778 60.1358C43.6304 64.1852 45.7545 68.0988 47.4958 72.1975C47.5699 72.3827 47.7304 72.5309 47.8416 72.6914C48.0392 72.6049 48.175 72.5679 48.2985 72.4938C51.9539 70.3704 55.2759 67.8148 58.1286 64.679C58.635 64.1235 59.1166 63.5432 59.5241 62.7901H59.5118ZM51.3735 12.2716C51.4847 12.1111 51.6329 11.9136 51.7687 11.7161C51.9169 11.4938 51.9786 11.2469 51.8181 11.0123C51.6576 10.7778 51.3982 10.7037 51.1512 10.7654C50.7066 10.8889 50.2497 11.0247 49.8545 11.2593C49.3606 11.5432 48.9036 11.9012 48.4591 12.2593C47.5329 13.0123 46.5078 13.6173 45.3964 14.037C43.5193 14.7531 41.5928 15.3457 39.5922 15.6173C38.8512 15.7161 38.0979 15.8765 37.394 16.1111C36.1591 16.5185 35.381 17.5185 35.4551 18.7778C35.5045 19.6667 35.1464 20.0247 34.4054 20.3827C32.0467 21.5062 30.8488 24.1852 31.5033 26.6914C31.9726 28.5185 32.7753 30.1975 33.8991 31.7161C34.7636 32.8765 35.4675 34.1235 35.9368 35.4938C35.9738 35.6049 35.9615 35.7901 36.1838 35.7901C36.5048 35.6049 36.5913 35.2346 36.7889 34.9383C37.0853 34.4938 37.3569 34.0247 37.6657 33.5802C37.8139 33.358 38.0485 33.2469 38.3325 33.3704C38.6166 33.5556 38.6907 33.8765 38.8389 34.1728C38.9747 34.4444 38.9377 34.8395 39.3699 35C40.2097 33.8395 40.8148 32.5556 41.3705 31.1852C40.9506 30.642 40.6666 30.037 40.5801 29.3457C40.4443 28.1728 40.6419 27.0494 41.1853 26C41.3828 25.6296 41.6916 25.2963 42.0127 25.0247C42.5437 24.5679 43.2106 24.5679 43.8157 24.9383C44.075 25.0988 44.322 25.2963 44.5937 25.4938C44.7542 24.8642 44.7419 23.9383 44.5443 22.2222C44.6678 22.1358 44.7913 22 44.9518 21.9506C45.2606 21.8395 45.5816 21.7901 45.8904 21.7037C48.0392 21.1235 50.188 20.5556 52.3368 19.9753C53.2753 19.7161 54.1768 19.358 55.0289 18.8889C55.5723 18.5926 56.0663 18.2222 56.3503 17.6667C56.4368 17.4938 56.4368 17.2716 56.4738 17.1235C56.1157 16.6914 55.6958 16.6543 55.2512 16.642C54.9301 16.6296 54.5967 16.6914 54.325 16.3086C54.3868 16.1605 54.4362 15.9506 54.5597 15.8025C54.856 15.3951 55.2389 15.0494 55.4982 14.6296C56.0292 13.7407 55.7452 13.0247 54.7449 12.7284C54.3744 12.6173 53.9669 12.5679 53.5841 12.5679C53.0407 12.5679 52.5097 12.6296 51.9663 12.6543C51.744 12.6543 51.5341 12.6543 51.4353 12.3086L51.3735 12.2716ZM58.9067 65.1852C58.7091 65.3086 58.6103 65.3457 58.5362 65.4198C56.9184 67.1605 55.1401 68.7161 53.263 70.1728C53.1271 70.2716 53.0283 70.4198 52.9048 70.5679C53.0283 70.8025 53.1148 71 53.2259 71.1728C54.3497 73.0124 55.4735 74.8395 56.6097 76.6667C57.5235 78.1358 58.635 79.4568 59.8946 80.642C60.9196 81.6173 62.0928 82.358 63.4759 82.7531C64.2663 82.9753 65.0567 82.9877 65.7976 82.642C67.0079 82.0988 67.9835 81.2593 68.4651 79.9753C68.6627 79.4445 68.8356 78.8889 68.9961 78.3333C69.6383 76.1235 70.0952 73.8765 70.4657 71.6173C70.9226 68.8272 71.3302 66.0124 71.6759 63.2099C71.8982 61.4321 72.0341 59.642 71.997 57.8395C71.997 57.5309 71.96 57.2099 71.9353 56.8765C71.2684 56.6049 70.6139 56.7284 69.9841 56.6667C69.3048 56.6049 68.6256 56.6049 67.9464 56.6049C67.3042 56.6049 66.6621 56.5556 66.0323 56.8395C65.9952 57.037 65.9458 57.2099 65.9211 57.3827C65.7853 58.4074 65.6494 59.4445 65.5136 60.4815C65.3654 61.6173 65.1925 62.7531 65.0443 63.8889C64.8467 65.3827 64.6615 66.8766 64.4762 68.3704C64.328 69.5432 64.1058 70.7037 64.2046 71.9383C64.4268 72.2716 64.6738 72.6296 64.9085 72.9877C65.1308 73.3086 65.353 73.642 65.563 73.9753C65.6124 74.0617 65.6 74.1852 65.6247 74.321C65.5012 74.4321 65.3654 74.5309 65.2172 74.6667C65.0196 74.5062 64.822 74.3951 64.6985 74.2469C64.4515 73.9383 64.2169 73.6173 64.007 73.2963C62.7473 71.3333 61.5 69.358 60.2527 67.3951C59.8082 66.7037 59.3883 66 58.9067 65.2222V65.1852ZM8.73102 63.8519C9.76837 63.1852 10.7069 62.5926 11.6331 61.9753C12.5593 61.3704 13.5102 60.8025 14.4364 60.1235C13.6955 58.9877 12.9669 57.9259 12.3 56.8272C11.6208 55.6914 11.0157 54.5185 10.3611 53.321C10.1759 53.4074 10.003 53.4691 9.86717 53.5679C7.85422 54.8642 5.81657 56.1605 3.81596 57.4938C3.16144 57.9259 2.55632 58.4568 2.0006 59C0.938551 60.0247 0.617466 61.2469 1.24729 62.6296C1.59307 63.4198 1.93885 64.2099 2.35873 64.9506C3.55662 67.0741 4.71747 69.2222 6.01416 71.284C7.99006 74.4445 10.0648 77.5432 12.1024 80.679C12.2383 80.8765 12.4111 81.0494 12.5593 81.2099C13.819 80.8519 16.2024 79.2963 17.1904 78.1975C14.4364 73.4445 11.7937 68.6049 8.74337 63.8519H8.73102ZM43.3341 36.1482C43.8033 36.0124 44.1862 36.1481 44.5813 36.1728C44.9395 36.1975 45.2976 36.2346 45.6434 36.1975C47.0018 36.0494 48.0639 35.3704 48.916 34.3333C49.6323 33.4568 50.1139 32.4568 50.3979 31.3704C51.2624 28.0988 50.7931 24.9753 49.2494 21.9877C49.2 21.8889 49.1383 21.8025 49.0642 21.6914C47.8292 22 46.656 22.2963 45.4829 22.5926C45.3347 23.2963 45.4458 23.9383 45.4705 24.5679C45.5075 25.7161 45.4334 26.8642 45.1988 27.9877C45.1494 28.2222 45.0259 28.4444 44.9642 28.6173C44.6307 28.7778 44.4085 28.7531 44.2356 28.4074C44.2603 28.1852 44.3097 27.9012 44.3097 27.6173C44.2973 26.9259 44.1615 26.2593 43.6181 25.7531C43.1735 25.3457 42.7042 25.3457 42.2844 25.7531C42.1115 25.9259 41.9386 26.1358 41.8398 26.358C41.4075 27.2469 41.2223 28.1852 41.3458 29.1852C41.4446 29.9506 41.7657 30.5556 42.5313 30.8395C42.6672 30.8889 42.7907 30.9506 42.9142 31.0247C42.9759 31.0617 43.0006 31.1358 43.0871 31.2469C43.05 31.3704 42.9883 31.5185 42.9265 31.6667H42.025C41.8151 32.1111 41.6422 32.5432 41.4075 32.9506C40.9259 33.8272 40.4196 34.6914 39.9133 35.5556C39.728 35.8642 39.4934 36.1358 39.0735 36.1235C38.5178 36.0741 38.6042 35.3827 38.135 35.1605C37.8139 36.4691 37.394 37.6914 37.2088 38.963C37.2088 39.0123 37.2705 39.0864 37.2952 39.1358C38.1597 39.1852 39.0118 39.1605 39.8515 39.2963C40.6789 39.4321 41.494 39.7037 42.3584 39.9383C42.8401 38.6667 42.7289 37.284 43.3341 36.1235V36.1482ZM10.0524 64.0988C10.1265 64.2346 10.2006 64.3951 10.287 64.5432C11.6578 66.8642 13.041 69.1728 14.3994 71.4938C15.7825 73.8519 17.1286 76.2222 18.4994 78.5803C18.6352 78.8148 18.697 79.1358 19.0922 79.2099C20.0678 73.2593 21.241 67.3457 22.4265 61.4445C22.4265 61.3827 22.3895 61.3086 22.3524 61.1728C22.1672 61.2716 21.9696 61.3333 21.809 61.4568C20.7346 62.1852 19.6726 62.9012 18.6105 63.642C18.4006 63.7901 18.2154 63.9506 17.8202 63.8395C17.0916 63.037 16.2889 62.1728 15.4861 61.3086C15.3256 61.1358 15.128 60.9877 14.9675 60.8395C13.4238 61.6914 10.6699 63.5185 10.0524 64.0988ZM22.7229 181.432C23.1057 180.099 22.8711 178.963 22.2907 177.889C21.8708 177.123 21.2904 176.494 20.5988 175.951C19.5368 175.123 18.3512 174.531 17.0669 174.173C16.6223 174.049 16.153 173.951 15.6961 173.951C13.6831 173.963 11.6825 174.025 9.66958 174.074C9.28675 174.074 8.89157 174.148 8.55813 174.185C8.47169 174.321 8.40994 174.37 8.39759 174.432C8.03946 176.58 7.68132 178.741 7.32319 180.901C7.32319 180.938 7.32319 180.975 7.32319 181.012C7.33554 181.037 7.37259 181.062 7.45904 181.148C11.1886 181.395 14.9798 181.321 18.7711 181.42C20.0554 181.457 21.3398 181.481 22.7106 181.42L22.7229 181.432ZM51.5958 181.185C52.0651 181.185 52.4232 181.185 52.7813 181.185C55.5476 181.185 58.3139 181.161 61.0801 181.161C63.303 181.161 65.5383 181.161 67.7612 181.161C68.0329 181.161 68.3169 181.111 68.6009 181.086C68.6256 180.407 68.3539 179.901 68.0329 179.42C67.5142 178.642 66.9214 177.926 66.1805 177.333C64.0564 175.63 61.5988 174.704 58.9684 174.259C56.622 175.185 54.2386 175.593 51.7563 175.519C51.6329 175.519 51.497 175.593 51.3612 175.642C51.497 177.469 51.4353 179.259 51.6082 181.185H51.5958ZM71.997 44.1975C72.3305 44.0247 72.7133 43.9012 73.0097 43.6667C74.1705 42.7037 75.2943 41.7037 76.4305 40.7161C76.6898 40.4815 76.9985 40.2716 77.085 39.8395C76.9368 39.8272 76.8009 39.7654 76.6774 39.8025C76.307 39.9136 75.9118 40.0247 75.566 40.2099C73.3678 41.358 71.219 42.5802 69.2925 44.1481C68.9838 44.3951 68.6874 44.6667 68.4157 44.9383C67.897 45.4568 67.5389 46.0617 67.4401 46.8148C67.2919 47.9136 67.1067 49.0124 66.9461 50.1111C66.7362 51.5679 66.5509 53.0247 66.3533 54.4815C66.3039 54.8642 66.2669 55.2469 66.2175 55.6173C67.1067 55.7654 70.1693 55.7778 70.8732 55.642C71.1079 54.9877 71.0832 54.2963 71.0832 53.6296C71.0832 52.7161 71.4166 52.0494 72.1576 51.5309C72.4539 51.321 72.7256 51.0864 72.985 50.8395C73.6148 50.2099 74.257 49.5802 74.8497 48.9136C75.2079 48.5185 75.5042 48.0617 75.6031 47.5679C75.5166 47.0494 75.1832 46.7531 74.825 46.5062C74.1211 46.0247 73.3925 45.5679 72.6639 45.0988C72.4786 44.9877 72.2687 44.9136 72.0958 44.7901C71.8982 44.6543 71.8488 44.4445 71.9723 44.2099L71.997 44.1975ZM58.2645 173.321C58.2151 172.198 58.2151 171.012 58.0792 169.84C57.9434 168.679 58.1039 167.494 57.7211 166.296C56.5109 166.296 55.3253 166.21 54.1521 166.346C52.9542 166.482 51.7316 166.309 50.5585 166.58C50.8301 169.235 51.0895 171.827 51.3488 174.42C51.7563 174.58 52.1268 174.667 52.5344 174.642C54.1027 174.531 55.6711 174.395 57.1901 173.914C57.5359 173.802 57.894 173.741 58.2768 173.321H58.2645ZM14.8687 81.1975C15.0416 81.4321 15.1898 81.6296 15.3133 81.8272C15.4491 82.037 15.5479 82.2593 15.6714 82.4815C15.5726 82.7037 15.4861 82.8889 15.3874 83.0864C15.091 83.1482 14.8069 83.1975 14.5352 83.284C13.4732 83.6049 13.0163 84.679 13.4979 85.679C13.5843 85.8642 13.6584 86.0617 13.7202 86.2099C13.5102 86.5926 13.2262 86.6296 12.9669 86.4568C12.7075 86.284 12.4976 86.037 12.263 85.8025C12.053 85.5926 11.8431 85.4074 11.522 85.4815C11.2627 85.6173 11.1392 85.8272 11.1639 86.0988C11.238 86.963 11.5961 87.6914 12.3 88.1975C12.5964 88.4074 12.9422 88.5432 13.3127 88.4815C13.8066 88.3951 14.313 88.3333 14.7699 88.1605C16.1283 87.6667 17.3633 86.9506 18.5735 86.1852C18.8081 86.037 19.0551 85.8519 19.2157 85.6296C19.8084 84.8272 20.2407 83.963 19.8455 82.9383C19.3145 81.5926 18.5365 80.4074 17.7461 79.2099C17.5855 79.2716 17.4744 79.284 17.388 79.3457C16.5482 79.9506 15.7084 80.5679 14.8316 81.1975H14.8687ZM15.8566 167.198C15.128 167.074 14.4488 167.136 13.7819 167.111C13.1027 167.074 12.4111 167.037 11.7319 167.074C11.0651 167.099 10.3858 166.889 9.73133 167.074C9.37319 168.198 8.73102 172.247 8.75572 173.123C8.85452 173.148 8.95331 173.185 9.05211 173.185C10.9539 173.136 12.8557 173.086 14.7575 173.025C14.9181 173.025 15.0786 172.914 15.2515 172.852C15.3627 171.889 15.4614 170.963 15.5849 170.037C15.7084 169.123 15.8072 168.198 15.869 167.198H15.8566Z" fill="#1F2ADE"/>
<path d="M19.4503 24.5062C18.2648 22.7284 16.7087 21.5185 14.7452 20.6543C15.2515 20.2346 15.6837 19.9136 16.0542 19.5309C16.4 19.1729 16.7087 18.7655 16.9681 18.3334C17.2398 17.8766 17.4497 17.3827 17.6843 16.8889C18.5117 17.4939 19.3145 18.0988 20.1295 18.6667C20.9569 19.2222 21.9325 19.4815 22.9452 19.8889C22.5624 20.2963 22.2536 20.6173 21.9572 20.963C21.6238 21.3457 21.3027 21.7284 21.0063 22.1358C20.7223 22.5062 20.4877 22.9136 20.2283 23.2963C19.969 23.6667 19.8331 24.1235 19.4503 24.5062Z" fill="#FFBD5C"/>
<path d="M24.8717 10.5555C25.2051 10.0864 25.5385 9.6666 25.8102 9.20981C26.0819 8.75302 26.3042 8.27154 26.5635 7.77771C27.144 8.16043 27.6873 8.58018 28.2801 8.90117C28.8482 9.20981 29.4533 9.40734 30.1078 9.67894C29.8608 10.2468 29.3792 10.6419 29.0952 11.1728C28.8111 11.7036 28.5271 12.2222 28.206 12.8024C27.8602 12.432 27.5885 12.0987 27.2675 11.8271C26.9093 11.5308 26.5141 11.2715 26.1066 11.0493C25.7361 10.8518 25.3163 10.716 24.8717 10.5308V10.5555Z" fill="#FFBD5C"/>
<path d="M24.6124 34.7655C24.2666 34.4198 23.9702 34.1358 23.6491 33.8025C23.9208 33.4692 24.2048 33.1111 24.5259 32.7037C24.8717 33.0494 25.1804 33.3704 25.5015 33.6914C25.2422 34.1358 24.8964 34.4321 24.6 34.7655H24.6124Z" fill="#FFBD5C"/>
<path d="M24.8223 19.6296C24.6864 19.7777 24.563 19.9629 24.4024 20.074C22.2042 21.6049 20.7593 23.6789 19.9196 26.2098C19.8702 26.3456 19.8455 26.4938 19.759 26.6049C19.6849 26.716 19.5614 26.8518 19.4503 26.8641C19.3021 26.8641 19.1416 26.7654 18.9563 26.7036C19.0551 25.2715 18.2771 24.3086 17.3509 23.4197C16.2395 22.3703 14.9428 21.6419 13.4608 21.2345C13.2632 21.1851 13.0657 21.0987 12.8681 21.0123C12.8063 20.9876 12.7816 20.9012 12.7322 20.8394C12.6705 20.5431 12.8434 20.358 13.0533 20.2221C13.2015 20.1234 13.3744 20.074 13.5473 20.0123C15.5849 19.3456 16.5605 17.8394 16.8693 15.8024C16.9187 15.4814 16.931 15.1604 16.9557 14.8024C17.178 14.7654 17.3632 14.7283 17.5361 14.6913C17.6226 14.79 17.6843 14.8394 17.709 14.9012C18.0919 15.9505 18.8328 16.716 19.722 17.358C21.031 18.2839 22.4512 18.9259 24.0566 19.0987C24.2542 19.1234 24.4518 19.2221 24.637 19.3333C24.7111 19.3703 24.7358 19.5184 24.7976 19.6542L24.8223 19.6296ZM19.4503 24.5184C19.8331 24.1357 19.969 23.6789 20.2283 23.3086C20.4876 22.9259 20.7346 22.5184 21.0063 22.1481C21.3027 21.7407 21.6238 21.358 21.9572 20.9752C22.2536 20.6296 22.5747 20.3086 22.9452 19.9012C21.9325 19.4938 20.9569 19.2345 20.1295 18.6789C19.3021 18.1234 18.5117 17.5061 17.6843 16.9012C17.4497 17.3826 17.2521 17.8888 16.9681 18.3456C16.7087 18.7777 16.4 19.1851 16.0542 19.5431C15.6837 19.9259 15.2515 20.2345 14.7452 20.6666C16.6964 21.5308 18.2648 22.7283 19.4503 24.5184Z" fill="#1F2ADE"/>
<path d="M28.6877 14.8642C28.5642 14.9383 28.4407 15.0123 28.3419 15.0741C28.0208 15.037 27.8726 14.8518 27.7985 14.5926C27.7244 14.321 27.6627 14.037 27.5515 13.7778C26.9217 12.4321 25.835 11.716 24.3901 11.4938C24.106 11.4568 23.8096 11.4691 23.538 11.4197C23.2786 11.3704 23.081 11.2222 23.0563 10.9259C23.081 10.5926 23.3527 10.4568 23.5874 10.2963C24.353 9.77777 24.8964 9.07406 25.3039 8.27159C25.6127 7.65431 25.8226 7.02468 25.7115 6.30863C25.6868 6.14814 25.7732 5.9753 25.7979 5.83949C26.0943 5.64196 26.3166 5.69134 26.5265 5.88888C26.5759 5.93826 26.6253 5.99999 26.65 6.06172C27.4404 7.71604 28.91 8.35801 30.5648 8.76542C30.9106 8.85184 31.2563 8.93826 31.6392 9.02468C31.6886 9.23456 31.738 9.43209 31.7997 9.65431C29.972 10.9383 29.0705 12.7531 28.6877 14.8765V14.8642ZM24.8717 10.5555C25.3163 10.7407 25.7238 10.8642 26.1066 11.0741C26.5142 11.2963 26.9093 11.5555 27.2675 11.8518C27.5886 12.1234 27.8603 12.4568 28.206 12.8271C28.5271 12.2346 28.8235 11.716 29.0952 11.1975C29.3792 10.6667 29.8609 10.2716 30.1078 9.70369C29.4657 9.43209 28.8482 9.22221 28.2801 8.92591C27.6874 8.60493 27.144 8.19752 26.5636 7.80246C26.3042 8.29628 26.0943 8.77777 25.8103 9.23456C25.5386 9.69135 25.2051 10.1111 24.8717 10.5802V10.5555Z" fill="#1F2ADE"/>
<path d="M21.9449 33.4815C22.1672 33.4074 22.3277 33.3333 22.4883 33.2839C23.1057 33.074 23.5009 32.6419 23.7479 32.0493C23.8467 31.8148 23.9331 31.5802 24.069 31.3827C24.1554 31.2469 24.3283 31.1605 24.5259 31.0247C24.7235 31.1975 24.9828 31.321 25.0693 31.5185C25.3904 32.2716 25.8967 32.8395 26.5759 33.2839C26.6006 33.3086 26.6253 33.3333 26.65 33.358C26.8723 33.5926 26.8723 33.9135 26.65 34.1234C26.5759 34.1975 26.4895 34.2592 26.403 34.321C25.7979 34.7284 25.3657 35.2963 25.0199 35.9259C24.9581 36.0494 24.8717 36.1605 24.7606 36.321C24.5753 36.321 24.3777 36.3456 24.2172 36.3456C24.1307 36.2469 24.0566 36.1975 24.0319 36.1358C23.7726 35.2098 23.2292 34.5555 22.266 34.2963C22.1672 34.2716 22.0807 34.1975 21.9943 34.1358C21.8831 34.0617 21.8708 33.9506 21.9325 33.4691L21.9449 33.4815ZM24.6124 34.7654C24.9087 34.4321 25.2545 34.1358 25.5139 33.6913C25.1928 33.3703 24.8717 33.0494 24.5383 32.7037C24.2048 33.1111 23.9208 33.4691 23.6615 33.8024C23.9825 34.1234 24.2789 34.4197 24.6247 34.7654H24.6124Z" fill="#1F2ADE"/>
<path d="M43.8898 106.79C43.7292 106.926 43.581 107.062 43.4576 107.173C43.0253 107.037 42.9389 106.728 42.8277 106.42C42.482 105.407 42.1238 104.383 41.7657 103.37C41.1112 101.469 40.4567 99.5803 39.8021 97.6791C39.691 97.3457 39.5922 97 39.481 96.642C39.6539 96.4939 39.7774 96.3828 39.938 96.2469C40.0985 96.3828 40.2591 96.4692 40.3579 96.605C40.4443 96.7161 40.469 96.8642 40.5184 97C41.5928 100.086 42.6548 103.161 43.7169 106.247C43.7786 106.407 43.8157 106.58 43.8774 106.79H43.8898Z" fill="#1F2ADE"/>
<path d="M138.671 185.074C137.325 185.074 136.313 184.457 135.683 183.296C134.855 181.778 134.93 180.247 135.905 178.815C136.671 177.691 137.758 177.136 139.141 177.284C140.474 177.432 141.376 178.185 141.932 179.383C142.685 181 142.29 182.951 141.018 184.136C140.363 184.753 139.585 185.074 138.684 185.074H138.671ZM141.339 181.173C141.401 180.37 141.141 179.691 140.647 179.086C140.129 178.457 139.128 177.877 137.93 178.358C136.794 178.815 136.202 179.716 136.103 180.926C135.992 182.21 136.424 183.259 137.585 183.901C138.326 184.309 139.104 184.272 139.845 183.852C140.87 183.259 141.314 182.333 141.339 181.185V181.173Z" fill="#1F2ADE"/>
<path d="M102.994 185.506C101.599 185.506 100.623 184.926 99.9437 183.84C99.0175 182.358 99.1781 180.346 100.277 179C101.883 177.062 104.735 177.309 105.97 179.506C106.884 181.148 106.575 183.284 105.217 184.556C104.562 185.173 103.784 185.506 102.982 185.494L102.994 185.506ZM105.563 181.161C105.587 180.716 105.316 179.963 104.698 179.358C103.97 178.642 103.093 178.407 102.142 178.79C101.006 179.247 100.413 180.148 100.314 181.358C100.203 182.642 100.635 183.691 101.796 184.333C102.537 184.741 103.315 184.704 104.056 184.272C105.069 183.679 105.526 182.753 105.575 181.161H105.563Z" fill="#1F2ADE"/>
<path d="M100.512 126.198C100.438 124.864 100.833 117.988 101.03 117.111C101.648 117.074 102.278 117 102.92 116.988C105.365 116.926 107.798 116.901 110.243 116.84C113.046 116.778 115.837 116.691 118.641 116.617C120.864 116.556 123.087 116.469 125.309 116.407C128.076 116.333 130.83 116.259 133.596 116.185C134.238 116.161 134.88 116.099 135.535 116.074C135.745 116.074 135.942 116.111 136.165 116.123C136.177 116.284 136.214 116.395 136.189 116.494C135.905 118.012 135.843 119.556 135.473 121.062C135.14 122.42 134.991 123.815 134.856 125.21C134.831 125.457 134.769 125.691 134.732 125.926C134.337 126.173 133.929 126.086 133.546 126.099C130.817 126.111 128.088 126.111 125.359 126.123C117.492 126.148 109.638 126.185 101.771 126.222C101.376 126.222 100.993 126.222 100.524 126.222L100.512 126.198Z" fill="#D1A76B"/>
<path d="M136.856 119.296C139.869 119.074 142.907 119.037 145.859 119.086C146.106 119.284 146.069 119.481 146.032 119.642C145.538 121.593 145.204 123.568 144.537 125.469C144.488 125.605 144.426 125.728 144.389 125.84C143.673 126.037 140.61 126.123 136.646 126.049C136.374 126.049 136.103 125.988 135.831 125.963C135.831 124.407 136.362 120.951 136.856 119.284V119.296Z" fill="#FFBD5C"/>
<path d="M83.8648 118.827C83.5437 118.914 83.2473 119.037 82.9386 119.086C81.4196 119.333 79.8883 119.518 78.3446 119.617C76.875 119.704 75.4178 119.914 73.9606 120.049C72.6762 120.173 71.3919 120.284 70.1076 120.358C69.6877 120.383 69.2555 120.272 68.8356 120.185C68.5392 120.123 68.3663 119.876 68.2552 119.593C68.1317 119.309 68.2181 119.012 68.4651 118.827C68.5515 118.765 68.638 118.704 68.7368 118.667C70.3298 118.025 71.9476 117.42 73.6889 117.284C74.294 117.235 74.8991 117.111 75.5042 117.049C76.3934 116.963 77.2826 116.864 78.1841 116.852C79.5055 116.827 80.8392 116.876 82.1606 116.889C82.7657 116.889 83.2844 117.111 83.7043 117.543C84.0253 117.876 84.1859 118.247 83.8771 118.815L83.8648 118.827Z" fill="#B57341"/>
<path opacity="0.1" d="M140.956 118.593L140.116 126.197L135.831 125.975L136.856 119.296L140.956 118.593Z" fill="black"/>
<path opacity="0.1" d="M100.623 122.235L136.177 121.136L135.325 126.975L99.3386 126.197L100.623 122.235Z" fill="black"/>
<path d="M141.327 181.173C141.302 182.321 140.845 183.247 139.832 183.839C139.104 184.272 138.313 184.296 137.572 183.889C136.412 183.247 135.979 182.197 136.09 180.914C136.202 179.716 136.794 178.815 137.918 178.346C139.104 177.864 140.104 178.444 140.635 179.074C141.129 179.679 141.388 180.37 141.327 181.16V181.173ZM139.561 181.049C139.561 180.617 139.363 180.346 139.042 180.309C138.634 180.259 138.252 180.494 138.116 180.864C137.968 181.284 138.202 181.753 138.634 181.889C138.993 182 139.425 181.728 139.524 181.321C139.548 181.222 139.548 181.111 139.561 181.049Z" fill="#5DB3C1"/>
<path d="M105.563 181.161C105.513 182.753 105.069 183.679 104.044 184.272C103.315 184.704 102.525 184.741 101.784 184.333C100.623 183.691 100.178 182.642 100.302 181.358C100.401 180.16 100.993 179.247 102.13 178.79C103.093 178.407 103.97 178.642 104.686 179.358C105.303 179.963 105.587 180.728 105.55 181.161H105.563ZM103.747 181.556C103.784 181.173 103.402 180.704 102.994 180.63C102.537 180.556 102.117 180.951 102.08 181.469C102.055 181.901 102.34 182.284 102.722 182.321C103.179 182.358 103.698 181.963 103.747 181.543V181.556Z" fill="#5DB3C1"/>
<path d="M101.018 176.543C100.722 176.247 100.672 175.839 100.574 175.469C99.7091 171.951 98.857 168.42 97.9802 164.914C96.7329 159.901 95.5844 154.852 94.1642 149.889C93.7196 148.333 93.3862 146.753 92.954 145.198C92.25 142.605 91.5091 140.012 90.7805 137.42C89.9284 134.383 89.0886 131.333 88.2488 128.284C87.619 126 86.9892 123.716 86.347 121.432C86.2112 120.951 86.0506 120.469 85.8531 120.012C85.6925 119.617 85.5443 119.21 85.1244 119.012C85.0627 119.025 85.0133 119.025 85.0009 119.049C84.3464 119.827 83.4202 119.988 82.494 120.111C80.8886 120.321 79.2955 120.518 77.6778 120.593C76.7145 120.63 75.7512 120.802 74.788 120.901C73.0714 121.086 71.3549 121.284 69.6259 121.235C69.2431 121.235 68.8479 121.148 68.4651 121.037C68.0699 120.926 67.7859 120.642 67.5636 120.296C66.9832 119.358 67.2672 118.309 68.2675 117.864C69.0826 117.506 69.9347 117.198 70.7868 116.938C71.5401 116.716 72.3181 116.543 73.0961 116.444C74.7015 116.235 76.307 116.025 77.9124 115.926C79.2338 115.852 80.5675 115.914 81.9012 115.938C82.704 115.963 83.4943 116.099 84.0994 116.691C84.4329 117.012 84.6922 117.395 85.0997 117.877C86.0383 118.185 86.557 119.074 86.8781 120.099C87.335 121.605 87.7549 123.136 88.1871 124.654C88.2735 124.963 88.3353 125.284 88.4341 125.593C88.607 126.148 88.7552 126.272 89.3726 126.272C90.126 126.272 90.8793 126.272 91.6326 126.259C93.6826 126.247 95.7326 126.235 97.7826 126.222C98.2766 126.222 98.7829 126.198 99.3263 126.185C99.388 125.938 99.4744 125.741 99.4868 125.543C99.6473 123.185 99.7832 120.815 99.9437 118.444C99.9808 117.839 100.08 117.235 100.141 116.728C100.401 116.333 100.722 116.309 101.055 116.284C102.562 116.21 104.068 116.123 105.575 116.074C108.415 115.975 111.243 115.914 114.084 115.827C117.319 115.716 120.543 115.593 123.778 115.481C126.977 115.37 130.175 115.284 133.361 115.185C134.3 115.16 135.226 115.111 136.165 115.074C136.486 115.062 136.819 115.049 137.054 115.395C136.967 116.333 136.893 117.284 136.807 118.296C137.041 118.333 137.239 118.42 137.437 118.395C139.338 118.16 141.24 118.235 143.142 118.16C143.969 118.136 144.797 118.099 145.624 118.086C146.093 118.086 146.563 118.086 146.983 118.272C147.217 118.457 147.291 118.679 147.23 118.951C146.76 120.901 146.291 122.852 145.809 124.802C145.723 125.148 145.612 125.481 145.501 125.889C145.76 125.926 145.97 125.975 146.168 125.975C147.205 125.975 148.255 125.975 149.292 125.975C149.588 125.975 149.872 126 150.045 126.37C149.959 126.852 149.798 127.358 149.576 127.839C145.772 136.123 141.969 144.42 138.177 152.704C138.005 153.086 137.795 153.469 137.597 153.864C137.301 153.889 137.054 153.938 136.807 153.938C135.152 153.963 133.497 153.988 131.855 154.012C128.804 154.062 125.754 154.123 122.691 154.185C118.567 154.272 114.43 154.358 110.305 154.444C106.859 154.518 103.414 154.58 99.9561 154.654C99.0175 154.679 98.0913 154.716 97.1528 154.753C96.9799 154.753 96.807 154.802 96.56 154.839C96.5229 155.222 96.6464 155.556 96.7205 155.889C97.3627 158.543 98.0172 161.185 98.6594 163.839C99.5115 167.321 100.351 170.815 101.191 174.296C101.302 174.753 101.45 175.185 101.561 175.605C101.944 175.827 102.315 175.753 102.673 175.741C105.612 175.679 108.564 175.605 111.503 175.556C113.009 175.531 114.516 175.531 116.035 175.494C119.629 175.432 123.222 175.346 126.804 175.284C130.397 175.21 133.991 175.136 137.585 175.074C137.869 175.074 138.165 175.049 138.449 175.099C138.597 175.123 138.721 175.284 138.832 175.37C138.82 175.728 138.659 175.889 138.375 175.926C138.165 175.951 137.943 175.951 137.733 175.963C134.362 176.037 130.978 176.099 127.606 176.173C126.211 176.198 124.803 176.21 123.408 176.235C119.851 176.309 116.294 176.383 112.738 176.444C109.181 176.518 105.624 176.593 102.068 176.654C101.71 176.654 101.352 176.704 101.006 176.531L101.018 176.543ZM100.512 126.21C100.969 126.21 101.364 126.21 101.759 126.21C109.626 126.173 117.48 126.148 125.346 126.111C128.076 126.111 130.805 126.111 133.534 126.086C133.917 126.086 134.324 126.173 134.72 125.914C134.757 125.691 134.818 125.444 134.843 125.198C134.979 123.802 135.127 122.407 135.461 121.049C135.831 119.543 135.893 118 136.177 116.481C136.189 116.383 136.165 116.272 136.152 116.111C135.942 116.086 135.732 116.049 135.522 116.062C134.88 116.086 134.238 116.16 133.583 116.173C130.817 116.259 128.063 116.321 125.297 116.395C123.074 116.457 120.851 116.543 118.628 116.605C115.825 116.679 113.034 116.765 110.231 116.827C107.786 116.889 105.353 116.914 102.908 116.975C102.265 116.988 101.636 117.062 101.018 117.099C100.821 117.975 100.425 124.852 100.499 126.185L100.512 126.21ZM143.204 139.556C145.056 135.518 146.921 131.444 148.773 127.37C148.81 127.284 148.798 127.173 148.81 127.074C148.526 126.802 148.18 126.901 147.884 126.901C145.982 126.914 144.08 126.951 142.179 126.975C141.104 126.975 140.018 126.975 138.943 126.975C138.746 126.975 138.536 127.025 138.289 127.062C138.103 131.136 138.042 135.148 137.992 139.16C137.992 139.296 138.042 139.432 138.079 139.556C138.943 139.741 142.228 139.741 143.216 139.556H143.204ZM123.889 139.568C124.68 139.691 128.434 139.753 129.768 139.667C129.903 139.667 130.039 139.593 130.237 139.531C130.274 138.123 130.311 136.728 130.323 135.346C130.323 133.988 130.36 132.617 130.348 131.259C130.323 129.877 130.447 128.481 130.348 127.012C129.545 127.012 128.792 127.012 128.051 127.012C127.335 127.012 126.618 127.012 125.902 127.012C125.161 127.037 124.408 126.914 123.692 127.111C123.531 128.37 123.692 138.444 123.902 139.568H123.889ZM102.648 140.704C102.512 140.654 102.451 140.617 102.377 140.617C100.549 140.617 98.7211 140.617 96.8811 140.617C96.7576 140.617 96.6217 140.704 96.4488 140.765C96.4488 141.148 96.4488 141.506 96.4488 141.864C96.4488 144.049 96.4735 146.247 96.4859 148.432C96.4859 149.938 96.4859 151.444 96.4859 152.951C96.4859 153.235 96.4365 153.531 96.7082 153.827C97.6467 153.889 98.647 153.802 99.6473 153.79C100.635 153.778 101.636 153.889 102.661 153.679C102.685 153.395 102.722 153.148 102.722 152.901C102.821 147.531 102.772 141.765 102.624 140.704H102.648ZM130.089 153.049C130.089 152.432 130.113 151.852 130.126 151.284C130.15 149.099 130.163 146.901 130.187 144.716C130.2 143.605 130.249 142.494 130.262 141.383C130.262 141.148 130.2 140.901 130.15 140.593C129.064 140.593 128.026 140.568 126.989 140.593C125.964 140.617 124.927 140.506 123.865 140.679C123.84 140.901 123.803 141.074 123.815 141.247C123.877 145.086 123.939 148.926 124 152.765C124 152.926 124.074 153.086 124.112 153.235C125.038 153.333 129.199 153.21 130.089 153.049ZM122.963 153.259C122.988 152.963 123.025 152.716 123.025 152.469C123 148.889 122.963 145.296 122.926 141.716C122.926 141.37 122.951 141 122.728 140.642C122.568 140.63 122.395 140.593 122.222 140.593C120.543 140.593 118.851 140.605 117.171 140.617C117.109 140.617 117.048 140.679 116.986 140.716C116.961 140.778 116.899 140.839 116.899 140.901C116.838 144.704 116.776 148.494 116.714 152.296C116.714 152.58 116.727 152.864 116.739 153.16C116.739 153.185 116.764 153.222 116.788 153.247C116.813 153.272 116.838 153.309 116.85 153.333C117.542 153.444 121.765 153.395 122.951 153.259H122.963ZM102.735 139.518C102.735 139.185 102.759 138.827 102.759 138.469C102.759 137.136 102.784 135.815 102.784 134.481C102.784 132.259 102.784 130.025 102.784 127.802C102.784 127.605 102.722 127.395 102.673 127.148C101.957 127.049 101.277 127.099 100.598 127.099C99.919 127.099 99.2275 127.062 98.5482 127.123C97.8814 127.185 97.1898 127.086 96.5476 127.247C96.4982 127.407 96.4365 127.506 96.4365 127.605C96.4365 131.481 96.4488 135.358 96.4612 139.247C96.4612 139.346 96.5229 139.444 96.56 139.568C96.6958 139.605 96.8317 139.667 96.9675 139.667C98.7582 139.667 100.561 139.667 102.352 139.654C102.451 139.654 102.549 139.58 102.722 139.518H102.735ZM115.776 153.296C115.788 153 115.825 152.691 115.825 152.37C115.825 151.432 115.825 150.506 115.85 149.568C115.874 146.802 115.899 144.037 115.912 141.272C115.912 141.074 115.85 140.864 115.813 140.617C114.837 140.568 113.899 140.58 112.972 140.593C112.021 140.617 111.058 140.481 110.07 140.691C110.046 140.951 110.021 141.16 110.021 141.37C109.984 143.42 109.934 145.457 109.91 147.506C109.885 149.235 109.897 150.951 109.897 152.679C109.897 152.963 109.836 153.259 110.07 153.494C111.589 153.667 114.825 153.568 115.8 153.296H115.776ZM110.033 139.556C111.243 139.741 115.059 139.716 115.899 139.531C115.936 138.518 115.986 137.481 116.01 136.457C116.035 135.42 116.035 134.383 116.035 133.346C116.035 132.309 116.035 131.272 116.047 130.222C116.047 129.198 116.171 128.173 115.998 127.099C115.306 127.025 114.664 127.062 114.034 127.049C113.392 127.049 112.738 127.037 112.096 127.049C111.466 127.062 110.824 126.975 110.144 127.136C109.996 128.679 110.083 130.185 110.058 131.679C110.021 134.284 109.971 136.901 110.021 139.556H110.033ZM131.188 139.568C131.953 139.753 132.596 139.667 133.238 139.679C133.843 139.691 134.46 139.704 135.065 139.679C135.695 139.654 136.35 139.802 137.004 139.531C137.325 135.481 137.165 131.432 137.375 127.395C137.375 127.296 137.313 127.198 137.264 127.049C136.646 126.877 135.992 126.988 135.362 126.963C134.683 126.951 134.003 126.938 133.324 126.963C132.694 126.988 132.052 126.839 131.41 127.099C131.262 131.247 131.212 135.358 131.2 139.556L131.188 139.568ZM117.122 127.074C116.924 128.198 116.838 138.432 117.011 139.568C117.134 139.605 117.27 139.667 117.406 139.667C119.098 139.667 120.777 139.667 122.469 139.654C122.568 139.654 122.667 139.58 122.753 139.556C122.79 139.469 122.827 139.407 122.827 139.333C122.802 135.457 122.765 131.58 122.728 127.704C122.728 127.494 122.642 127.296 122.593 127.074H117.134H117.122ZM131.175 140.716C131.175 141.123 131.151 141.481 131.138 141.839C131.101 144.346 131.052 146.852 131.015 149.37C131.002 150.407 131.002 151.444 131.015 152.494C131.015 152.691 131.101 152.901 131.151 153.148C132.867 153.148 134.547 153.185 136.239 153.062C136.399 153.062 136.56 152.963 136.745 152.901C136.77 152.506 136.794 152.148 136.794 151.79C136.831 150.148 136.856 148.494 136.893 146.852C136.93 144.988 136.992 143.123 137.029 141.259C137.029 141.062 136.955 140.864 136.918 140.679C135.708 140.556 132.114 140.58 131.175 140.728V140.716ZM109.033 139.63C109.07 139.272 109.119 139.037 109.132 138.79C109.144 138.247 109.132 137.716 109.144 137.173C109.169 134.16 109.193 131.148 109.206 128.136C109.206 127.79 109.329 127.42 108.971 127.062C107.378 127.062 105.723 127.037 104.081 127.123C103.994 127.123 103.908 127.222 103.821 127.272C103.686 128.469 103.673 138.691 103.821 139.531C103.883 139.568 103.945 139.642 103.994 139.642C105.353 139.667 106.724 139.679 108.082 139.691C108.366 139.691 108.65 139.654 109.033 139.63ZM108.909 153.568C108.946 153.296 108.971 153.16 108.971 153.025C108.996 149.074 109.033 145.136 109.045 141.185C109.045 141.025 108.996 140.852 108.959 140.63C108.045 140.568 107.193 140.593 106.341 140.605C105.489 140.617 104.636 140.494 103.809 140.704C103.784 140.852 103.747 140.963 103.747 141.062C103.735 145.111 103.723 149.173 103.71 153.222C103.71 153.383 103.797 153.543 103.858 153.716C105.55 153.642 107.205 153.716 108.922 153.568H108.909ZM136.881 119.296C136.387 120.963 135.856 124.42 135.856 125.975C136.115 126.012 136.399 126.062 136.671 126.062C140.635 126.136 143.698 126.049 144.414 125.852C144.463 125.741 144.513 125.605 144.562 125.481C145.229 123.58 145.562 121.593 146.056 119.654C146.093 119.494 146.13 119.296 145.883 119.099C142.92 119.037 139.882 119.086 136.881 119.309V119.296ZM89.0268 127.296C89.0886 127.617 89.1133 127.901 89.1874 128.16C90.163 131.691 91.151 135.21 92.1389 138.728C92.2253 139.025 92.3612 139.321 92.46 139.58C93.8678 139.765 94.8311 139.728 95.5226 139.469C95.535 139.235 95.572 138.988 95.572 138.741C95.572 138.025 95.572 137.309 95.572 136.593C95.572 133.827 95.572 131.062 95.572 128.296C95.572 127.951 95.6708 127.58 95.3991 127.272C94.6952 127.16 90.7681 127.111 89.4714 127.185C89.3356 127.185 89.1997 127.247 89.0268 127.296ZM83.8895 118.827C84.2106 118.259 84.0377 117.889 83.7166 117.556C83.2967 117.123 82.7781 116.901 82.1729 116.901C80.8516 116.889 79.5178 116.839 78.1964 116.864C77.3073 116.877 76.4058 116.975 75.5166 117.062C74.9115 117.123 74.3064 117.247 73.7012 117.296C71.96 117.432 70.3546 118.037 68.7491 118.679C68.6503 118.716 68.5639 118.778 68.4774 118.839C68.2305 119.012 68.144 119.321 68.2675 119.605C68.3787 119.877 68.5515 120.123 68.8479 120.198C69.2678 120.284 69.7 120.395 70.1199 120.37C71.4043 120.296 72.6886 120.185 73.9729 120.062C75.4302 119.926 76.8874 119.716 78.357 119.63C79.9006 119.531 81.4196 119.358 82.9509 119.099C83.2597 119.049 83.5684 118.926 83.8771 118.839L83.8895 118.827ZM137.733 150.975C137.795 150.975 137.869 150.988 137.93 151C138.079 150.716 138.227 150.444 138.35 150.16C139.672 147.296 140.981 144.432 142.29 141.568C142.413 141.296 142.636 141.025 142.537 140.691C141.499 140.543 138.82 140.556 138.042 140.716C138.005 140.778 137.943 140.839 137.943 140.901C137.856 144.049 137.77 147.198 137.684 150.358C137.684 150.568 137.696 150.778 137.708 150.988L137.733 150.975ZM92.7687 140.679C92.8305 141.012 92.8552 141.222 92.9046 141.42C93.3491 143.086 93.7937 144.741 94.2383 146.395C94.5594 147.605 94.8558 148.827 95.1892 150.037C95.251 150.272 95.2386 150.568 95.6338 150.679C95.6091 147.432 95.5844 144.21 95.5473 140.988C95.5473 140.889 95.4732 140.79 95.4238 140.654C94.5841 140.543 93.732 140.543 92.7564 140.667L92.7687 140.679Z" fill="#1F2ADE"/>
<path d="M139.573 181.062C139.573 181.123 139.561 181.235 139.536 181.333C139.425 181.741 139.005 182.012 138.647 181.901C138.215 181.765 137.98 181.309 138.128 180.877C138.264 180.506 138.647 180.272 139.054 180.321C139.363 180.358 139.573 180.63 139.573 181.062Z" fill="#1F2ADE"/>
<path d="M103.747 181.568C103.71 181.988 103.179 182.383 102.722 182.346C102.34 182.309 102.043 181.926 102.08 181.494C102.117 180.975 102.537 180.58 102.994 180.654C103.402 180.716 103.784 181.185 103.747 181.58V181.568Z" fill="#1F2ADE"/>
<path d="M48.632 14.0617C48.385 14.0864 48.1997 14.1852 48.0515 14.3333C47.1747 14.716 46.2609 14.9753 45.31 15.1111C44.6307 15.2099 43.9268 15.321 43.544 15.9753C43.2723 16.4568 43.2847 17.0617 43.6057 17.4938C44.075 18.1234 45.0136 18.1481 45.7298 18.1481C47.0512 18.1481 48.9777 17.8148 49.8545 16.679C50.6326 15.6543 50.0645 13.9259 48.632 14.0494V14.0617Z" fill="#F5F5F5"/>
<path d="M41.1359 17.6543C40.9383 17.395 40.6172 17.4197 40.4073 17.5679C39.691 17.5308 39.0488 18.4444 39.7651 19.0493C40.6913 19.8271 41.8274 18.5555 41.1359 17.6419V17.6543Z" fill="#F5F5F5"/>
<path d="M72.4292 46.679C72.2316 46.1481 72.0711 45.4197 71.6142 45.037C71.4413 44.9012 71.2313 44.8148 71.009 44.7778C70.8732 44.6296 70.6633 44.5555 70.441 44.6667C69.6877 45.0494 69.0331 45.5802 68.4898 46.2469C68.2304 46.5679 68.391 47.0247 68.8232 47.0494C69.8729 47.1234 70.9226 47.1975 71.9723 47.2716C72.2563 47.2963 72.528 46.9506 72.4292 46.679Z" fill="#F5F5F5"/>
<path d="M14.9798 84L14.8563 84.2346C14.5846 84.7778 15.3874 85.2469 15.6714 84.7037L15.7949 84.4691C16.0666 83.9259 15.2639 83.4568 14.9798 84Z" fill="#F5F5F5"/>
<path d="M106.724 44.5679C106.514 42.9259 105.205 42.6049 104.34 43.3827C104.105 43.5061 103.92 43.7284 103.858 44.037C103.784 44.1852 103.723 44.3333 103.673 44.5061C103.599 44.7654 103.649 44.9876 103.747 45.1728C103.587 47.0987 103.402 49.037 103.34 50.9753C103.29 52.395 103.599 53.5926 104.921 54.2963C105.266 54.4815 105.785 54.4691 106.057 54.1481C106.884 53.1728 106.724 52.0617 106.736 50.8148C106.736 48.7901 106.995 46.5802 106.736 44.5679H106.724Z" fill="#F5F5F5"/>
<path d="M107.353 27.5432C107.304 27.074 107.008 26.679 106.526 26.6296C106.402 26.4938 106.242 26.395 106.081 26.3456C105.538 26.1975 105.118 26.5308 104.921 26.9999C104.562 27.8888 105.167 28.8148 106.02 29.0987C106.415 29.2345 106.872 29.0123 107.082 28.6666C107.292 28.3333 107.403 27.9382 107.353 27.5432Z" fill="#F5F5F5"/>
<path d="M105.476 32.8643C105.217 32.8643 104.933 33.0124 104.735 33.2223C104.513 33.3704 104.365 33.605 104.377 33.963C104.39 34.1976 104.402 34.4322 104.414 34.6667C104.476 35.7778 105.871 35.8766 106.267 34.9136C106.402 34.568 106.464 34.1729 106.415 33.8025C106.353 33.2964 106.02 32.8643 105.476 32.8643Z" fill="#F5F5F5"/>
<path d="M69.2061 58.5802C68.8973 58.037 68.3292 58.0246 67.9217 58.2839C67.4648 58.1481 66.9338 58.3209 66.7856 58.9135C66.5633 59.8024 66.5633 60.679 66.7609 61.5802C66.8967 62.2222 67.6253 62.3827 68.144 62.1481C69.453 61.5185 69.8976 59.8148 69.2061 58.5925V58.5802Z" fill="#F5F5F5"/>
<path d="M8.81748 56.074C8.73103 56.0494 8.63224 56.0247 8.52109 56.037C6.18705 56.2098 5.37199 58.2469 3.72952 59.5432C3.34669 59.8395 3.38374 60.5679 3.72952 60.8765C4.65573 61.7037 5.65603 61.2345 6.49579 60.5308C7.70603 59.5185 8.89157 58.4691 10.0771 57.4321C10.9786 56.6543 9.71898 55.3827 8.80513 56.074H8.81748Z" fill="#F5F5F5"/>
</svg>
