<svg width="140" height="200" viewBox="0 0 140 200" fill="none" xmlns="http://www.w3.org/2000/svg">
<g clip-path="url(#clip0_337_1264)">
<path opacity="0.1" d="M88.9278 200C116.726 200 139.261 197.289 139.261 193.944C139.261 190.6 116.726 187.888 88.9278 187.888C61.1295 187.888 38.5945 190.6 38.5945 193.944C38.5945 197.289 61.1295 200 88.9278 200Z" fill="black"/>
<path d="M89.617 0H44.8989C37.8853 0 32.1998 5.68559 32.1998 12.6991V123.206C32.1998 130.22 37.8853 135.906 44.8989 135.906H89.617C96.6305 135.906 102.316 130.22 102.316 123.206V12.6991C102.316 5.68559 96.6305 0 89.617 0Z" fill="white"/>
<path opacity="0.05" d="M92.3173 51.4744C92.3173 66.049 81.0982 77.8669 67.2579 77.8669C53.4177 77.8669 42.1986 66.049 42.1986 51.4744C42.1986 36.8998 53.4177 25.0819 67.2579 25.0819C81.0982 25.0819 92.3173 36.8998 92.3173 51.4744Z" fill="#BAEDB2"/>
<path opacity="0.3" d="M90.035 51.4744C90.035 64.7271 79.8328 75.4604 67.2579 75.4604C54.6831 75.4604 44.4809 64.7158 44.4809 51.4744C44.4809 38.233 54.6831 27.4884 67.2579 27.4884C79.8328 27.4884 90.035 38.233 90.035 51.4744Z" fill="#BAEDB2"/>
<path opacity="0.5" d="M87.8658 51.4744C87.8658 62.8517 78.6352 72.0823 67.2579 72.0823C55.8807 72.0823 46.6501 62.8517 46.6501 51.4744C46.6501 40.0972 55.8807 30.8666 67.2579 30.8666C78.6352 30.8666 87.8658 40.0972 87.8658 51.4744Z" fill="#BAEDB2"/>
<path d="M84.7814 51.4744C84.7814 61.1456 76.9405 68.9978 67.2579 68.9978C57.5754 68.9978 49.7345 61.1569 49.7345 51.4744C49.7345 41.7919 57.5754 33.9509 67.2579 33.9509C76.9405 33.9509 84.7814 41.7919 84.7814 51.4744Z" fill="#BAEDB2"/>
<path d="M73.5284 42.2664C73.5284 42.4132 73.5736 42.5149 73.5397 42.6053C73.2573 43.351 72.9635 44.0854 72.6585 44.8197C72.6133 44.9327 72.5003 45.0231 72.3986 45.1587C72.2065 45.1474 72.0145 45.1474 71.8224 45.1022C71.3366 45.0005 70.8621 44.8762 70.3762 44.7519C69.6419 44.5599 68.9188 44.6729 68.207 44.831C67.2692 45.0344 66.6704 45.7123 66.2072 46.5032C66.0038 46.8534 66.1055 47.2375 66.3654 47.52C66.6591 47.8363 66.9529 48.1527 67.3144 48.39C67.9697 48.8306 68.6702 49.226 69.3594 49.6215C69.8226 49.8813 70.2971 50.1073 70.7717 50.3558C71.0315 50.5027 71.2801 50.6609 71.5286 50.8191C73.8561 52.3217 74.5114 54.5362 74.1046 57.1234C73.8561 58.7052 73.02 59.9593 71.4835 60.6372C70.7039 60.9874 69.9017 61.315 69.0205 61.6992C68.9979 61.767 68.9414 61.959 68.9188 62.1398C68.8962 62.3319 68.9188 62.5352 68.9188 62.7386C68.8962 63.3487 68.6137 63.6199 67.9923 63.6651C67.7664 63.6764 67.5291 63.6764 67.2918 63.6651C66.5349 63.6086 65.7779 63.5408 65.0548 63.4843C64.569 62.9646 64.8853 62.3545 64.682 61.7557C64.4899 61.6766 64.2526 61.5749 64.0154 61.4732C62.8743 60.9987 61.8461 60.3434 60.8632 59.5977C60.6259 59.417 60.3774 59.2475 60.2757 58.9085C60.2418 58.5018 60.5129 58.1855 60.7276 57.8578C60.9423 57.5189 61.1569 57.1912 61.3942 56.8749C61.6315 56.5585 61.767 56.1631 62.1512 56.0049C62.4675 55.9371 62.6709 56.1292 62.8743 56.2874C63.6764 56.9427 64.6029 57.3833 65.5406 57.8126C66.7608 58.3775 67.9245 58.1968 69.0656 57.5641C69.2916 57.4398 69.5063 57.2703 69.687 57.0782C70.3649 56.3891 70.4779 55.553 69.9695 54.7169C69.5854 54.0842 69.0544 53.5758 68.3765 53.2708C67.9584 53.0787 67.5291 52.9092 67.0885 52.7397C65.7101 52.22 64.456 51.4969 63.3036 50.5818C63.2471 50.5366 63.2019 50.5027 63.1454 50.4575C61.3603 48.9323 61.0327 46.5371 62.3094 44.5486C62.7274 43.9046 63.2245 43.3397 63.8459 42.8765C64.0041 42.7635 64.1622 42.6392 64.3656 42.4923C64.3656 41.6111 64.3882 40.7185 64.3995 39.8147C64.5803 39.6904 64.7272 39.5096 64.8966 39.4983C65.8231 39.3966 66.7382 39.3401 67.6647 39.2723C67.7551 39.2723 67.8454 39.3288 67.9697 39.374C68.32 39.9728 67.9245 40.6733 68.1957 41.3399C68.6476 41.4303 69.0882 41.2156 69.5402 41.2721C70.0034 41.3173 70.4666 41.3512 70.9185 41.419C71.3479 41.4868 71.7659 41.5546 72.1839 41.6788C72.6246 41.8031 73.0991 41.8709 73.4945 42.2664H73.5284ZM67.9697 62.716C68.0262 62.6143 68.0714 62.5578 68.0827 62.5014C68.1053 62.3319 68.1053 62.1737 68.1166 62.0042C68.1166 61.7783 68.1166 61.541 68.1505 61.3037C68.1844 60.9987 68.3426 60.784 68.6476 60.7614C69.6419 60.6823 70.4666 60.1626 71.3253 59.7672C72.0823 59.417 72.5907 58.8407 72.9409 58.0838C73.2686 57.372 73.3815 56.6489 73.3815 55.8693C73.3815 54.039 72.7037 52.5816 71.1332 51.5873C70.5457 51.2145 69.9243 50.8981 69.3255 50.5592C68.5233 50.096 67.6986 49.6666 66.9303 49.1469C66.4671 48.8419 66.0603 48.4351 65.6988 48.0058C65.2243 47.4522 65.1565 46.7517 65.4728 46.1303C65.9813 45.1361 66.7495 44.3452 67.8793 44.0402C68.851 43.7803 69.8339 43.7125 70.8282 43.9724C71.201 44.0741 71.5851 44.1192 72.0145 44.1983C72.2065 43.6899 72.3873 43.238 72.5455 42.82C72.4551 42.7183 72.4099 42.6505 72.3647 42.6279C72.1839 42.5488 71.9919 42.481 71.7998 42.4358C70.5909 42.1082 69.382 42.0856 68.1505 42.2776C67.3822 42.3906 67.224 42.2438 67.2692 41.4416C67.2805 41.1817 67.3031 40.9106 67.3031 40.6507C67.3031 40.5264 67.2466 40.4022 67.224 40.2892C66.4558 40.1762 66.049 40.1988 65.3147 40.3909C65.0661 41.2721 65.3824 42.2212 65.0774 43.1137C64.9305 43.2154 64.7949 43.3058 64.6594 43.3962C63.9024 43.8481 63.3375 44.5034 62.9082 45.2604C62.0269 46.7856 62.3093 48.6272 63.6538 49.757C64.2865 50.288 64.9757 50.7739 65.6988 51.158C66.6591 51.6664 67.6873 52.0506 68.6815 52.4912C69.5628 52.8753 70.2181 53.5193 70.7152 54.3215C70.9411 54.6943 71.088 55.1011 71.1219 55.5417C71.1897 56.4681 70.8508 57.2477 70.1616 57.8352C68.7832 59.0102 67.2015 59.2927 65.5067 58.7165C64.569 58.4001 63.699 57.903 62.863 57.3381C62.7048 57.2364 62.524 57.1686 62.3432 57.0782C61.9026 57.6318 61.4846 58.1403 61.236 58.8182C61.3603 58.9085 61.462 58.9876 61.575 59.0667C62.5805 59.7785 63.6086 60.4451 64.7836 60.8405C65.0661 60.9309 65.3712 60.9987 65.518 61.3037C65.7327 61.7218 65.4615 62.2302 65.8005 62.716C66.5123 62.6708 67.2466 62.942 67.981 62.716H67.9697Z" fill="#1F2ADE"/>
<path d="M67.9697 62.716C67.2466 62.942 66.501 62.6708 65.7892 62.716C65.4502 62.2302 65.7214 61.7218 65.5067 61.3037C65.3598 60.9987 65.0548 60.9422 64.7723 60.8405C63.5973 60.4451 62.5692 59.7785 61.5637 59.0667C61.4507 58.9876 61.349 58.9085 61.2247 58.8181C61.4846 58.129 61.8913 57.6318 62.3319 57.0782C62.5127 57.1686 62.6935 57.2364 62.8517 57.3381C63.6764 57.8917 64.5464 58.3888 65.4954 58.7165C67.1902 59.2814 68.7719 58.9989 70.1503 57.8352C70.8395 57.2477 71.1784 56.4681 71.1106 55.5417C71.0767 55.101 70.9411 54.6943 70.7039 54.3215C70.2068 53.5193 69.5402 52.8753 68.6702 52.4912C67.676 52.0505 66.6478 51.6664 65.6875 51.158C64.9644 50.7739 64.2752 50.288 63.6425 49.757C62.2981 48.6272 62.0156 46.7856 62.8968 45.2604C63.3375 44.5034 63.8911 43.8481 64.6481 43.3962C64.7836 43.3171 64.9192 43.2154 65.0661 43.1137C65.3598 42.2211 65.0548 41.2608 65.3034 40.3908C66.0377 40.1988 66.4445 40.1762 67.2127 40.2892C67.2353 40.4021 67.2918 40.5264 67.2918 40.6507C67.2918 40.9106 67.2692 41.1817 67.2579 41.4416C67.2127 42.2437 67.3709 42.3906 68.1392 42.2776C69.3707 42.0856 70.5796 42.1195 71.7885 42.4358C71.9806 42.4923 72.1726 42.5601 72.3534 42.6279C72.4099 42.6505 72.4438 42.7183 72.5342 42.8199C72.376 43.238 72.1952 43.6899 72.0032 44.1983C71.5738 44.1192 71.1897 44.0627 70.8169 43.9724C69.8226 43.7125 68.8397 43.7803 67.868 44.0401C66.7382 44.3339 65.9699 45.1361 65.4615 46.1303C65.1452 46.7404 65.213 47.4522 65.6875 48.0058C66.049 48.4351 66.4671 48.8419 66.919 49.1469C67.6873 49.6666 68.512 50.096 69.3142 50.5592C69.913 50.9094 70.5344 51.2145 71.1219 51.5873C72.6924 52.5816 73.3589 54.039 73.3702 55.8693C73.3702 56.6489 73.2573 57.372 72.9296 58.0838C72.5794 58.8407 72.071 59.4169 71.314 59.7672C70.444 60.1626 69.6193 60.6936 68.6363 60.7614C68.3426 60.784 68.1844 60.9874 68.1392 61.3037C68.1166 61.5297 68.1166 61.767 68.1053 62.0042C68.1053 62.1737 68.094 62.3319 68.0714 62.5013C68.0714 62.5578 68.0149 62.6143 67.9584 62.716H67.9697Z" fill="#F5F5F5"/>
<path d="M75.8219 9.3436H58.7052C57.7562 9.3436 56.9766 8.56403 56.9766 7.61498V7.38902C56.9766 6.43997 57.7562 5.6604 58.7052 5.6604H75.8219C76.771 5.6604 77.5506 6.43997 77.5506 7.38902V7.61498C77.5506 8.56403 76.771 9.3436 75.8219 9.3436ZM58.7052 6.53036C58.2307 6.53036 57.8466 6.9145 57.8466 7.38902V7.61498C57.8466 8.0895 58.2307 8.47364 58.7052 8.47364H75.8219C76.2965 8.47364 76.6806 8.0895 76.6806 7.61498V7.38902C76.6806 6.9145 76.2965 6.53036 75.8219 6.53036H58.7052Z" fill="#1F2ADE"/>
<path d="M67.2579 130.539C65.3373 130.539 63.7781 128.98 63.7781 127.059C63.7781 125.138 65.3373 123.579 67.2579 123.579C69.1786 123.579 70.7378 125.138 70.7378 127.059C70.7378 128.98 69.1786 130.539 67.2579 130.539ZM67.2579 124.438C65.8118 124.438 64.6368 125.613 64.6368 127.059C64.6368 128.505 65.8118 129.68 67.2579 129.68C68.7041 129.68 69.8791 128.505 69.8791 127.059C69.8791 125.613 68.7041 124.438 67.2579 124.438Z" fill="#1F2ADE"/>
<path d="M37.8827 121.817C36.4592 121.817 35.0356 121.839 33.612 121.817C31.2281 121.76 28.8442 121.941 26.4603 121.986C25.6807 121.997 24.8898 122.009 24.1103 122.031C23.5115 122.054 22.9014 122.099 22.3026 122.133C22.1218 122.133 21.9523 122.167 21.7716 122.167C19.0713 122.167 16.371 122.201 13.6708 122.167C11.7162 122.144 9.76161 122.088 7.80703 121.997C6.7789 121.952 5.75076 121.851 4.72263 121.738C4.2707 121.692 3.81878 121.546 3.37815 121.433C2.39521 121.184 1.77381 120.54 1.40097 119.636C1.00554 118.676 0.881256 117.648 0.836064 116.608C0.768275 115.049 0.73438 113.479 0.689188 111.92C0.643995 110.53 0.564908 109.14 0.576206 107.762C0.598802 105.728 0.406734 103.717 0.169472 101.695C0.067789 101.017 0 100.305 0 99.5932C0 97.2771 0.0338945 94.9723 0.0790871 92.6561C0.101683 91.6167 0.338945 90.6112 0.836064 89.6847C1.68343 88.103 2.96012 87.1426 4.80172 87.0184C7.07265 86.8715 9.34358 86.7359 11.6145 86.5664C13.4561 86.4309 15.2977 86.2388 17.1393 86.1258C18.8114 86.0128 20.4836 85.9563 22.1444 85.8998C24.743 85.7982 27.3302 85.6852 29.9288 85.6174C31.488 85.5722 33.0584 85.6174 34.6289 85.5948C37.1935 85.5722 39.7582 85.527 42.3116 85.4931C43.2719 85.4931 44.2323 85.4705 45.1926 85.527C45.8253 85.5609 46.4806 85.64 47.0794 85.8208C48.3335 86.2049 49.2148 87.041 49.7458 88.2612C50.3446 89.6169 50.5932 91.0405 50.6384 92.5206C50.6609 93.3001 50.6835 94.091 50.6722 94.8706C50.6609 97.7177 50.8982 100.554 51.0112 103.401C51.0677 104.892 51.0677 106.395 51.079 107.886C51.079 109.592 51.0677 111.298 51.0338 113.004C51.0112 114.032 50.9321 115.06 50.8869 116.089C50.8643 116.518 50.8756 116.936 50.853 117.365C50.8191 117.828 50.7852 118.28 50.7287 118.744C50.5593 120.088 49.7345 120.902 48.5595 121.421C47.5765 121.862 46.5371 122.077 45.4525 122.043C42.933 121.986 40.4022 121.941 37.8827 121.896C37.8827 121.873 37.8827 121.851 37.8827 121.828V121.817ZM49.8362 98.3504C49.3052 98.3391 48.921 98.3165 48.5256 98.3165C37.9618 98.3617 27.3867 98.4069 16.823 98.4408C13.6256 98.4521 10.4169 98.4408 7.21952 98.4408C5.40052 98.4408 3.59281 98.4408 1.77381 98.4408C1.50266 98.4408 1.2315 98.4973 0.915151 98.5312C0.802169 99.2317 0.869958 99.8644 0.915151 100.497C1.00554 101.412 1.12982 102.327 1.2315 103.254C1.32188 104.169 1.46876 105.095 1.46876 106.011C1.45746 109.423 1.55915 112.846 1.72862 116.258C1.76251 116.891 1.819 117.535 1.92069 118.167C2.23704 120.088 2.97142 120.596 4.60965 120.8C6.02192 120.969 7.44549 121.094 8.85776 121.173C10.2813 121.252 11.7049 121.263 13.1285 121.263C16.2242 121.263 19.3199 121.24 22.4155 121.195C24.0877 121.173 25.7598 121.082 27.4319 121.037C32.019 120.89 36.6173 120.981 41.2044 121.037C42.0179 121.037 42.8426 121.082 43.6561 121.105C44.2549 121.128 44.865 121.184 45.4638 121.184C46.4806 121.195 47.441 120.947 48.3561 120.517C49.0566 120.19 49.6215 119.693 49.791 118.902C49.904 118.348 49.9379 117.772 49.9831 117.207C50.017 116.789 50.0057 116.36 50.0282 115.93C50.0734 115.004 50.1751 114.089 50.1864 113.162C50.2203 111.276 50.2316 109.389 50.209 107.502C50.1864 105.4 50.1299 103.31 50.0508 101.209C50.017 100.294 49.9153 99.3673 49.8362 98.3504ZM49.6328 92.0686C49.1244 92.0686 48.6725 92.0573 48.2092 92.0686C46.2886 92.1251 44.3679 92.1929 42.4472 92.2607C39.9277 92.3398 37.3969 92.4076 34.8774 92.4754C32.2449 92.5432 29.6125 92.6223 26.98 92.69C23.7487 92.7691 20.5062 92.8482 17.2749 92.9273C15.2525 92.9838 13.2188 93.0629 11.1965 93.1194C8.06689 93.1985 4.9373 93.2775 1.80771 93.3566C1.55915 93.3566 1.32188 93.4018 1.09592 93.4357C0.802169 94.4638 0.768275 96.5766 1.02813 97.4918C1.28799 97.5031 1.57044 97.537 1.8416 97.537C7.63756 97.5144 13.4448 97.4918 19.2408 97.4805C27.2173 97.4692 35.1825 97.4805 43.159 97.4692C45.0458 97.4692 46.9326 97.4692 48.8193 97.4466C49.1244 97.4466 49.4633 97.5257 49.7345 97.2997C49.8701 96.3055 49.8249 93.1081 49.6328 92.0799V92.0686ZM49.5989 91.0518C49.4859 89.8881 49.1357 88.939 48.6047 88.0352C48.0963 87.1765 47.2828 86.7359 46.3451 86.5664C45.6107 86.4309 44.865 86.3857 44.1306 86.3631C43.1703 86.3292 42.2099 86.3631 41.2496 86.3857C39.5097 86.4309 37.7697 86.5099 36.0185 86.5212C32.324 86.5438 28.6182 86.4761 24.9237 86.6907C22.6189 86.8263 20.3028 86.8602 17.998 86.9619C16.6874 87.0184 15.3768 87.1426 14.0662 87.2443C11.5128 87.4364 8.95944 87.6398 6.40606 87.8318C5.77336 87.877 5.12936 87.9335 4.49667 87.9787C3.78488 88.0239 3.20868 88.3402 2.67766 88.7922C1.69472 89.6169 1.2315 90.7016 1.07333 91.9444C1.06203 92.0686 1.11852 92.2042 1.15241 92.3963C1.75121 92.3963 2.31612 92.4189 2.88103 92.3963C4.94859 92.3398 7.00486 92.272 9.07242 92.2042C11.5919 92.1364 14.1227 92.0573 16.6422 91.9896C19.591 91.9105 22.5511 91.8314 25.4999 91.7636C27.3528 91.7184 29.1944 91.6845 31.0473 91.6393C34.2786 91.5489 37.5212 91.4359 40.7525 91.3456C43.4527 91.2665 46.1643 91.1987 48.8645 91.1196C49.0679 91.1196 49.2713 91.0744 49.5989 91.0292V91.0518Z" fill="#1F2ADE"/>
<path d="M49.8362 98.3504C49.9153 99.3786 50.0282 100.294 50.0508 101.209C50.1186 103.31 50.1864 105.4 50.209 107.502C50.2316 109.389 50.209 111.276 50.1864 113.162C50.1751 114.089 50.0734 115.004 50.0282 115.93C50.0057 116.36 50.017 116.778 49.9831 117.207C49.9379 117.772 49.904 118.348 49.791 118.902C49.6215 119.693 49.0566 120.201 48.3561 120.517C47.4523 120.947 46.4806 121.195 45.4638 121.184C44.865 121.184 44.2549 121.128 43.6561 121.105C42.8426 121.071 42.0179 121.037 41.2044 121.037C36.6173 120.992 32.019 120.902 27.4319 121.037C25.7598 121.094 24.0877 121.173 22.4156 121.195C19.3199 121.24 16.2242 121.263 13.1285 121.263C11.7049 121.263 10.2813 121.252 8.85776 121.173C7.43419 121.094 6.02192 120.981 4.60965 120.8C2.97142 120.596 2.23704 120.088 1.92069 118.167C1.819 117.535 1.76251 116.902 1.72862 116.258C1.55915 112.846 1.45746 109.434 1.46876 106.011C1.46876 105.095 1.33318 104.169 1.2315 103.254C1.14112 102.339 1.00554 101.424 0.915152 100.497C0.858661 99.8644 0.802171 99.2317 0.915152 98.5312C1.2315 98.4973 1.50266 98.4408 1.77381 98.4408C3.59282 98.4408 5.40052 98.4408 7.21952 98.4408C10.4169 98.4408 13.6256 98.4408 16.823 98.4408C27.3867 98.3956 37.9618 98.3504 48.5256 98.3165C48.9097 98.3165 49.2939 98.3391 49.8362 98.3504ZM45.7124 113.445C45.2604 113.411 44.9102 113.377 44.5712 113.377C40.3457 113.377 36.1089 113.377 31.8834 113.377C31.601 113.377 31.3185 113.4 31.036 113.445C30.8101 113.49 30.6632 113.637 30.6745 113.976C30.7988 114.055 30.9457 114.224 31.1264 114.27C31.3637 114.326 31.6235 114.303 31.8721 114.303C33.6459 114.303 35.431 114.303 37.2048 114.303C39.6565 114.303 42.1082 114.292 44.5599 114.281C44.9441 114.281 45.3508 114.371 45.7237 114.044V113.445H45.7124ZM45.6785 116.958C44.7181 116.958 43.7691 116.936 42.8087 116.958C41.4981 116.992 40.1763 117.071 38.8657 117.117C36.4479 117.207 34.0301 117.275 31.6123 117.354C31.4315 117.354 31.2394 117.343 31.0925 117.41C30.9231 117.49 30.7875 117.659 30.6632 117.772C30.8101 118.292 31.1716 118.314 31.5332 118.303C32.7082 118.258 33.8719 118.201 35.0469 118.145C36.5044 118.088 37.9618 118.009 39.4193 117.964C40.6621 117.919 41.9049 117.919 43.159 117.874C44.0063 117.84 44.8537 117.749 45.6672 117.693C45.9157 117.467 46.0061 117.264 45.6898 116.936L45.6785 116.958ZM45.4864 109.886C45.0797 109.615 44.6842 109.705 44.3001 109.705C42.0292 109.739 39.7582 109.795 37.4873 109.829C35.6344 109.852 33.7928 109.852 31.9512 109.875C31.6348 109.875 31.3072 109.897 30.9909 109.931C30.7649 109.954 30.6067 110.168 30.618 110.383C30.618 110.575 30.8214 110.767 31.036 110.801C31.1377 110.812 31.2507 110.812 31.3524 110.801C35.6909 110.745 40.0181 110.699 44.3566 110.643C44.5712 110.643 44.7859 110.665 44.9893 110.62C45.1813 110.575 45.3621 110.473 45.5881 110.383C45.5429 110.18 45.5203 110.01 45.4977 109.897L45.4864 109.886ZM38.6397 106.903C38.5041 106.44 38.1652 106.451 37.8488 106.451C35.7135 106.485 33.5781 106.519 31.4428 106.553C31.1603 106.553 30.8666 106.575 30.618 106.869C30.6519 107.016 30.7084 107.197 30.7649 107.4C31.0586 107.423 31.3072 107.468 31.5445 107.468C33.1488 107.468 34.7418 107.445 36.3462 107.423C36.9111 107.423 37.4873 107.366 38.0522 107.321C38.3121 107.299 38.5493 107.242 38.6397 106.903Z" fill="#5DB3C1"/>
<path d="M49.6328 92.0687C49.8249 93.0968 49.8701 96.2942 49.7345 97.2884C49.4633 97.5257 49.1244 97.4353 48.8193 97.4353C46.9326 97.4466 45.0458 97.4579 43.159 97.4579C35.1825 97.4579 27.2173 97.4579 19.2408 97.4692C13.4448 97.4692 7.63756 97.5031 1.8416 97.5257C1.55915 97.5257 1.28799 97.4918 1.02813 97.4805C0.768276 96.5653 0.80217 94.4526 1.09592 93.4245C1.32189 93.4019 1.57044 93.3567 1.80771 93.3454C4.9373 93.2663 8.06689 93.1872 11.1965 93.1081C13.2188 93.0516 15.2525 92.9725 17.2749 92.916C20.5062 92.8257 23.7487 92.7579 26.98 92.6788C29.6125 92.611 32.2449 92.5319 34.8774 92.4641C37.3969 92.3963 39.9277 92.3285 42.4472 92.2495C44.3679 92.193 46.2886 92.1252 48.2092 92.0574C48.6725 92.0461 49.1244 92.0574 49.6328 92.0574V92.0687Z" fill="#F5F5F5"/>
<path d="M49.5989 91.0518C49.2826 91.097 49.0792 91.1309 48.8645 91.1422C46.1643 91.2213 43.464 91.2891 40.7525 91.3682C37.5212 91.4586 34.2786 91.5716 31.0473 91.6619C29.1944 91.7184 27.3528 91.741 25.4999 91.7862C22.5511 91.854 19.591 91.9331 16.6422 92.0122C14.1227 92.08 11.5919 92.1478 9.07242 92.2268C7.00486 92.2833 4.94859 92.3624 2.88103 92.4189C2.31612 92.4302 1.75121 92.4189 1.15241 92.4189C1.11852 92.2269 1.05073 92.0913 1.07332 91.967C1.2202 90.7242 1.69472 89.6396 2.67766 88.8148C3.20868 88.3742 3.78488 88.0578 4.49667 88.0013C5.12936 87.9561 5.77336 87.8997 6.40605 87.8545C8.95944 87.6624 11.5128 87.459 14.0662 87.267C15.3768 87.1653 16.6874 87.0523 17.998 86.9845C20.3028 86.8715 22.6189 86.8376 24.9237 86.7133C28.6182 86.4987 32.324 86.5665 36.0185 86.5439C37.7584 86.5439 39.4984 86.4422 41.2496 86.4083C42.2099 86.3857 43.1703 86.3631 44.1306 86.3857C44.8763 86.4083 45.622 86.4535 46.345 86.5891C47.2828 86.7585 48.0963 87.1879 48.6047 88.0578C49.1357 88.9504 49.4859 89.9107 49.5989 91.0744V91.0518Z" fill="#5DB3C1"/>
<path d="M45.7124 113.445V114.044C45.3395 114.371 44.9215 114.281 44.5486 114.281C42.0969 114.292 39.6452 114.303 37.1935 114.303C35.4197 114.303 33.6346 114.303 31.8608 114.303C31.6123 114.303 31.3524 114.326 31.1151 114.27C30.9344 114.224 30.7875 114.055 30.6632 113.976C30.6632 113.637 30.8101 113.479 31.0247 113.445C31.2959 113.388 31.5897 113.377 31.8721 113.377C36.0976 113.377 40.3344 113.377 44.5599 113.377C44.9102 113.377 45.2604 113.422 45.7011 113.445H45.7124Z" fill="#F5F5F5"/>
<path d="M45.6672 116.958C45.9722 117.286 45.8931 117.49 45.6446 117.715C44.8311 117.772 43.9837 117.862 43.1364 117.896C41.8936 117.941 40.6508 117.941 39.3967 117.987C37.9392 118.032 36.4818 118.1 35.0243 118.167C33.8493 118.213 32.6856 118.269 31.5106 118.326C31.149 118.337 30.7875 118.326 30.6406 117.795C30.7649 117.682 30.9005 117.512 31.0699 117.433C31.2168 117.365 31.4202 117.377 31.5897 117.377C34.0075 117.297 36.4253 117.218 38.8431 117.139C40.1537 117.094 41.4755 117.015 42.7861 116.981C43.7465 116.959 44.7068 116.981 45.6559 116.981L45.6672 116.958Z" fill="#F5F5F5"/>
<path d="M45.4751 109.886C45.4977 110.01 45.5316 110.168 45.5655 110.372C45.3395 110.462 45.1587 110.575 44.9667 110.609C44.7633 110.654 44.5373 110.632 44.334 110.632C39.9955 110.688 35.6683 110.733 31.3298 110.79C31.2281 110.79 31.1151 110.79 31.0134 110.79C30.7875 110.756 30.5954 110.575 30.5954 110.372C30.5954 110.168 30.7423 109.954 30.9683 109.92C31.2846 109.886 31.6009 109.863 31.9286 109.863C33.7702 109.841 35.6231 109.841 37.4647 109.818C39.7356 109.784 42.0066 109.739 44.2775 109.694C44.6616 109.694 45.0571 109.603 45.4638 109.875L45.4751 109.886Z" fill="#F5F5F5"/>
<path d="M38.6397 106.903C38.5493 107.242 38.3121 107.31 38.0522 107.321C37.4873 107.355 36.9224 107.412 36.3462 107.423C34.7418 107.445 33.1488 107.457 31.5445 107.468C31.2959 107.468 31.0586 107.434 30.7649 107.4C30.7084 107.197 30.6632 107.005 30.618 106.869C30.8779 106.575 31.1603 106.553 31.4428 106.553C33.5781 106.519 35.7135 106.485 37.8488 106.451C38.1652 106.451 38.5041 106.44 38.6397 106.903Z" fill="#F5F5F5"/>
<path d="M59.3944 103.638H55.9598V102.779H59.3944C61.9591 102.779 64.0493 100.689 64.0493 98.1245V82.0133H64.9079V98.1245C64.9079 101.164 62.4336 103.638 59.3944 103.638Z" fill="#1F2ADE"/>
<path d="M64.4673 82.454C63.5408 82.454 62.7839 81.697 62.7839 80.7706C62.7839 79.8441 63.5408 79.0872 64.4673 79.0872C65.3937 79.0872 66.1507 79.8441 66.1507 80.7706C66.1507 81.697 65.3937 82.454 64.4673 82.454ZM64.4673 79.9458C64.0154 79.9458 63.6425 80.3187 63.6425 80.7706C63.6425 81.2225 64.0154 81.5954 64.4673 81.5954C64.9192 81.5954 65.2921 81.2225 65.2921 80.7706C65.2921 80.3187 64.9192 79.9458 64.4673 79.9458Z" fill="#1F2ADE"/>
<path d="M54.6944 104.892C53.7679 104.892 53.011 104.135 53.011 103.209C53.011 102.282 53.7679 101.525 54.6944 101.525C55.6208 101.525 56.3778 102.282 56.3778 103.209C56.3778 104.135 55.6208 104.892 54.6944 104.892ZM54.6944 102.395C54.2425 102.395 53.8696 102.757 53.8696 103.22C53.8696 103.683 54.2425 104.045 54.6944 104.045C55.1463 104.045 55.5079 103.672 55.5079 103.22C55.5079 102.768 55.135 102.395 54.6944 102.395Z" fill="#1F2ADE"/>
<path d="M111.287 142.153C111.095 143.272 110.88 144.39 110.665 145.498C110.609 145.814 110.53 146.13 110.417 146.424C110.168 147.079 109.705 147.452 108.959 147.452C107.423 147.452 105.886 147.452 104.361 147.475C99.7402 147.543 95.1079 147.61 90.4869 147.678L90.5434 156.92C90.6677 158.479 90.7807 160.016 90.905 161.575C91.0858 163.767 91.2778 165.97 91.4699 168.162C91.5603 169.077 91.6394 170.015 91.6959 170.93C91.7185 171.393 91.6959 171.845 91.6959 172.41C89.4249 172.636 87.2331 172.862 85.0412 173.065C84.9057 173.088 84.7701 173.031 84.6232 173.02C84.5667 172.873 84.4876 172.738 84.4763 172.602C83.6177 166.693 82.7477 160.784 81.8778 154.807L80.9061 147.836C79.8215 147.859 78.7595 147.87 77.6748 147.836C74.4775 147.746 71.2801 148.085 68.0827 148.085C68.0036 148.085 67.9358 148.085 67.868 148.085C67.1676 148.153 66.9077 148.435 66.9642 149.113C67.032 149.814 67.1111 150.525 67.1788 151.237C67.4613 153.96 67.7325 156.694 68.0149 159.406C68.2635 161.778 68.512 164.14 68.7606 166.524C68.9414 168.184 69.0995 169.845 69.2577 171.506C69.2916 171.868 69.2577 172.207 69.2577 172.557C69.0317 172.817 68.738 172.805 68.4555 172.805C67.5969 172.839 66.7495 172.862 65.8909 172.896C63.7216 173.009 61.5524 173.122 59.3831 173.235C59.2475 173.235 59.112 173.201 58.9312 173.201C58.8747 173.031 58.7843 172.873 58.7617 172.704C58.6261 171.427 58.4567 170.162 58.355 168.885C58.1742 166.478 58.016 164.061 57.8918 161.643C57.7788 159.293 57.7562 156.954 57.6319 154.604C57.5415 152.616 57.3495 150.638 57.1348 148.661C56.9088 146.673 56.8975 144.684 57.2365 142.707C57.3382 142.097 57.5754 141.555 57.8805 141.024C59.0555 139.046 60.8519 138.03 63.055 137.6C63.8572 137.442 64.6707 137.397 65.4954 137.374C67.4839 137.34 69.4724 137.261 71.4721 137.205C72.7488 137.171 74.0368 137.16 75.3135 137.114C78.5109 137.035 81.7083 136.956 84.917 136.866C87.4816 136.787 90.035 136.73 92.5997 136.64C93.6956 136.606 94.7915 136.527 95.8649 136.47C98.3053 137.747 100.757 138.877 103.344 139.702C105.92 140.526 108.519 141.216 111.264 141.543C111.264 141.781 111.287 141.95 111.264 142.12L111.287 142.153Z" fill="#5DB3C1"/>
<path d="M133.409 77.3359C133.194 77.3133 133.025 77.302 132.799 77.2907C132.697 76.9631 132.606 76.6693 132.516 76.3643C132.369 75.822 132.245 75.2571 132.064 74.7148C131.816 73.9352 131.364 73.3251 130.562 73.02C130.369 72.9522 130.189 72.8167 129.963 72.6811C130.008 72.4664 130.008 72.2631 130.087 72.0936C130.143 71.9806 130.29 71.9015 130.426 71.845C131.307 71.3818 131.906 70.6361 132.516 69.8904C132.934 69.382 133.205 68.8171 133.16 68.1279C133.16 68.0263 133.205 67.9246 133.228 67.8342C133.454 67.563 133.702 67.5065 134.03 67.676C134.324 68.015 134.403 68.4895 134.595 68.8962C134.81 69.3481 135.013 69.8001 135.273 70.2181C135.68 70.9186 136.256 71.427 137.069 71.6304C137.329 71.6982 137.521 71.8224 137.566 72.1727C137.487 72.2744 137.397 72.4325 137.261 72.5342C137.035 72.715 136.787 72.8506 136.55 73.0087C135.239 73.89 134.256 75.0198 133.77 76.5451C133.691 76.8049 133.533 77.0535 133.409 77.3246V77.3359ZM133.838 69.6645C133.51 70.0938 133.273 70.3989 133.036 70.6926C132.787 70.9864 132.516 71.2688 132.256 71.5626C132.019 71.845 131.669 72.0371 131.477 72.3647C131.737 72.602 131.951 72.7715 132.143 72.9861C132.301 73.1669 132.448 73.3816 132.561 73.5962C132.697 73.8448 132.799 74.1047 132.912 74.3645C133.025 74.6018 133.047 74.8842 133.273 75.1215C133.702 74.5679 134.064 74.0482 134.482 73.5849C134.9 73.1217 135.397 72.715 135.906 72.2405C135.024 71.5626 134.414 70.7039 133.838 69.6645Z" fill="#1F2ADE"/>
<path d="M125.41 67.9246H124.958C124.89 67.8116 124.766 67.7099 124.732 67.5856C124.415 65.9587 123.658 64.5916 122.303 63.5861C122.178 63.4957 122.11 63.2923 122.065 63.1342C122.043 63.0551 122.11 62.9308 122.156 62.7952C122.901 62.5467 123.704 62.4111 124.291 61.7445C124.833 61.1231 125.025 60.3887 125.161 59.564C125.41 59.5414 125.636 59.5075 125.907 59.4849C126.054 59.8125 126.178 60.1063 126.313 60.3887C126.494 60.7729 126.652 61.1683 126.867 61.5411C127.251 62.2077 127.793 62.7048 128.494 63.0212C128.743 63.1342 128.98 63.2697 129.296 63.4392C129.183 63.6765 129.127 63.8911 129.002 64.0154C128.833 64.1849 128.584 64.2866 128.381 64.4109C127.149 65.1452 126.2 66.1169 125.715 67.484C125.681 67.5856 125.624 67.676 125.579 67.7664C125.568 67.8003 125.534 67.8229 125.432 67.9246H125.41ZM125.681 61.462C125.285 61.914 125.014 62.2868 124.686 62.6032C124.37 62.9082 123.986 63.1455 123.67 63.394C124.235 64.264 124.777 65.0887 125.33 65.9474C125.636 65.5972 125.918 65.2469 126.234 64.9306C126.562 64.6029 126.924 64.3318 127.274 64.0154C127.387 63.9137 127.477 63.7782 127.624 63.6087C126.743 63.089 126.28 62.2868 125.681 61.462Z" fill="#1F2ADE"/>
<path d="M106.406 70.4328C106.53 70.8169 106.406 71.0542 106.146 71.2236C105.909 71.3705 105.649 71.5061 105.401 71.6417C104.61 72.0484 104 72.6133 103.841 73.5398C103.796 73.7996 103.649 73.9917 103.378 74.0708C103.096 74.0595 102.938 73.89 102.87 73.6189C102.802 73.3477 102.757 73.0652 102.689 72.7828C102.361 71.4948 102.147 71.1446 101.186 70.2859C101.028 69.9695 101.152 69.7436 101.435 69.5741C101.796 69.3482 102.169 69.1335 102.519 68.8962C103.209 68.4556 103.661 67.8342 103.807 67.0207C103.853 66.7383 103.864 66.4332 104.305 66.3315C104.406 66.4445 104.598 66.5688 104.655 66.7383C104.779 67.0998 104.836 67.4953 104.915 67.8794C105.129 68.9188 105.581 69.8227 106.417 70.4215L106.406 70.4328ZM104.033 68.6816C103.604 69.4159 102.881 69.5967 102.486 70.1503C102.825 70.7378 103.141 71.2801 103.48 71.8563C104.067 71.4383 104.61 71.0542 105.175 70.6474C104.813 70.026 104.485 69.4498 104.033 68.6703V68.6816Z" fill="#1F2ADE"/>
<path d="M133.849 69.6644C134.425 70.7152 135.036 71.5625 135.917 72.2404C135.408 72.7262 134.911 73.1217 134.493 73.5849C134.064 74.0481 133.714 74.5791 133.284 75.1214C133.058 74.8842 133.036 74.6017 132.923 74.3645C132.799 74.1046 132.708 73.8447 132.573 73.5962C132.46 73.3815 132.313 73.1669 132.155 72.9861C131.974 72.7714 131.748 72.602 131.488 72.3647C131.68 72.0257 132.03 71.8337 132.268 71.5625C132.516 71.2688 132.787 70.9863 133.047 70.6926C133.296 70.3988 133.522 70.0938 133.849 69.6644Z" fill="#FFBD5C"/>
<path d="M125.681 61.462C126.28 62.2868 126.743 63.089 127.624 63.6087C127.477 63.7782 127.387 63.9137 127.274 64.0154C126.935 64.3205 126.562 64.6029 126.234 64.9306C125.918 65.2469 125.636 65.6085 125.33 65.9474C124.777 65.0887 124.235 64.264 123.67 63.394C123.986 63.1455 124.359 62.9082 124.686 62.6031C125.014 62.2868 125.297 61.914 125.681 61.462Z" fill="#FFBD5C"/>
<path d="M104.022 68.6815C104.463 69.4498 104.802 70.0373 105.163 70.6587C104.598 71.0654 104.056 71.4496 103.469 71.8676C103.13 71.2914 102.813 70.7491 102.474 70.1616C102.87 69.608 103.593 69.4159 104.022 68.6928V68.6815Z" fill="#FFBD5C"/>
<path d="M138.03 116.981C137.939 117.015 137.849 117.083 137.758 117.094C133.409 117.444 129.07 117.851 124.777 118.19V118.235L123.071 118.427C123.071 121.466 123.071 124.506 123.082 127.545C123.082 127.714 123.048 127.884 123.026 128.098C122.788 128.132 122.585 128.2 122.382 128.2C121.455 128.2 120.54 128.166 119.614 128.144C119.083 128.132 118.54 128.098 118.009 128.121C117.162 128.144 116.428 128.46 115.784 129.025C114.97 129.748 114.36 130.595 113.965 131.623C113.422 133.058 113.027 134.538 112.677 136.03C112.36 137.374 112.044 138.73 111.739 140.086C111.694 140.255 111.615 140.413 111.569 140.56C111.185 140.718 110.835 140.639 110.485 140.583C105.084 139.702 100.034 137.894 95.3113 135.126C95.1531 135.035 95.0062 134.945 94.8593 134.843C94.8028 134.798 94.7803 134.73 94.7012 134.617C96.9156 126.099 99.5481 117.636 102 109.14C102.056 109.117 102.113 109.095 102.169 109.072C102.192 109.038 102.214 109.016 102.237 108.982C102.237 108.699 102.294 108.406 102.373 108.112V108.078C101.096 107.954 99.8305 107.841 98.5538 107.705C96.2603 107.457 93.9555 107.298 91.7072 106.993C91.3908 105.807 91.5377 101.909 91.9896 99.3898C92.6449 95.6388 93.0855 94.1248 93.8312 93.0741C94.4865 93.1306 95.1531 93.1871 95.8197 93.2436C97.1642 93.3566 98.5086 93.4582 99.8644 93.5825C101.356 93.7068 102.836 93.8424 104.327 93.9554C105.288 94.0344 106.237 94.1248 107.197 94.2152C109.502 94.4186 111.795 94.6671 114.1 94.814C116.021 94.9383 117.93 95.1756 119.817 95.5258C120.664 95.684 121.466 95.9664 122.212 96.3845C123.523 97.1188 124.754 97.9775 125.884 98.9491C127.647 100.463 129.274 102.101 130.573 104.033C131.703 105.717 132.866 107.389 133.985 109.072C135.465 111.298 136.685 113.671 137.849 116.077C137.984 116.348 138.199 116.631 138.052 116.992L138.03 116.981Z" fill="white"/>
<path d="M92.2495 93.9893C92.0348 94.8254 91.8088 95.605 91.6281 96.3845C91.436 97.2206 91.2778 98.0567 91.131 98.904C90.9841 99.6949 90.9502 100.52 90.7355 101.333C90.487 101.288 90.2723 101.277 90.0802 101.209C88.7809 100.746 87.459 100.282 86.1711 99.7966C84.8944 99.3108 83.7533 98.5877 82.6573 97.7855C81.1208 96.6557 80.409 95.0626 80.1604 93.2436C79.8441 90.8823 79.6294 88.5097 79.2792 86.1484C78.8837 83.4594 78.8385 80.7592 78.6239 78.0702C78.5561 77.2567 78.477 76.4433 78.3866 75.6298C78.1946 74.0255 77.9799 72.4211 77.7765 70.8168L81.8665 69.8339C83.2448 75.7541 84.6345 81.6743 86.0129 87.5946C86.3518 89.0181 86.6795 90.4304 87.0184 91.854C87.267 92.9386 87.5381 93.1758 88.6567 93.3566C89.6735 93.5148 90.6903 93.673 91.7072 93.8312C91.8766 93.8537 92.0348 93.9328 92.2608 94.0006L92.2495 93.9893Z" fill="#FFBD5C"/>
<path d="M83.4595 62.8854C82.8946 64.7496 82.2732 66.6138 81.6179 68.6249C81.6405 68.7831 81.6857 69.0994 81.7535 69.4045C81.7874 69.5401 81.8213 69.6869 81.8552 69.8225L77.7652 70.8054C77.7539 70.7151 77.7426 70.6247 77.7313 70.5343C77.6522 69.9355 77.5958 69.3367 77.528 68.6701C77.3359 68.4441 77.1212 68.1617 76.8953 67.8905C76.3643 67.2239 75.9123 66.5008 75.5508 65.7213C74.9746 64.4785 74.8955 63.1905 75.0085 61.8573C75.0763 61.1003 75.4265 60.5128 76.0592 60.0948C76.9744 59.496 77.946 59.1006 79.0645 59.1457C79.2792 59.1457 79.5051 59.1909 79.6972 59.1457C79.8441 59.1119 79.9684 58.9537 80.1378 58.8294C80.0588 58.6034 80.0136 58.3888 79.9119 58.2193C79.3131 57.2025 78.6917 56.2082 78.1042 55.1914C77.607 54.3327 77.1099 53.4741 76.658 52.5815C76.4546 52.1748 76.3868 51.7003 76.2852 51.2596C76.2513 51.1354 76.3078 50.9772 76.3417 50.8416C76.353 50.7851 76.432 50.7512 76.545 50.6495C76.6806 50.7173 76.9066 50.7512 77.0421 50.8755C77.4263 51.237 77.8104 51.6212 78.1494 52.0279C79.5842 53.7565 80.94 55.5416 82.115 57.451C82.6799 58.3662 83.1883 59.3039 83.4482 60.3434C83.6629 61.1907 83.7081 62.0494 83.4482 62.8741L83.4595 62.8854Z" fill="#EAD6C1"/>
<path d="M127.138 76.963C126.833 76.5337 126.449 76.1495 126.087 75.7654C125.895 75.562 125.669 75.3812 125.477 75.2118C125.477 74.6808 125.443 74.1836 125.477 73.6865C125.545 72.907 125.251 72.2856 124.709 71.7771C124.246 71.3478 123.749 70.9298 123.24 70.5456C122.642 70.0937 122.02 69.687 121.421 69.2463C119.557 67.868 118.077 66.162 117.094 64.0605C116.834 63.5182 116.608 62.9533 116.348 62.411C116.145 61.9929 115.93 61.5862 115.682 61.2021C115.49 60.9083 115.275 60.6146 114.823 60.5242C114.71 60.6597 114.552 60.8066 114.473 60.9874C114.371 61.2134 114.349 61.4732 114.236 61.6879C114.145 61.8574 113.965 61.9929 113.84 62.1285C113.004 62.0042 112.993 60.9196 112.112 60.8518C112.01 60.9987 111.84 61.1569 111.807 61.3376C111.75 61.6427 111.807 61.9703 111.773 62.2867C111.761 62.5239 111.705 62.7499 111.66 63.055C111.422 62.9872 111.23 62.9872 111.117 62.8855C110.824 62.6256 110.575 62.3319 110.293 62.0607C110.033 61.8122 109.773 61.5636 109.366 61.6427C109.005 61.8461 108.903 62.1963 108.959 62.5578C109.039 63.0437 109.14 63.5408 109.31 64.004C109.931 65.7213 110.756 67.337 111.716 68.8735C113.151 71.1896 114.823 73.3024 116.97 74.9971C117.105 75.0988 117.207 75.2457 117.286 75.3248C117.354 75.7202 117.139 75.9236 116.947 76.1269C116.8 76.2851 116.665 76.4433 116.529 76.6127C116.021 76.8387 115.558 77.3697 115.275 78.4656C115.23 78.5447 115.162 78.6464 115.207 78.7707C114.586 81.6517 115.738 84.0243 117.026 86.0919C117.026 86.0919 117.038 86.1032 117.049 86.1145C117.444 86.7924 117.987 87.5155 118.54 88.0691C118.744 87.6849 118.936 87.3121 119.139 86.9393C119.309 86.6342 119.535 86.4421 119.986 86.589C120.054 86.6907 120.156 86.8263 120.246 86.9732C120.337 87.1087 120.292 87.346 120.608 87.3347C121.828 85.6061 123.5 84.2729 124.992 82.7476C125.364 82.3635 125.737 81.9907 126.087 81.5839C126.641 80.9286 127.116 80.2282 127.421 79.4147C127.748 78.556 127.669 77.72 127.149 76.9743L127.138 76.963Z" fill="#5DB3C1"/>
<path d="M134.798 132.313C134.618 133.725 134.403 135.126 134.154 136.527C133.544 140.029 132.9 143.532 132.279 147.034C132.087 148.096 131.838 149.113 131.206 150.017C130.663 150.785 130.008 151.429 129.206 151.915C128.63 152.265 128.019 152.559 127.421 152.875C127.07 153.067 126.675 153.09 126.28 153.09C123.76 153.135 121.229 153.18 118.698 153.214C116.529 153.248 114.36 153.271 112.191 153.293C112.066 153.316 111.931 153.327 111.773 153.327C110.462 153.327 108.733 153.35 107.118 153.372C104.666 153.418 102.497 153.463 102.497 153.463C100.836 153.485 99.1752 153.497 97.5257 153.519C93.786 153.576 90.0576 153.643 86.3179 153.7C82.6912 153.756 79.0645 153.813 75.4378 153.869C75.4039 153.869 75.37 153.847 75.2457 153.824C74.5791 153.384 74.1611 152.796 73.9803 152.028C73.7205 150.887 74.1724 150.005 74.9181 149.226C75.1779 148.955 75.5282 148.887 75.901 148.864C77.1777 148.819 78.4544 148.74 79.7424 148.729C83.2335 148.684 86.7134 148.684 90.2045 148.627C94.0798 148.582 97.955 148.503 101.83 148.424C102.791 148.401 103.762 148.379 104.723 148.356L108.496 148.322L111.038 148.299C111.547 145.61 112.033 142.922 112.586 140.244C113.027 138.154 113.558 136.086 114.089 134.03C114.292 133.239 114.597 132.471 114.88 131.702C115.173 130.878 115.716 130.222 116.382 129.657C116.891 129.228 117.456 128.98 118.145 129.002C118.891 129.025 119.636 129.047 120.382 129.047C123.658 129.025 126.935 129.002 130.2 128.98C130.765 128.98 131.341 128.934 131.906 128.878C132.482 128.833 133.047 128.855 133.612 128.98C134.358 129.138 134.81 129.59 134.855 130.358C134.889 130.991 134.877 131.646 134.798 132.279V132.313Z" fill="#FFBD5C"/>
<path d="M102.519 153.474C102.519 153.474 104.689 153.429 107.14 153.384C106.937 153.418 106.722 153.44 106.508 153.44C105.175 153.44 103.853 153.463 102.519 153.474Z" fill="#FFBD5C"/>
<path d="M108.508 148.356L104.734 148.39C105.514 148.367 106.293 148.345 107.073 148.333C107.457 148.333 107.852 148.311 108.248 148.333C108.338 148.333 108.428 148.345 108.519 148.367L108.508 148.356Z" fill="#FFBD5C"/>
<path d="M115.343 84.5327C115.422 85.1428 115.693 85.6851 116.021 86.1935C116.529 86.9618 117.038 87.7414 117.58 88.4871C118.088 89.1763 118.326 89.244 119.241 89.0633C119.286 89.2214 119.354 89.3909 119.365 89.5604C119.444 91.1534 119.523 92.7465 119.602 94.4073C119.399 94.4299 119.229 94.4977 119.071 94.4751C117.185 94.1135 115.264 93.978 113.354 93.8424C113.253 93.8424 113.151 93.7859 113.004 93.7407C112.959 93.5486 112.88 93.3566 112.88 93.1532C112.846 91.4133 112.823 89.6734 112.79 87.9335C112.79 87.764 112.767 87.5945 112.756 87.4024C112.292 87.1087 111.773 87.1539 111.298 87.0635C109.716 86.7584 108.462 85.9563 107.592 84.5892C106.982 83.6402 106.689 82.5894 106.621 81.4709C106.542 80.2394 106.756 79.0531 107.174 77.912C108.033 75.562 109.524 73.7091 111.615 72.342C111.908 72.1499 112.225 72.003 112.575 71.7997C113.162 72.4776 113.705 73.1329 114.292 73.743C114.88 74.3644 115.501 74.9406 116.145 75.5733C115.671 76.2738 115.207 76.929 114.778 77.6182C114.349 78.3074 113.863 78.974 113.58 79.7084C113.885 80.2733 113.987 80.3637 114.371 80.262C115.185 80.0247 116.021 79.8327 116.778 79.4259C117.23 79.1887 117.693 79.0418 118.201 79.0757C118.687 79.1096 118.981 79.3694 119.083 79.844C119.388 81.3014 118.45 83.064 117.06 83.5837C116.733 83.7079 116.394 83.7983 116.021 83.6966C115.535 83.5724 115.173 83.3464 115.015 82.8493C114.97 82.6798 114.914 82.5103 114.823 82.3522C114.71 82.1375 114.518 82.0697 114.281 82.1601C114.089 82.2844 114.021 82.4651 114.055 82.7024C114.179 83.4029 114.462 83.9904 115.106 84.3519C115.196 84.3971 115.275 84.4762 115.366 84.5553L115.343 84.5327Z" fill="#EAD6C1"/>
<path d="M124.088 128.144C124.031 127.85 123.975 127.647 123.963 127.443C123.884 126.155 123.941 123.274 124.065 122.506C125.387 122.19 126.788 122.269 128.087 121.986C128.324 121.76 128.381 121.546 128.302 121.274C128.178 120.902 128.053 120.529 127.94 120.156C127.827 119.783 127.714 119.41 127.59 118.992C127.748 118.924 127.861 118.845 127.986 118.834C130.358 118.631 132.719 118.427 135.115 118.224C135.205 118.359 135.307 118.461 135.363 118.585C135.883 119.749 136.403 120.924 136.911 122.099C137.363 123.161 137.532 124.28 137.453 125.432C137.408 126.166 137.103 126.709 136.504 127.127C135.849 127.601 135.115 127.839 134.324 127.884C132.9 127.963 131.488 128.042 130.064 128.087C128.392 128.132 126.731 128.155 125.059 128.178C124.777 128.178 124.494 128.155 124.099 128.132L124.088 128.144Z" fill="#FFBD5C"/>
<path d="M63.9476 187.335C64.2187 187.47 64.4108 187.561 64.6029 187.662C65.6197 188.227 66.7156 188.487 67.868 188.487C68.5798 188.487 69.2916 188.487 70.0034 188.487C70.2858 188.487 70.557 188.51 70.8169 188.532C71.1106 189.414 71.427 192.216 71.3592 193.357C71.1784 193.402 70.9863 193.481 70.7943 193.492C68.2409 193.571 65.6762 193.639 63.1228 193.718C60.0723 193.809 57.0218 193.91 53.96 194.001C53.7227 194.001 53.4968 193.955 53.203 193.922C53.2708 193.413 53.4968 193.052 53.7792 192.747C54.2651 192.227 54.7622 191.707 55.3158 191.289C55.9372 190.815 56.6038 190.408 57.293 190.046C59.3944 188.928 61.6202 188.08 63.9363 187.357L63.9476 187.335Z" fill="#4F9BA3"/>
<path d="M70.7604 187.538C69.0092 187.674 67.3596 187.741 65.6875 187.165C65.5971 186.871 65.4728 186.578 65.4163 186.273C64.5803 182.454 63.7555 178.646 62.9307 174.828C62.8856 174.59 62.8743 174.353 62.8517 174.105C62.9985 174.048 63.0889 173.98 63.1906 173.98C65.2469 173.958 67.2918 173.72 69.382 173.732C69.7322 174.873 69.6757 176.014 69.8339 177.132C69.9921 178.296 70.0486 179.46 70.1729 180.635C70.2858 181.765 70.444 182.895 70.5344 184.024C70.6135 185.154 70.8846 186.273 70.783 187.549L70.7604 187.538Z" fill="#EAD6C1"/>
<path d="M87.5946 187.414C89.199 188.577 91.0745 188.69 92.9838 188.679C93.3567 189.391 93.1872 190.159 93.3002 190.882C93.4132 191.605 93.481 192.351 93.4019 193.052C93.3228 193.119 93.3002 193.142 93.2663 193.165C93.2324 193.187 93.1985 193.198 93.1759 193.198C91.8314 193.266 90.4869 193.345 89.1312 193.39C85.6174 193.492 82.1037 193.583 78.59 193.673C78.5335 193.673 78.4657 193.616 78.3979 193.583C78.251 193.323 78.4092 193.108 78.5109 192.893C78.9289 192.046 79.539 191.357 80.2169 190.735C82.0585 189.018 84.2617 188.001 86.7247 187.561C87.0071 187.515 87.2783 187.459 87.5833 187.402L87.5946 187.414Z" fill="#4F9BA3"/>
<path d="M86.1824 173.924C86.6456 173.856 86.9958 173.766 87.3348 173.743C88.8148 173.686 90.2836 173.359 91.7636 173.494C91.8201 173.63 91.8879 173.72 91.8992 173.822C92.2608 178.307 92.6223 182.804 92.9839 187.289C92.9839 187.391 92.9274 187.493 92.8822 187.651C91.6055 187.9 90.374 187.628 89.1086 187.244C88.6567 185.809 88.4646 184.329 88.1256 182.883C87.7641 181.403 87.4816 179.9 87.154 178.409C86.8376 176.952 86.5213 175.505 86.1711 173.901L86.1824 173.924Z" fill="#EAD6C1"/>
<path d="M75.6299 138.606C75.178 137.996 74.9068 138.109 74.2402 138.007C74.0707 137.984 73.9239 138.007 73.7883 138.063C73.0652 138.03 72.3534 137.996 71.6303 137.962C70.7943 137.928 69.8452 137.77 69.0205 137.917C68.0714 138.086 67.5969 139.114 68.3087 139.871C69.1899 140.809 71.314 140.425 72.4551 140.459C73.5284 140.481 75.0876 140.651 75.6299 139.464C75.7542 139.205 75.8219 138.854 75.6299 138.594V138.606Z" fill="#F5F5F5"/>
<path d="M80.1265 137.724C79.9684 137.724 79.8328 137.758 79.7198 137.815C79.2679 137.905 78.895 138.256 78.7934 138.741C78.6465 139.431 79.1775 140.052 79.8554 140.131C80.4994 140.21 81.1208 139.803 81.2902 139.171C81.4823 138.402 80.8835 137.747 80.1378 137.724H80.1265Z" fill="#F5F5F5"/>
<path d="M82.1828 75.2682C82.0811 74.613 82.002 73.2459 81.2902 72.8617C81.166 72.4889 80.4881 72.5454 80.4429 73.0312C80.3751 73.6978 80.2395 79.2565 81.9794 78.0589C82.7364 77.5392 82.2958 75.98 82.1828 75.2569V75.2682Z" fill="#F5F5F5"/>
<path d="M83.0641 80.8043C83.0076 80.6122 82.8381 80.4992 82.646 80.4879C82.5444 80.4879 82.4427 80.4766 82.341 80.4653C82.1715 80.4653 82.0585 80.5331 81.9907 80.6461C81.9117 80.7365 81.8778 80.8608 81.9342 81.0076C82.002 81.1771 82.0698 81.3579 82.1376 81.5274C82.2732 81.8776 82.7025 81.9567 82.9285 81.629C83.098 81.3692 83.1319 81.0867 83.0528 80.793L83.0641 80.8043Z" fill="#F5F5F5"/>
<path d="M90.4644 95.5823C90.2949 94.9044 89.7187 94.4638 89.0408 94.4299C88.9617 94.4299 88.8939 94.4412 88.8374 94.4751C88.2725 94.3169 87.6624 94.3282 87.6737 94.9835C87.6737 95.4354 88.1595 95.6162 88.5211 95.7631C89.0182 95.9665 89.5153 96.0681 90.0463 96.1246C90.3401 96.1585 90.5208 95.8309 90.4644 95.5823Z" fill="#F5F5F5"/>
<path d="M119.58 69.5514C119.489 69.0768 119.162 68.6136 118.913 68.2069C118.608 67.6985 118.292 67.1561 117.908 66.7155C117.727 66.5121 117.41 66.2749 117.105 66.1845C116.665 65.8569 115.874 65.6083 115.625 66.2523C115.275 67.1335 116.134 68.2634 116.597 68.9187C117.049 69.5626 117.761 70.523 118.574 70.7151C119.275 70.8845 119.727 70.2066 119.602 69.5626L119.58 69.5514Z" fill="#F5F5F5"/>
<path d="M120.314 71.4382C120.269 71.5172 120.258 71.585 120.258 71.6528C120.246 71.7093 120.235 71.7771 120.258 71.8449C120.325 72.2629 120.495 72.681 120.924 72.8278C121.331 72.9634 121.794 72.76 121.896 72.3307C122.088 71.5059 120.845 70.5343 120.314 71.4382Z" fill="#F5F5F5"/>
<path opacity="0.1" d="M127.206 118.235L135.634 117.828C135.634 117.828 141.34 127.511 134.38 128.889C134.38 128.889 135.713 129.183 134.889 133.16C134.064 137.137 133.284 143.871 133.284 143.871C133.284 143.871 133.793 151.904 127.206 153.474L110.925 153.881C110.925 153.881 112.564 153.406 113.739 150.119C114.914 146.831 117.252 133.849 117.964 132.053C118.495 130.697 126.167 130.765 129.918 130.878C131.025 130.912 131.94 130.008 131.917 128.901L131.409 128.178L121.241 128.878L123.432 105.626L123.591 122.257L127.895 121.444L127.217 118.213L127.206 118.235Z" fill="black"/>
<path opacity="0.1" d="M97.5483 147.859C97.5483 147.859 103.887 148.401 105.525 143.328C105.525 143.328 99.7063 141.046 96.7913 136.516C96.7913 136.516 103.57 139.826 108.971 140.639C108.971 140.639 109.637 128.268 113.818 128.2C118.009 128.132 121.659 128.2 121.659 128.2C121.659 128.2 115.467 127.308 113.976 132.392C112.484 137.476 110.541 147.893 110.541 147.893L97.5596 147.87L97.5483 147.859Z" fill="black"/>
<path opacity="0.1" d="M117.795 94.4638V88.0578C117.795 88.0578 128.189 79.0193 126.167 75.1327C126.167 75.1327 131.172 78.7142 125.579 82.646C119.986 86.5777 119.704 89.052 119.602 90.7016L119.501 92.3511L120.054 94.9271L117.783 94.4638H117.795Z" fill="black"/>
<path opacity="0.1" d="M67.868 148.119L66.0264 148.266C65.1678 148.333 64.5351 149.09 64.6255 149.938L66.8173 173.28L62.2868 173.461L62.8517 175.731L70.783 179.607L66.9755 149.158L67.868 148.13V148.119Z" fill="black"/>
<path opacity="0.1" d="M81.8665 156.152L88.3177 156.694L89.5831 173.099H91.7975L90.5209 153.892L81.358 154.57L81.8665 156.152Z" fill="black"/>
<path d="M90.7129 140.606C90.6112 140.47 90.5547 140.38 90.4531 140.244C90.5773 140.097 90.679 139.871 90.8372 139.815C91.2665 139.668 91.7297 139.577 92.1817 139.476C93.4245 139.193 94.6673 138.9 95.9214 138.617C96.0908 138.583 96.2716 138.527 96.4411 138.549C96.6219 138.561 96.7913 138.685 96.7913 138.888C96.7913 139.012 96.7574 139.193 96.667 139.261C96.5428 139.374 96.362 139.442 96.1925 139.487C94.6334 139.849 93.0855 140.21 91.5264 140.56C91.2552 140.617 90.9728 140.594 90.7242 140.606H90.7129Z" fill="#1F2ADE"/>
<path d="M138.764 115.942C137.566 113.388 136.267 110.903 134.719 108.553C133.725 107.039 132.663 105.559 131.669 104.033C130.381 102.045 128.81 100.294 127.037 98.7458C125.161 97.1076 123.218 95.5372 120.777 94.7689C120.71 94.7463 120.664 94.6898 120.54 94.5994C120.461 92.8369 120.258 91.0405 120.292 89.1989C120.721 88.9503 121.003 88.6114 121.207 88.1821C121.376 87.8318 121.602 87.4929 121.851 87.2104C122.438 86.5438 123.06 85.8998 123.681 85.2671C124.528 84.4085 125.41 83.5724 126.268 82.7251C126.98 82.0133 127.545 81.1998 128.008 80.3073C128.72 78.9402 128.709 77.189 127.432 75.8558C127.07 75.4716 126.698 75.0875 126.313 74.6921C126.336 74.4774 126.37 74.2627 126.393 74.0594C126.494 72.8957 126.178 71.8675 125.285 71.0767C124.754 70.6021 124.201 70.1615 123.636 69.7209C123.105 69.3141 122.529 68.9413 121.986 68.5459C120.099 67.1788 118.676 65.4389 117.727 63.3035C117.512 62.8177 117.331 62.3093 117.083 61.8348C116.823 61.3263 116.529 60.8405 116.202 60.3773C116.021 60.1287 115.761 59.9141 115.49 59.7446C115.004 59.4509 114.541 59.5073 114.111 59.8802C113.908 60.061 113.739 60.2869 113.535 60.5016C113.332 60.366 113.162 60.2304 112.982 60.1287C112.213 59.6655 111.569 59.8237 111.083 60.6033C110.982 60.7727 110.891 60.9535 110.79 61.1343C110.541 61.01 110.36 60.8857 110.157 60.8179C109.118 60.4338 108.304 60.9083 108.112 61.9929C108.01 62.5691 108.089 63.134 108.27 63.6764C108.451 64.2526 108.654 64.8288 108.903 65.3711C109.705 67.1223 110.564 68.8396 111.66 70.4214C111.773 70.5908 111.965 70.7377 111.852 71.0428C111.648 71.167 111.411 71.3252 111.174 71.4721C109.14 72.7827 107.638 74.5452 106.632 76.737C105.841 78.4656 105.57 80.2734 105.796 82.1488C106.112 84.8604 107.988 87.2217 110.835 87.8431C111.117 87.8996 111.389 87.9787 111.807 88.0804C111.874 89.9333 112.021 91.7297 111.953 93.5826C111.547 93.5826 111.196 93.6052 110.846 93.5826C108.688 93.3905 106.519 93.1984 104.361 92.9951C103.615 92.9273 102.881 92.8256 102.135 92.7804C99.5029 92.6109 96.8704 92.5093 94.2605 92.1477C93.9103 92.1025 93.5488 92.0573 93.1646 92.2381C92.9951 92.4528 92.8144 92.7126 92.5884 93.0064C91.0745 92.7917 89.5718 92.5996 88.0466 92.272C86.205 84.3972 84.3747 76.5789 82.5556 68.7718C83.0867 67.0997 83.5951 65.4728 84.1374 63.8571C84.3408 63.247 84.465 62.6256 84.4989 61.9816C84.5667 60.6259 84.2504 59.3605 83.5951 58.1855C83.0867 57.2816 82.5556 56.4003 81.9794 55.553C80.8157 53.847 79.5729 52.1974 78.1607 50.6835C77.9008 50.401 77.6071 50.1186 77.2907 49.9039C76.3191 49.2486 75.4604 50.0056 75.4265 50.8078C75.3926 51.5421 75.483 52.2313 75.8106 52.8866C76.2513 53.7453 76.7032 54.5813 77.189 55.4174C77.641 56.1857 78.1268 56.9314 78.6013 57.6883C78.6917 57.8352 78.816 57.9821 78.6465 58.1968C78.4318 58.2419 78.1946 58.3097 77.946 58.3436C76.884 58.5018 76.0027 59.0102 75.178 59.6542C74.6582 60.0609 74.3419 60.6146 74.2063 61.2699C73.9352 62.6595 73.9916 64.0266 74.4549 65.3711C74.8503 66.5235 75.4491 67.5855 76.24 68.5007C76.5902 68.9074 76.7484 69.3367 76.7597 69.8565C76.771 70.2406 76.8388 70.636 76.884 71.0202C77.1212 72.9296 77.4037 74.8276 77.5845 76.737C77.7765 78.7933 77.8782 80.8496 78.0251 82.9171C78.0703 83.482 78.1042 84.0469 78.172 84.6118C78.4092 86.589 78.6578 88.5662 78.9063 90.5434C79.0419 91.6054 79.1549 92.6674 79.3131 93.7182C79.6181 95.6501 80.4655 97.2997 82.0698 98.486C83.4143 99.4915 84.8605 100.316 86.4648 100.87C87.572 101.254 88.6792 101.661 89.7752 102.067C90.0689 102.18 90.3514 102.305 90.6225 102.418C90.6225 103.333 90.6225 104.18 90.6225 105.028C90.6225 105.875 90.5096 106.734 90.7016 107.536C91.3569 107.931 91.3569 107.92 94.0572 108.135C95.2322 108.225 96.3959 108.383 97.5596 108.496C98.6894 108.598 99.8079 108.688 100.926 108.858C100.836 109.852 100.339 111.682 99.2091 115.388C98.5538 117.535 97.8985 119.67 97.2771 121.828C96.6332 124.009 96.023 126.2 95.4129 128.404C94.8141 130.561 94.2266 132.719 93.6391 134.866C93.7973 135.137 93.9442 135.374 94.0911 135.612C93.9894 135.646 93.9216 135.691 93.8538 135.691C91.6846 135.77 89.5153 135.849 87.3461 135.917C83.934 136.018 80.5107 136.086 77.0986 136.177C74.2854 136.256 71.4722 136.335 68.6702 136.425C67.3596 136.47 66.0377 136.538 64.7272 136.549C63.0889 136.572 61.5298 136.922 60.1175 137.713C57.9483 138.933 56.536 140.741 56.2874 143.283C56.0954 145.238 56.0728 147.204 56.3213 149.147C56.5925 151.305 56.6942 153.474 56.8297 155.632C56.9427 157.44 56.9879 159.259 57.0444 161.078C57.1235 163.925 57.3269 166.761 57.5641 169.597C57.6658 170.772 57.824 171.935 57.9483 173.099C57.9935 173.449 58.0386 173.811 58.4228 174.127C58.8973 174.127 59.4622 174.127 60.0271 174.127C60.6146 174.127 61.2247 173.958 61.8122 174.195C61.88 174.387 61.9478 174.556 61.9817 174.726C62.7613 178.307 63.5521 181.889 64.3204 185.471C64.3769 185.73 64.5012 186.013 64.343 186.295C64.1284 186.329 63.9024 186.34 63.7103 186.408C61.6879 187.086 59.6769 187.821 57.7562 188.747C56.7958 189.21 55.8807 189.775 54.9994 190.374C54.3893 190.792 53.8357 191.312 53.316 191.854C52.6946 192.498 52.2766 193.3 52.028 194.159C51.9489 194.419 51.9941 194.656 52.3331 194.871C52.8867 194.871 53.5194 194.882 54.1521 194.871C56.005 194.814 57.8466 194.735 59.6995 194.69C63.0098 194.599 66.3202 194.52 69.6306 194.441C70.2746 194.43 70.9072 194.419 71.5512 194.385C72.2065 194.351 72.4325 194.068 72.376 193.413C72.3082 192.634 72.2178 191.854 72.1274 191.074C71.9354 189.233 71.7433 187.391 71.5625 185.55C71.3931 183.889 71.2349 182.217 71.0654 180.556C70.8169 178.081 70.5457 175.596 70.2971 173.122C70.0599 170.715 69.8339 168.309 69.5854 165.902C69.3368 163.428 69.0656 160.953 68.8058 158.468C68.5346 155.813 68.2635 153.158 68.0036 150.503C67.9584 150.051 67.8341 149.588 68.0036 149.124C68.1053 149.079 68.1957 149 68.2974 149C70.0712 148.932 71.8563 148.876 73.6301 148.819C73.6866 148.819 73.7431 148.887 73.8787 148.977C73.4832 149.667 73.0313 150.356 73.0426 151.214C73.0426 152.017 73.1443 152.785 73.5849 153.463C74.0368 154.163 74.6921 154.649 75.483 154.965C75.4943 155.214 75.5169 155.429 75.5169 155.632C75.4378 161.439 75.3474 167.235 75.2796 173.043C75.2344 177.065 75.2118 181.087 75.178 185.109C75.178 185.719 75.1328 186.318 75.1328 186.928C75.0989 189.21 75.0763 191.481 75.065 193.763C75.065 193.967 75.1441 194.17 75.2005 194.396H75.7993C75.8445 194.147 75.9123 193.91 75.9236 193.673C75.9688 192.351 76.0027 191.04 76.014 189.719C76.0366 187.651 76.0479 185.583 76.0705 183.527C76.1383 178.217 76.2061 172.918 76.2739 167.619C76.3078 164.987 76.3191 162.354 76.3643 159.711C76.3869 158.287 76.4433 156.864 76.4885 155.44C76.4885 155.237 76.4433 155.011 76.658 154.852C77.7652 154.672 80.1039 154.672 80.9287 154.886C80.9626 155.067 81.0191 155.271 81.053 155.474C81.2338 156.672 81.4145 157.869 81.5953 159.067C81.9794 161.71 82.3749 164.343 82.759 166.987C83.0641 169.066 83.3578 171.144 83.6629 173.223C83.7081 173.494 83.8436 173.743 83.9453 174.048C84.3973 174.071 84.8153 174.082 85.2446 174.105C85.335 174.41 85.4367 174.669 85.4932 174.952C86.2727 178.533 87.0523 182.115 87.8319 185.696C87.8771 185.889 87.8545 186.103 87.8771 186.352C87.3461 186.487 86.8715 186.634 86.3857 186.725C85.0751 186.962 83.8436 187.425 82.6573 188.001C80.9287 188.849 79.4938 190.035 78.3188 191.56C77.833 192.193 77.528 192.916 77.2907 193.662C77.1551 194.068 77.3133 194.34 77.6974 194.532C78.0364 194.701 78.3866 194.678 78.7482 194.667C80.7027 194.611 82.6573 194.543 84.6119 194.475C87.459 194.385 90.3062 194.294 93.1533 194.204C93.5714 194.193 93.9894 194.125 94.4639 194.08C94.4639 193.797 94.4752 193.549 94.4639 193.311C94.3848 192.283 94.2944 191.255 94.204 190.227C94.012 187.922 93.8086 185.617 93.6165 183.313C93.4471 181.29 93.3115 179.268 93.142 177.245C92.9613 175.008 92.7579 172.783 92.5658 170.546C92.3963 168.455 92.2495 166.354 92.08 164.264C91.8427 161.36 91.5829 158.445 91.3343 155.542C91.3117 155.271 91.3343 154.988 91.3343 154.717C92.1478 154.491 94.0007 154.48 94.8706 154.694C94.9836 155.056 94.9384 155.44 94.9384 155.835C94.9271 158.829 94.9045 161.812 94.8932 164.806C94.8593 173.743 94.8254 182.68 94.7803 191.617C94.7803 192.148 94.7464 192.69 94.7577 193.221C94.7577 193.662 94.9949 193.91 95.2887 193.876C95.5485 193.842 95.6841 193.65 95.6954 193.21C95.718 192.464 95.7293 191.718 95.7293 190.961C95.7632 179.211 95.7858 167.461 95.8084 155.711C95.8084 155.53 95.7971 155.35 95.8084 155.18C95.831 154.977 95.8875 154.773 95.9327 154.525C96.893 154.502 97.8195 154.491 98.7346 154.48C99.9774 154.468 101.232 154.48 102.474 154.446C103.932 154.423 105.389 154.367 106.847 154.333C107.05 154.333 107.265 154.389 107.491 154.412C107.558 154.717 107.638 154.988 107.66 155.271C107.83 156.864 107.988 158.457 108.146 160.05C108.315 161.71 108.462 163.383 108.632 165.043C108.892 167.552 109.163 170.071 109.423 172.579C109.66 174.918 109.886 177.257 110.123 179.584C110.383 182.058 110.643 184.533 110.903 187.018C111.129 189.142 111.343 191.266 111.569 193.391C111.592 193.594 111.682 193.786 111.739 194.023H112.247C112.507 193.684 112.428 193.323 112.394 192.972C112.247 191.481 112.089 190.001 111.942 188.51C111.773 186.849 111.615 185.177 111.445 183.516C111.253 181.64 111.05 179.765 110.858 177.889C110.699 176.296 110.541 174.703 110.372 173.11C110.18 171.235 109.976 169.359 109.784 167.484C109.626 165.891 109.468 164.298 109.298 162.705C109.05 160.298 108.79 157.892 108.541 155.485C108.508 155.146 108.428 154.785 108.609 154.401C109.129 154.276 109.66 154.31 110.191 154.299C112.541 154.254 114.891 154.197 117.241 154.163C120.122 154.118 123.014 154.084 125.895 154.05C126.133 154.05 126.37 154.107 126.641 154.129C126.743 154.514 126.833 154.852 126.912 155.191C127.669 158.558 128.415 161.925 129.161 165.292C131.206 174.421 133.25 183.55 135.295 192.679C135.363 192.995 135.42 193.311 135.544 193.605C135.612 193.775 135.815 193.888 135.928 194.001C136.256 193.922 136.357 193.729 136.346 193.503C136.324 193.187 136.278 192.871 136.211 192.554C135.68 190.193 135.149 187.832 134.618 185.471C132.426 175.686 130.234 165.891 128.042 156.107C127.884 155.417 127.76 154.728 127.613 154.028C128.302 153.61 128.957 153.259 129.567 152.841C131.477 151.553 132.742 149.847 133.126 147.509C133.691 144.074 134.369 140.651 134.957 137.216C135.273 135.363 135.51 133.488 135.77 131.623C135.894 130.765 135.804 129.917 135.375 129.138C135.329 129.059 135.329 128.946 135.307 128.81C135.578 128.686 135.838 128.573 136.075 128.426C136.527 128.144 136.99 127.872 137.408 127.545C137.939 127.138 138.199 126.562 138.267 125.895C138.414 124.415 138.267 122.98 137.657 121.613C137.261 120.732 136.888 119.851 136.504 118.97C136.414 118.755 136.346 118.518 136.267 118.246C136.448 118.19 136.583 118.145 136.719 118.122C137.284 118.054 137.849 118.009 138.414 117.953C138.741 117.919 139.058 117.896 139.239 117.501C139.295 116.936 138.979 116.439 138.741 115.93L138.764 115.942ZM111.727 68.8622C110.767 67.3144 109.942 65.6987 109.321 63.9927C109.152 63.5295 109.05 63.0324 108.971 62.5465C108.914 62.185 109.016 61.8348 109.377 61.6314C109.784 61.5523 110.044 61.8009 110.304 62.0494C110.586 62.3206 110.835 62.6256 111.129 62.8742C111.242 62.9759 111.434 62.9759 111.671 63.0437C111.716 62.7386 111.773 62.5014 111.784 62.2754C111.807 61.959 111.761 61.6314 111.818 61.3263C111.852 61.1456 112.021 60.9874 112.123 60.8405C113.004 60.9083 113.027 61.9929 113.852 62.1172C113.976 61.9816 114.145 61.8574 114.247 61.6766C114.36 61.4619 114.383 61.1908 114.484 60.9761C114.575 60.7953 114.722 60.6598 114.834 60.5129C115.286 60.6033 115.501 60.8857 115.693 61.1908C115.942 61.5862 116.156 61.9929 116.36 62.3997C116.62 62.942 116.846 63.5069 117.105 64.0492C118.088 66.162 119.557 67.868 121.433 69.2351C122.031 69.6757 122.664 70.0824 123.252 70.5343C123.76 70.9185 124.257 71.3252 124.72 71.7658C125.263 72.2743 125.556 72.8957 125.489 73.6752C125.443 74.1723 125.489 74.6695 125.489 75.2005C125.681 75.37 125.907 75.5507 126.099 75.7541C126.46 76.1382 126.844 76.5224 127.149 76.9517C127.68 77.6974 127.748 78.5334 127.421 79.3921C127.116 80.2056 126.641 80.9061 126.087 81.5613C125.749 81.9681 125.364 82.3522 124.992 82.7251C123.5 84.2503 121.828 85.5835 120.608 87.3121C120.291 87.3121 120.325 87.0861 120.246 86.9506C120.156 86.8037 120.054 86.6681 119.986 86.5664C119.546 86.4196 119.309 86.6116 119.139 86.9167C118.936 87.2782 118.744 87.6511 118.54 88.0465C117.557 87.0748 116.608 85.5722 116.439 84.7022C116.665 84.6344 116.902 84.5554 117.139 84.4763C118.958 83.8549 119.941 82.2279 120.043 80.3976C120.066 80.0248 119.964 79.6181 119.84 79.2452C119.636 78.6803 119.218 78.3075 118.608 78.1719C117.953 78.025 117.343 78.1606 116.733 78.3753C116.371 78.5108 116.009 78.6803 115.648 78.8159C115.524 78.8611 115.388 78.8611 115.298 78.8724C115.117 78.6803 115.207 78.556 115.275 78.4431C115.772 77.6183 116.281 76.8048 116.947 76.1043C117.139 75.901 117.354 75.6976 117.286 75.3022C117.207 75.2231 117.105 75.0762 116.97 74.9745C114.823 73.2685 113.151 71.1557 111.716 68.8509L111.727 68.8622ZM111.298 87.041C109.716 86.7359 108.462 85.9337 107.592 84.5667C106.982 83.6176 106.689 82.5669 106.621 81.4484C106.542 80.2169 106.756 79.0306 107.174 77.8894C108.033 75.5394 109.524 73.6865 111.615 72.3195C111.908 72.1274 112.225 71.9805 112.575 71.7771C113.162 72.455 113.705 73.1103 114.292 73.7204C114.88 74.3418 115.501 74.918 116.145 75.5507C115.671 76.2512 115.207 76.9065 114.778 77.5957C114.349 78.2849 113.863 78.9515 113.58 79.6858C113.885 80.2508 113.987 80.3411 114.371 80.2395C115.185 80.0022 116.021 79.8101 116.778 79.4034C117.23 79.1661 117.693 79.0193 118.201 79.0532C118.687 79.087 118.981 79.3469 119.083 79.8214C119.388 81.2789 118.45 83.0414 117.06 83.5611C116.733 83.6854 116.394 83.7758 116.021 83.6741C115.535 83.5498 115.173 83.3239 115.015 82.8267C114.97 82.6573 114.914 82.4878 114.823 82.3296C114.71 82.115 114.518 82.0472 114.281 82.1375C114.089 82.2618 114.021 82.4426 114.055 82.6799C114.179 83.3803 114.462 83.9678 115.106 84.3294C115.196 84.3746 115.275 84.4537 115.366 84.5328C115.445 85.1429 115.716 85.6852 116.043 86.1936C116.552 86.9619 117.06 87.7414 117.603 88.4871C118.111 89.1763 118.348 89.2441 119.263 89.0633C119.309 89.2215 119.376 89.391 119.388 89.5604C119.467 91.1535 119.546 92.7465 119.625 94.4073C119.422 94.4299 119.252 94.4977 119.094 94.4751C117.207 94.1136 115.286 93.978 113.377 93.8424C113.275 93.8424 113.174 93.786 113.027 93.7408C112.982 93.5487 112.903 93.3566 112.903 93.1533C112.869 91.4133 112.846 89.6734 112.812 87.9335C112.812 87.764 112.79 87.5946 112.778 87.4025C112.315 87.1087 111.795 87.1539 111.321 87.0635L111.298 87.041ZM75.5621 65.7326C74.9859 64.4898 74.9068 63.2018 75.0085 61.8687C75.0763 61.1117 75.4265 60.5242 76.0705 60.1061C76.9857 59.5073 77.9573 59.1119 79.0758 59.1571C79.2905 59.1571 79.5164 59.2023 79.7085 59.1571C79.8554 59.1232 79.9797 58.965 80.1491 58.8408C80.0701 58.6148 80.0249 58.4001 79.9232 58.2306C79.3244 57.2138 78.703 56.2196 78.1155 55.2027C77.6184 54.3441 77.1099 53.4854 76.6693 52.5929C76.4659 52.1861 76.3982 51.7229 76.2965 51.271C76.2626 51.1467 76.3191 50.9885 76.353 50.8529C76.3643 50.7965 76.4546 50.7626 76.5676 50.6609C76.7032 50.7287 76.9292 50.7626 77.0647 50.8981C77.4489 51.2597 77.833 51.6438 78.172 52.0506C79.6068 53.7792 80.9626 55.5643 82.1489 57.4737C82.7138 58.3888 83.2109 59.3266 83.4821 60.366C83.6968 61.2134 83.742 62.072 83.4821 62.8968C82.9172 64.7723 82.2958 66.6252 81.6405 68.6363C81.6631 68.7718 81.697 69.043 81.7535 69.3254L77.72 70.2406C77.6635 69.7435 77.6071 69.2351 77.5506 68.6927C77.3585 68.4555 77.1438 68.1843 76.9179 67.9132C76.3869 67.2466 75.9349 66.5235 75.5734 65.7439L75.5621 65.7326ZM90.7355 101.344C90.487 101.299 90.2836 101.277 90.0802 101.209C88.7696 100.746 87.459 100.294 86.1711 99.7966C84.8944 99.3108 83.7533 98.5877 82.6573 97.7968C81.1208 96.667 80.3977 95.0739 80.1604 93.2549C79.8441 90.8936 79.6294 88.521 79.2792 86.1597C78.8837 83.482 78.8386 80.7705 78.6239 78.0815C78.5561 77.268 78.4883 76.4546 78.3866 75.6411C78.2059 74.1385 78.0025 72.6358 77.8217 71.1331L81.9568 70.1954C83.3126 76.0027 84.6684 81.7986 86.0242 87.6059C86.3518 89.0294 86.6908 90.4417 87.0297 91.8653C87.2896 92.9499 87.5494 93.1871 88.668 93.3679C89.6848 93.5261 90.7016 93.6843 91.7298 93.8424C91.8992 93.865 92.0574 93.9328 92.2834 94.0006C92.0687 94.8367 91.8427 95.6163 91.662 96.3958C91.4699 97.2319 91.3117 98.068 91.1648 98.904C91.018 99.7062 90.9841 100.52 90.7581 101.344H90.7355ZM71.3592 193.357C71.1784 193.402 70.9863 193.481 70.7943 193.492C68.2409 193.571 65.6762 193.639 63.1228 193.718C60.0723 193.809 57.0218 193.91 53.96 194.001C53.7227 194.001 53.4968 193.955 53.203 193.922C53.2708 193.413 53.4968 193.052 53.7792 192.747C54.2651 192.227 54.7622 191.707 55.3158 191.289C55.9372 190.815 56.6038 190.408 57.293 190.046C59.3944 188.928 61.6202 188.08 63.9363 187.357C64.2074 187.493 64.3995 187.583 64.5916 187.685C65.6084 188.25 66.7043 188.51 67.8567 188.51C68.5685 188.51 69.2803 188.51 69.9921 188.51C70.2746 188.51 70.5457 188.532 70.8056 188.555C71.0993 189.436 71.4157 192.238 71.3479 193.379L71.3592 193.357ZM69.8226 177.144C69.9808 178.307 70.0373 179.471 70.1616 180.646C70.2745 181.776 70.4327 182.906 70.5231 184.036C70.6022 185.165 70.8734 186.284 70.7717 187.561C69.0205 187.696 67.3709 187.764 65.6988 187.188C65.6084 186.894 65.4841 186.6 65.4276 186.295C64.5916 182.476 63.7668 178.669 62.942 174.85C62.8969 174.613 62.8856 174.376 62.863 174.127C63.0098 174.071 63.1002 174.003 63.2019 174.003C65.2582 173.98 67.3031 173.743 69.3933 173.754C69.7435 174.895 69.687 176.037 69.8452 177.155L69.8226 177.144ZM68.0827 148.13C68.0149 148.13 67.9358 148.13 67.868 148.13C67.1676 148.198 66.9077 148.48 66.9755 149.158C67.0433 149.87 67.1224 150.57 67.1902 151.282C67.4613 154.005 67.7438 156.728 68.0149 159.451C68.2635 161.823 68.512 164.185 68.7606 166.557C68.9301 168.218 69.0995 169.879 69.2577 171.551C69.2916 171.901 69.2577 172.252 69.2577 172.591C69.043 172.862 68.738 172.839 68.4668 172.85C67.6082 172.896 66.7608 172.907 65.9022 172.941C63.7329 173.043 61.5637 173.167 59.4057 173.268C59.2701 173.268 59.1233 173.246 58.9538 173.235C58.8973 173.065 58.8069 172.907 58.7843 172.737C58.6374 171.461 58.4793 170.195 58.3776 168.919C58.1968 166.512 58.0386 164.094 57.9144 161.677C57.8014 159.327 57.7675 156.977 57.6545 154.638C57.5528 152.649 57.3721 150.661 57.1461 148.684C56.9201 146.695 56.9088 144.707 57.2591 142.73C57.3608 142.131 57.598 141.577 57.9031 141.046C59.0781 139.069 60.8858 138.063 63.0776 137.623C63.8798 137.465 64.6933 137.419 65.518 137.397C67.5065 137.363 69.495 137.284 71.4948 137.227C72.7714 137.193 74.0594 137.182 75.3361 137.148C78.5335 137.069 81.7422 136.99 84.9396 136.9C87.5042 136.832 90.0576 136.764 92.6223 136.685C93.7182 136.651 94.8255 136.572 95.8875 136.504C98.3279 137.781 100.78 138.911 103.356 139.736C105.932 140.56 108.53 141.25 111.276 141.566C111.276 141.803 111.298 141.973 111.276 142.131C111.072 143.249 110.88 144.368 110.665 145.486C110.609 145.803 110.53 146.119 110.417 146.413C110.157 147.068 109.705 147.441 108.959 147.441C107.434 147.441 105.898 147.441 104.372 147.475C97.7856 147.565 91.21 147.667 84.6232 147.769C82.3071 147.802 79.991 147.927 77.6861 147.859C74.4775 147.757 71.2914 148.096 68.094 148.096L68.0827 148.13ZM93.3115 190.905C93.4245 191.628 93.4923 192.374 93.4132 193.074C93.3341 193.142 93.3115 193.165 93.2776 193.187C93.2437 193.21 93.2098 193.221 93.1872 193.221C91.8427 193.289 90.4983 193.368 89.1425 193.413C85.6287 193.515 82.115 193.605 78.6013 193.696C78.5448 193.696 78.477 193.639 78.4092 193.605C78.2624 193.345 78.4205 193.131 78.5222 192.916C78.9402 192.069 79.5503 191.379 80.2282 190.758C82.0698 189.041 84.273 188.024 86.736 187.583C87.0184 187.538 87.2896 187.482 87.5946 187.425C89.199 188.589 91.0745 188.702 92.9839 188.69C93.3567 189.402 93.1872 190.171 93.3002 190.894L93.3115 190.905ZM91.9105 173.845C92.2721 178.33 92.6336 182.827 92.9951 187.312C92.9951 187.414 92.9387 187.515 92.8935 187.674C91.6168 187.922 90.3853 187.651 89.1199 187.267C88.6679 185.832 88.4759 184.352 88.1369 182.906C87.7754 181.426 87.4929 179.923 87.1653 178.432C86.849 176.974 86.5326 175.528 86.1824 173.924C86.6456 173.856 86.9958 173.766 87.3348 173.743C88.8148 173.687 90.2836 173.359 91.7636 173.494C91.8201 173.63 91.8879 173.72 91.8992 173.822L91.9105 173.845ZM91.4699 168.207C91.549 169.133 91.6394 170.049 91.6959 170.975C91.7298 171.427 91.6959 171.89 91.6959 172.455C89.4249 172.681 87.2331 172.907 85.0412 173.11C84.9057 173.122 84.7701 173.076 84.6119 173.054C84.5554 172.907 84.4876 172.771 84.465 172.636C83.5951 166.727 82.7364 160.818 81.8552 154.852C82.0924 154.796 82.2958 154.717 82.4879 154.717C83.9453 154.694 85.4028 154.683 86.8715 154.66C87.6511 154.649 88.4307 154.604 89.2216 154.593C89.5379 154.593 89.8543 154.593 90.1028 154.593C90.4644 154.943 90.3966 155.316 90.4305 155.666C90.5886 157.654 90.7355 159.643 90.8937 161.62C91.0745 163.823 91.2665 166.015 91.4586 168.207H91.4699ZM109.152 152.367C108.959 152.717 108.677 152.977 108.282 153.101C107.705 153.293 107.129 153.452 106.519 153.463C103.525 153.485 100.542 153.508 97.5483 153.553C93.8086 153.61 90.0802 153.677 86.3405 153.734C82.7138 153.79 79.0871 153.847 75.4604 153.903C75.4265 153.903 75.3926 153.892 75.2796 153.858C74.6017 153.418 74.1837 152.83 74.0142 152.062C73.7544 150.932 74.2063 150.039 74.952 149.26C75.2118 148.989 75.5621 148.921 75.9349 148.898C77.2116 148.853 78.4883 148.774 79.7763 148.763C83.2674 148.718 86.7473 148.718 90.2384 148.672C94.1137 148.616 97.9889 148.548 101.875 148.469C103.615 148.435 105.355 148.39 107.107 148.345C107.502 148.345 107.886 148.322 108.282 148.345C109.027 148.379 109.49 148.763 109.626 149.475C109.818 150.48 109.683 151.463 109.185 152.367H109.152ZM134.81 132.324C134.629 133.736 134.414 135.137 134.166 136.538C133.556 140.041 132.912 143.543 132.29 147.045C132.098 148.107 131.85 149.124 131.217 150.028C130.675 150.796 130.019 151.44 129.217 151.926C128.641 152.277 128.031 152.57 127.432 152.887C127.07 153.079 126.686 153.101 126.291 153.101C123.76 153.146 121.241 153.192 118.71 153.237C116.145 153.271 113.58 153.305 111.027 153.327C110.643 153.327 110.247 153.429 109.886 153.203C109.886 153.124 109.852 153.033 109.875 152.988C110.485 151.791 110.643 150.48 110.891 149.192C111.468 146.221 111.987 143.249 112.597 140.289C113.027 138.199 113.569 136.131 114.1 134.064C114.303 133.273 114.609 132.516 114.891 131.736C115.185 130.912 115.727 130.256 116.394 129.691C116.902 129.262 117.478 129.014 118.145 129.036C118.891 129.059 119.636 129.081 120.382 129.081C123.658 129.07 126.935 129.048 130.2 129.014C130.765 129.014 131.341 128.957 131.906 128.912C132.482 128.867 133.047 128.889 133.601 129.014C134.346 129.172 134.81 129.624 134.844 130.392C134.877 131.025 134.866 131.68 134.787 132.313L134.81 132.324ZM136.9 122.122C137.352 123.184 137.521 124.302 137.442 125.455C137.397 126.189 137.092 126.731 136.493 127.149C135.838 127.624 135.103 127.861 134.313 127.906C132.889 127.985 131.477 128.065 130.053 128.11C128.381 128.155 126.72 128.178 125.048 128.2C124.766 128.2 124.483 128.178 124.088 128.155C124.031 127.861 123.975 127.658 123.963 127.454C123.884 126.166 123.941 123.285 124.065 122.517C125.387 122.201 126.788 122.28 128.087 121.997C128.324 121.771 128.381 121.557 128.302 121.286C128.178 120.913 128.053 120.54 127.94 120.167C127.827 119.794 127.714 119.421 127.59 119.003C127.748 118.936 127.861 118.857 127.986 118.845C130.358 118.642 132.719 118.439 135.115 118.235C135.205 118.371 135.307 118.472 135.363 118.597C135.883 119.76 136.403 120.935 136.911 122.11L136.9 122.122ZM123.952 120.167C123.952 119.885 123.986 119.614 123.997 119.308C124.845 119.015 125.681 119.015 126.539 119.037C126.878 119.67 127.048 120.348 127.206 121.06C126.72 121.353 126.178 121.32 125.669 121.376C125.15 121.433 124.63 121.557 123.986 121.376C123.975 120.935 123.952 120.551 123.952 120.167ZM138.03 117.004C137.951 117.038 137.849 117.105 137.747 117.117C133.205 117.489 128.675 117.919 124.201 118.258C123.85 117.953 123.941 117.602 123.941 117.297C123.93 113.874 123.918 110.462 123.907 107.039C123.907 106.361 123.907 105.683 123.907 105.005C123.907 104.756 123.873 104.519 123.85 104.214C123.647 104.158 123.466 104.112 123.286 104.056C123.195 104.203 123.116 104.282 123.105 104.384C123.071 104.734 123.048 105.095 123.048 105.446C123.048 112.812 123.071 120.19 123.082 127.556C123.082 127.726 123.048 127.895 123.014 128.11C122.777 128.144 122.574 128.211 122.37 128.211C121.444 128.211 120.517 128.178 119.602 128.155C119.071 128.144 118.529 128.11 117.998 128.132C117.151 128.155 116.416 128.471 115.772 129.036C114.947 129.759 114.337 130.607 113.953 131.635C113.411 133.07 113.015 134.55 112.665 136.041C112.349 137.386 112.044 138.741 111.716 140.097C111.682 140.267 111.603 140.425 111.547 140.572C111.163 140.73 110.812 140.651 110.462 140.594C105.073 139.713 100.011 137.905 95.2887 135.137C95.1305 135.047 94.9836 134.956 94.8368 134.855C94.7803 134.821 94.7577 134.742 94.6786 134.629C96.893 126.099 99.5255 117.648 101.988 109.151C102.452 108.914 102.915 109.061 103.367 109.095C103.864 109.14 104.361 109.208 104.858 109.242C105.095 109.253 105.344 109.208 105.57 109.185C105.638 109.05 105.717 108.948 105.706 108.858C105.694 108.722 105.615 108.598 105.547 108.44C103.209 108.135 100.859 107.976 98.5312 107.717C96.2377 107.468 93.9442 107.31 91.6846 107.005C91.3682 105.818 91.5264 101.921 91.967 99.4124C92.6336 95.6614 93.0629 94.1475 93.8086 93.0968C94.4639 93.1533 95.1305 93.2098 95.8084 93.2662C97.1529 93.3792 98.4974 93.4922 99.8418 93.6052C101.333 93.7295 102.813 93.8537 104.305 93.9893C105.265 94.0684 106.214 94.1588 107.174 94.2379C109.479 94.4412 111.773 94.6898 114.078 94.8367C115.998 94.961 117.896 95.1869 119.794 95.5485C120.642 95.7066 121.444 95.9891 122.19 96.4071C123.5 97.1415 124.72 98.0002 125.861 98.9718C127.624 100.486 129.251 102.124 130.55 104.056C131.68 105.739 132.832 107.412 133.962 109.095C135.442 111.321 136.663 113.693 137.826 116.1C137.962 116.382 138.176 116.653 138.03 117.026V117.004Z" fill="#1F2ADE"/>
<path d="M132.177 32.1093C132.121 38.425 127.522 43.5883 121.772 44.7068C115.32 45.9722 109.468 42.0065 108.112 35.9055C106.926 30.5728 109.377 25.24 113.75 22.3929C116.394 20.6756 119.32 19.9751 122.404 20.4948C127.014 21.2744 130.087 23.986 131.624 28.4035C132.03 29.5898 132.155 30.8326 132.188 32.1206L132.177 32.1093Z" fill="#BAEDB2"/>
<path d="M119.681 29.9288C120.099 29.6012 120.393 29.3526 120.71 29.1267C121.376 28.6408 122.088 28.2567 122.913 28.1211C124.302 27.8839 125.443 28.4036 126.167 29.6238C126.528 30.2452 126.731 30.9344 126.675 31.6575C126.618 32.437 126.472 33.2053 126.11 33.9171C124.732 36.6173 122.642 38.5832 119.919 39.8486C118.495 40.5039 118.258 40.4361 117.151 39.4193C115.185 37.6116 113.648 35.4988 112.982 32.8551C112.71 31.793 112.733 30.7423 112.903 29.6803C113.038 28.8555 113.411 28.1324 114.089 27.6014C115.964 26.1214 118.337 27.1156 119.105 28.686C119.286 29.0589 119.455 29.443 119.681 29.9401V29.9288ZM118.405 39.2385C118.902 39.3289 119.229 39.182 119.546 39.0239C122.02 37.8263 123.952 36.0637 125.251 33.6233C125.59 32.9793 125.749 32.2789 125.771 31.5784C125.828 30.1096 124.63 28.3358 122.495 29.1832C121.579 29.5447 120.823 30.1096 120.19 30.8553C120.054 31.0135 119.93 31.1716 119.84 31.2959C119.388 31.3976 119.173 31.1603 118.913 30.9005C118.823 30.5841 118.744 30.2452 118.619 29.9062C118.518 29.6012 118.405 29.2961 118.247 29.025C117.704 28.0985 116.846 27.7031 115.817 27.8274C114.812 27.9517 114.145 28.5618 113.863 29.556C113.603 30.4599 113.58 31.375 113.772 32.3015C114.168 34.1882 115.106 35.8152 116.337 37.2726C116.959 38.007 117.591 38.7301 118.405 39.2498V39.2385Z" fill="#1F2ADE"/>
<path d="M118.405 39.2384C117.591 38.7187 116.959 37.9956 116.337 37.2612C115.106 35.8038 114.179 34.1768 113.772 32.29C113.58 31.3636 113.603 30.4484 113.863 29.5446C114.145 28.5504 114.801 27.9403 115.817 27.816C116.857 27.6917 117.704 28.0871 118.247 29.0136C118.405 29.2847 118.518 29.5898 118.619 29.8948C118.732 30.2338 118.823 30.5727 118.913 30.8891C119.162 31.1376 119.388 31.3749 119.84 31.2845C119.93 31.1715 120.066 31.002 120.19 30.8439C120.811 30.0869 121.579 29.5333 122.495 29.1717C124.619 28.3357 125.816 30.1095 125.771 31.567C125.749 32.2787 125.59 32.9679 125.251 33.6119C123.952 36.0523 122.02 37.8148 119.546 39.0124C119.229 39.1706 118.902 39.3175 118.405 39.2271V39.2384Z" fill="#D1A76B"/>
<path d="M124.709 30.5953C124.506 29.9852 123.952 29.8949 123.41 29.9965C123.331 29.9514 123.229 29.9175 123.105 29.9401C122.404 30.0643 121.173 30.3468 121.195 31.2732C121.195 31.6348 121.478 31.9172 121.839 31.9398C122.325 31.9737 122.529 31.567 122.924 31.3975C123.398 31.2054 125.071 31.7026 124.709 30.584V30.5953Z" fill="#F5F5F5"/>
<path d="M120.427 32.1207C120.359 32.0981 120.314 32.0642 120.28 32.0077C119.919 31.5784 119.309 32.1998 119.67 32.6178C119.693 32.6517 119.727 32.6743 119.76 32.6969V32.776C119.806 33.1488 120.382 33.4313 120.574 32.9906C120.608 32.9115 120.642 32.8325 120.676 32.7534C120.8 32.4935 120.698 32.2224 120.416 32.1207H120.427Z" fill="#F5F5F5"/>
<path d="M117.41 28.9459C116.936 28.4035 116.303 27.816 115.716 28.2793C115.433 28.5052 115.365 28.912 115.591 29.1944C115.829 29.5108 116.19 29.4656 116.529 29.5786C117.038 29.748 116.925 30.2225 117.185 30.5954C117.388 30.8778 117.806 31.036 118.122 30.8439C118.947 30.3468 117.953 29.33 117.422 28.9346L117.41 28.9459Z" fill="#F5F5F5"/>
</g>
<defs>
<clipPath id="clip0_337_1264">
<rect width="139.261" height="200" fill="white"/>
</clipPath>
</defs>
</svg>
