<svg width="59" height="41" viewBox="0 0 59 41" fill="none" xmlns="http://www.w3.org/2000/svg">
<path d="M17.736 37.192C22.26 34.024 23.359 27.788 20.191 23.264C17.024 18.74 10.788 17.641 6.26399 20.81M17.736 37.192C13.212 40.359 6.97499 39.26 3.80799 34.736C0.640988 30.212 1.73999 23.976 6.26399 20.81M17.736 37.192L6.26399 20.81" stroke="white" stroke-width="1.5" stroke-linecap="round" stroke-linejoin="round"/>
<path d="M19.577 22.473C15.807 28.369 11.069 31.687 3.27499 33.888" stroke="white" stroke-width="1.5" stroke-linecap="round" stroke-linejoin="round"/>
<path d="M13.06 19.056C13.473 24.296 16.452 28.55 21.706 31.406M2.293 26.595C7.076 28.775 10.054 33.029 10.94 38.944" stroke="white" stroke-width="1.5" stroke-linecap="round" stroke-linejoin="round"/>
<path d="M37.125 7.29146C37.125 6.90469 36.9713 6.53376 36.6979 6.26027C36.4244 5.98678 36.0534 5.83313 35.6667 5.83313H32.75C32.3632 5.83313 31.9923 5.98678 31.7188 6.26027C31.4453 6.53376 31.2917 6.90469 31.2917 7.29146V27.7081C31.2917 28.0949 31.4453 28.4658 31.7188 28.7393C31.9923 29.0128 32.3632 29.1665 32.75 29.1665H35.6667C36.0534 29.1665 36.4244 29.0128 36.6979 28.7393C36.9713 28.4658 37.125 28.0949 37.125 27.7081M37.125 7.29146V27.7081M37.125 7.29146C37.125 6.90469 37.2786 6.53376 37.5521 6.26027C37.8256 5.98678 38.1965 5.83313 38.5833 5.83313H41.5C41.8868 5.83313 42.2577 5.98678 42.5312 6.26027C42.8047 6.53376 42.9583 6.90469 42.9583 7.29146V27.7081C42.9583 28.0949 42.8047 28.4658 42.5312 28.7393C42.2577 29.0128 41.8868 29.1665 41.5 29.1665H38.5833C38.1965 29.1665 37.8256 29.0128 37.5521 28.7393C37.2786 28.4658 37.125 28.0949 37.125 27.7081M31.2917 11.6665H37.125M37.125 23.3331H42.9583" stroke="white" stroke-width="2" stroke-linecap="round" stroke-linejoin="round"/>
<path d="M44.4167 13.125L50.25 11.6667M47.3333 23.3334L53.0544 21.9042M44.1294 6.65002L47.3144 5.8771C48.1339 5.68023 48.9667 6.15419 49.1839 6.9446L54.5725 26.5125C54.6676 26.8708 54.6255 27.2516 54.4544 27.5804C54.2834 27.9092 53.9958 28.1624 53.6479 28.2902L53.4539 28.35L50.2689 29.1229C49.4494 29.3198 48.6167 28.8459 48.3994 28.0554L43.0108 8.48752C42.9158 8.12928 42.9579 7.74846 43.1289 7.41963C43.2999 7.09081 43.5875 6.83768 43.9354 6.70981L44.1294 6.65002Z" stroke="white" stroke-width="2" stroke-linecap="round" stroke-linejoin="round"/>
</svg>
