<svg width="54" height="36" viewBox="0 0 54 36" fill="none" xmlns="http://www.w3.org/2000/svg">
<path d="M18 0C16.3291 0 14.7267 0.663748 13.5452 1.84523C12.3637 3.02671 11.7 4.62914 11.7 6.3H15.3C15.3 5.58392 15.5845 4.89716 16.0908 4.39081C16.5972 3.88446 17.2839 3.6 18 3.6C18.7161 3.6 19.4028 3.88446 19.9092 4.39081C20.4155 4.89716 20.7 5.58392 20.7 6.3C20.7 7.01608 20.4155 7.70284 19.9092 8.20919C19.4028 8.71554 18.7161 9 18 9C17.01 9 16.2 9.81 16.2 10.8V13.95L0.72 25.56C0.417769 25.7867 0.19452 26.1027 0.0818756 26.4633C-0.0307687 26.8239 -0.0270971 27.2108 0.0923701 27.5692C0.211837 27.9276 0.441043 28.2393 0.747521 28.4602C1.054 28.6811 1.42221 28.8 1.8 28.8H34.2C34.5778 28.8 34.946 28.6811 35.2525 28.4602C35.559 28.2393 35.7882 27.9276 35.9076 27.5692C36.0271 27.2108 36.0308 26.8239 35.9181 26.4633C35.8055 26.1027 35.5822 25.7867 35.28 25.56L19.8 13.95V12.33C21.0989 11.9427 22.2384 11.1468 23.049 10.0605C23.8597 8.97424 24.2984 7.65545 24.3 6.3C24.3 4.62914 23.6363 3.02671 22.4548 1.84523C21.2733 0.663748 19.6709 0 18 0ZM18 17.1L28.8 25.2H7.2L18 17.1Z" fill="white"/>
<path d="M36 7.20001C34.3291 7.20001 32.7267 7.86376 31.5452 9.04524C30.3637 10.2267 29.7 11.8291 29.7 13.5H33.3C33.3 12.7839 33.5845 12.0972 34.0908 11.5908C34.5972 11.0845 35.2839 10.8 36 10.8C36.7161 10.8 37.4028 11.0845 37.9092 11.5908C38.4155 12.0972 38.7 12.7839 38.7 13.5C38.7 14.2161 38.4155 14.9029 37.9092 15.4092C37.4028 15.9155 36.7161 16.2 36 16.2C35.01 16.2 34.2 17.01 34.2 18V21.15L18.72 32.76C18.4178 32.9867 18.1945 33.3027 18.0819 33.6633C17.9692 34.0239 17.9729 34.4108 18.0924 34.7692C18.2118 35.1276 18.441 35.4394 18.7475 35.6602C19.054 35.8811 19.4222 36 19.8 36H52.2C52.5778 36 52.946 35.8811 53.2525 35.6602C53.559 35.4394 53.7882 35.1276 53.9076 34.7692C54.0271 34.4108 54.0308 34.0239 53.9181 33.6633C53.8055 33.3027 53.5822 32.9867 53.28 32.76L37.8 21.15V19.53C39.0989 19.1427 40.2384 18.3469 41.049 17.2606C41.8597 16.1743 42.2984 14.8555 42.3 13.5C42.3 11.8291 41.6363 10.2267 40.4548 9.04524C39.2733 7.86376 37.6709 7.20001 36 7.20001ZM36 24.3L46.8 32.4H25.2L36 24.3Z" fill="white"/>
</svg>
