<svg width="38" height="38" viewBox="0 0 38 38" fill="none" xmlns="http://www.w3.org/2000/svg">
<g clip-path="url(#clip0_161_826)">
<path d="M7.05375 3.20625C7.27673 2.94556 7.55354 2.73626 7.86513 2.59277C8.17672 2.44927 8.5157 2.37498 8.85875 2.375H29.1413C29.4843 2.37498 29.8233 2.44927 30.1349 2.59277C30.4465 2.73626 30.7233 2.94556 30.9462 3.20625L37.1426 10.4358C37.6959 11.0814 38 11.9035 38 12.7537V13.3594C38.0001 14.5349 37.633 15.6812 36.9498 16.6379C36.2667 17.5946 35.3017 18.3139 34.1897 18.6954C33.0778 19.0769 31.8744 19.1014 30.7478 18.7655C29.6213 18.4297 28.6278 17.7502 27.9062 16.8221C27.3795 17.501 26.7042 18.0502 25.9323 18.4277C25.1605 18.8052 24.3124 19.001 23.4531 19C22.5939 19.001 21.7458 18.8052 20.9739 18.4277C20.202 18.0502 19.5268 17.501 19 16.8221C18.4732 17.501 17.798 18.0502 17.0261 18.4277C16.2542 18.8052 15.4061 19.001 14.5469 19C13.6876 19.001 12.8395 18.8052 12.0677 18.4277C11.2958 18.0502 10.6205 17.501 10.0938 16.8221C9.3722 17.7502 8.37872 18.4297 7.25215 18.7655C6.12558 19.1014 4.92223 19.0769 3.81027 18.6954C2.69832 18.3139 1.73333 17.5946 1.05018 16.6379C0.367037 15.6812 -0.000129672 14.5349 3.43533e-08 13.3594V12.7537C2.99429e-05 11.9035 0.304134 11.0814 0.857375 10.4358L7.05375 3.20625ZM11.2812 13.3594C11.2812 14.2255 11.6253 15.0561 12.2377 15.6685C12.8502 16.2809 13.6808 16.625 14.5469 16.625C15.413 16.625 16.2436 16.2809 16.856 15.6685C17.4684 15.0561 17.8125 14.2255 17.8125 13.3594C17.8125 13.0444 17.9376 12.7424 18.1603 12.5197C18.383 12.297 18.6851 12.1719 19 12.1719C19.3149 12.1719 19.617 12.297 19.8397 12.5197C20.0624 12.7424 20.1875 13.0444 20.1875 13.3594C20.1875 14.2255 20.5316 15.0561 21.144 15.6685C21.7564 16.2809 22.587 16.625 23.4531 16.625C24.3192 16.625 25.1498 16.2809 25.7623 15.6685C26.3747 15.0561 26.7188 14.2255 26.7188 13.3594C26.7188 13.0444 26.8439 12.7424 27.0666 12.5197C27.2893 12.297 27.5913 12.1719 27.9062 12.1719C28.2212 12.1719 28.5232 12.297 28.7459 12.5197C28.9686 12.7424 29.0938 13.0444 29.0938 13.3594C29.0938 14.2255 29.4378 15.0561 30.0502 15.6685C30.6627 16.2809 31.4933 16.625 32.3594 16.625C33.2255 16.625 34.0561 16.2809 34.6685 15.6685C35.2809 15.0561 35.625 14.2255 35.625 13.3594V12.7537C35.625 12.4707 35.524 12.197 35.34 11.9819L29.1413 4.75H8.85875L2.66 11.9819C2.47605 12.197 2.37498 12.4707 2.375 12.7537V13.3594C2.375 14.2255 2.71906 15.0561 3.33148 15.6685C3.9439 16.2809 4.77453 16.625 5.64062 16.625C6.50672 16.625 7.33735 16.2809 7.94977 15.6685C8.56219 15.0561 8.90625 14.2255 8.90625 13.3594C8.90625 13.0444 9.03136 12.7424 9.25406 12.5197C9.47676 12.297 9.77881 12.1719 10.0938 12.1719C10.4087 12.1719 10.7107 12.297 10.9334 12.5197C11.1561 12.7424 11.2812 13.0444 11.2812 13.3594ZM3.5625 20.1875C3.87744 20.1875 4.17949 20.3126 4.40219 20.5353C4.62489 20.758 4.75 21.0601 4.75 21.375V35.625H7.125V23.75C7.125 23.1201 7.37522 22.516 7.82062 22.0706C8.26602 21.6252 8.87011 21.375 9.5 21.375H16.625C17.2549 21.375 17.859 21.6252 18.3044 22.0706C18.7498 22.516 19 23.1201 19 23.75V35.625H33.25V21.375C33.25 21.0601 33.3751 20.758 33.5978 20.5353C33.8205 20.3126 34.1226 20.1875 34.4375 20.1875C34.7524 20.1875 35.0545 20.3126 35.2772 20.5353C35.4999 20.758 35.625 21.0601 35.625 21.375V35.625H36.8125C37.1274 35.625 37.4295 35.7501 37.6522 35.9728C37.8749 36.1955 38 36.4976 38 36.8125C38 37.1274 37.8749 37.4295 37.6522 37.6522C37.4295 37.8749 37.1274 38 36.8125 38H1.1875C0.872555 38 0.57051 37.8749 0.347811 37.6522C0.125111 37.4295 3.43533e-08 37.1274 3.43533e-08 36.8125C3.43533e-08 36.4976 0.125111 36.1955 0.347811 35.9728C0.57051 35.7501 0.872555 35.625 1.1875 35.625H2.375V21.375C2.375 21.0601 2.50011 20.758 2.72281 20.5353C2.94551 20.3126 3.24756 20.1875 3.5625 20.1875ZM9.5 35.625H16.625V23.75H9.5V35.625ZM21.375 23.75C21.375 23.1201 21.6252 22.516 22.0706 22.0706C22.516 21.6252 23.1201 21.375 23.75 21.375H28.5C29.1299 21.375 29.734 21.6252 30.1794 22.0706C30.6248 22.516 30.875 23.1201 30.875 23.75V30.875C30.875 31.5049 30.6248 32.109 30.1794 32.5544C29.734 32.9998 29.1299 33.25 28.5 33.25H23.75C23.1201 33.25 22.516 32.9998 22.0706 32.5544C21.6252 32.109 21.375 31.5049 21.375 30.875V23.75ZM28.5 23.75H23.75V30.875H28.5V23.75Z" fill="white"/>
</g>
<defs>
<clipPath id="clip0_161_826">
<rect width="38" height="38" fill="white"/>
</clipPath>
</defs>
</svg>
